G04*
G04 #@! TF.GenerationSoftware,Altium Limited,Altium Designer,25.7.1 (20)*
G04*
G04 Layer_Color=128*
%FSLAX24Y24*%
%MOIN*%
G70*
G04*
G04 #@! TF.SameCoordinates,6BD2BFD6-E8B5-49EE-896E-F5671A370314*
G04*
G04*
G04 #@! TF.FilePolarity,Positive*
G04*
G01*
G75*
%ADD11C,0.0050*%
D11*
X16398Y31693D02*
X16831D01*
X16614Y31476D02*
Y31909D01*
X17067Y31693D02*
X17500D01*
X17283Y31476D02*
Y31909D01*
X17736Y31693D02*
X18169D01*
X17953Y31476D02*
Y31909D01*
X18406Y31693D02*
X18839D01*
X18622Y31476D02*
Y31909D01*
X19075Y31693D02*
X19508D01*
X19291Y31476D02*
Y31909D01*
X53169Y22677D02*
X53681D01*
X53425Y22421D02*
Y22933D01*
X52185Y22677D02*
X52697D01*
X52441Y22421D02*
Y22933D01*
X53169Y18740D02*
X53681D01*
X53425Y18484D02*
Y18996D01*
X52185Y18740D02*
X52697D01*
X52441Y18484D02*
Y18996D01*
X50217Y20709D02*
X50728D01*
X50472Y20453D02*
Y20965D01*
X50236Y18740D02*
X50709D01*
X50472Y18504D02*
Y18976D01*
X50236Y19724D02*
X50709D01*
X50472Y19488D02*
Y19961D01*
X50236Y22677D02*
X50709D01*
X50472Y22441D02*
Y22913D01*
X50236Y21693D02*
X50709D01*
X50472Y21457D02*
Y21929D01*
X52185Y20709D02*
X52697D01*
X52441Y20453D02*
Y20965D01*
X51194Y28976D02*
X51509D01*
X51352Y28819D02*
Y29134D01*
X51194Y24646D02*
X51509D01*
X51352Y24488D02*
Y24803D01*
X52664Y28976D02*
X52979D01*
X52822Y28819D02*
Y29134D01*
X52664Y24646D02*
X52979D01*
X52822Y24488D02*
Y24803D01*
X54134Y28976D02*
X54449D01*
X54291Y28819D02*
Y29134D01*
X54134Y24646D02*
X54449D01*
X54291Y24488D02*
Y24803D01*
X49724Y28976D02*
X50039D01*
X49882Y28819D02*
Y29134D01*
X49724Y24646D02*
X50039D01*
X49882Y24488D02*
Y24803D01*
X30551Y3740D02*
X30945D01*
X30748Y3543D02*
Y3937D01*
X11459Y12150D02*
X11770D01*
X11614Y11994D02*
Y12305D01*
X14222Y21496D02*
X14541D01*
X14382Y21337D02*
Y21656D01*
X11939Y21496D02*
X12258D01*
X12098Y21337D02*
Y21656D01*
X9616Y21496D02*
X9935D01*
X9775Y21337D02*
Y21656D01*
X16860Y20984D02*
X17156D01*
X17008Y20837D02*
Y21132D01*
X42227Y33702D02*
X42523D01*
X42375Y33555D02*
Y33850D01*
X45039Y3325D02*
X45551D01*
X45295Y3069D02*
Y3580D01*
X45039Y8246D02*
X45551D01*
X45295Y7990D02*
Y8502D01*
X19813Y12697D02*
X20108D01*
X19961Y12549D02*
Y12844D01*
X22726Y12697D02*
X23022D01*
X22874Y12549D02*
Y12844D01*
X45039Y10689D02*
X45551D01*
X45295Y10433D02*
Y10945D01*
X45039Y15610D02*
X45551D01*
X45295Y15354D02*
Y15866D01*
X51791Y3325D02*
X52303D01*
X52047Y3069D02*
Y3580D01*
X51791Y8246D02*
X52303D01*
X52047Y7990D02*
Y8502D01*
X38287Y10689D02*
X38799D01*
X38543Y10433D02*
Y10945D01*
X38287Y15610D02*
X38799D01*
X38543Y15354D02*
Y15866D01*
X22937Y26378D02*
X23339D01*
X23138Y26177D02*
Y26579D01*
X11142Y15276D02*
X11457D01*
X11299Y15118D02*
Y15433D01*
X19729Y21811D02*
X20048D01*
X19888Y21652D02*
Y21970D01*
X23700Y19567D02*
X24019D01*
X23860Y19407D02*
Y19726D01*
X23700Y21811D02*
X24019D01*
X23860Y21652D02*
Y21970D01*
X19729Y19567D02*
X20048D01*
X19888Y19407D02*
Y19726D01*
X21715Y21811D02*
X22033D01*
X21874Y21652D02*
Y21970D01*
X21715Y19567D02*
X22033D01*
X21874Y19407D02*
Y19726D01*
X24213Y14972D02*
X24520D01*
X24366Y14819D02*
Y15126D01*
X23213Y14972D02*
X23520D01*
X23366Y14819D02*
Y15126D01*
X1457Y21299D02*
X1929D01*
X1693Y21063D02*
Y21535D01*
X1496Y13189D02*
X1969D01*
X1732Y12953D02*
Y13425D01*
X5837Y23543D02*
X6132D01*
X5984Y23396D02*
Y23691D01*
X5837Y20748D02*
X6132D01*
X5984Y20600D02*
Y20896D01*
X32921Y30390D02*
X33315D01*
X33118Y30193D02*
Y30587D01*
X26921Y13390D02*
X27315D01*
X27118Y13193D02*
Y13587D01*
X16506Y28051D02*
X16801D01*
X16654Y27904D02*
Y28199D01*
X19634Y25395D02*
X20051D01*
X19843Y25186D02*
Y25604D01*
X21565Y30709D02*
X21900D01*
X21732Y30541D02*
Y30876D01*
X36535Y31575D02*
X36850D01*
X36693Y31417D02*
Y31732D01*
X52470Y34646D02*
X52884D01*
X52677Y34439D02*
Y34852D01*
X50254Y34421D02*
X50533D01*
X50394Y34281D02*
Y34561D01*
X8157Y15484D02*
X8465D01*
X8311Y15331D02*
Y15638D01*
X6157Y15484D02*
X6465D01*
X6311Y15331D02*
Y15638D01*
X19403Y3760D02*
X19718D01*
X19560Y3602D02*
Y3917D01*
X26503Y3760D02*
X26818D01*
X26660Y3602D02*
Y3917D01*
X15031Y9903D02*
X15425D01*
X15228Y9706D02*
Y10100D01*
X17032Y3368D02*
X17425D01*
X17228Y3171D02*
Y3565D01*
X41311Y30256D02*
X41705D01*
X41508Y30059D02*
Y30453D01*
X5581Y31260D02*
X5994D01*
X5787Y31053D02*
Y31467D01*
X5581Y28504D02*
X5994D01*
X5787Y28297D02*
Y28711D01*
X51791Y10689D02*
X52303D01*
X52047Y10433D02*
Y10945D01*
X51791Y15610D02*
X52303D01*
X52047Y15354D02*
Y15866D01*
X38287Y3325D02*
X38799D01*
X38543Y3069D02*
Y3580D01*
X38287Y8246D02*
X38799D01*
X38543Y7990D02*
Y8502D01*
X36319Y3325D02*
X36831D01*
X36575Y3069D02*
Y3580D01*
X36319Y8246D02*
X36831D01*
X36575Y7990D02*
Y8502D01*
X49823Y10689D02*
X50335D01*
X50079Y10433D02*
Y10945D01*
X49823Y15610D02*
X50335D01*
X50079Y15354D02*
Y15866D01*
X30551Y7441D02*
X30945D01*
X30748Y7244D02*
Y7638D01*
X30551Y5591D02*
X30945D01*
X30748Y5394D02*
Y5787D01*
X11459Y14150D02*
X11770D01*
X11614Y13994D02*
Y14305D01*
X11459Y13150D02*
X11770D01*
X11614Y12994D02*
Y13305D01*
X6565Y28504D02*
X6978D01*
X6772Y28297D02*
Y28711D01*
X6565Y31260D02*
X6978D01*
X6772Y31053D02*
Y31467D01*
X2598Y29449D02*
X2992D01*
X2795Y29252D02*
Y29646D01*
X2598Y28465D02*
X2992D01*
X2795Y28268D02*
Y28661D01*
X2598Y30433D02*
X2992D01*
X2795Y30236D02*
Y30630D01*
X2598Y31417D02*
X2992D01*
X2795Y31220D02*
Y31614D01*
X30846Y45118D02*
X31476D01*
X31161Y44803D02*
Y45433D01*
X2146Y37520D02*
X2776D01*
X2461Y37205D02*
Y37835D01*
X30846Y52717D02*
X31476D01*
X31161Y52402D02*
Y53032D01*
X2146Y45118D02*
X2776D01*
X2461Y44803D02*
Y45433D01*
X30846Y37520D02*
X31476D01*
X31161Y37205D02*
Y37835D01*
X2146Y52717D02*
X2776D01*
X2461Y52402D02*
Y53032D01*
X42311Y30256D02*
X42705D01*
X42508Y30059D02*
Y30453D01*
X40311Y30256D02*
X40705D01*
X40508Y30059D02*
Y30453D01*
X43311Y30256D02*
X43705D01*
X43508Y30059D02*
Y30453D01*
X47618Y29980D02*
X48799D01*
X48209Y29390D02*
Y30571D01*
X35217Y18287D02*
X36398D01*
X35807Y17697D02*
Y18878D01*
X47618Y18287D02*
X48799D01*
X48209Y17697D02*
Y18878D01*
X35217Y29980D02*
X36398D01*
X35807Y29390D02*
Y30571D01*
X15031Y3368D02*
X15425D01*
X15228Y3171D02*
Y3565D01*
X17032Y9903D02*
X17425D01*
X17228Y9706D02*
Y10100D01*
X16032Y9903D02*
X16425D01*
X16228Y9706D02*
Y10100D01*
X16032Y3368D02*
X16425D01*
X16228Y3171D02*
Y3565D01*
X26503Y2760D02*
X26818D01*
X26660Y2602D02*
Y2917D01*
X19403Y2760D02*
X19718D01*
X19560Y2602D02*
Y2917D01*
X26503Y9760D02*
X26818D01*
X26660Y9602D02*
Y9917D01*
X26503Y8760D02*
X26818D01*
X26660Y8602D02*
Y8917D01*
X19403Y8760D02*
X19718D01*
X19560Y8602D02*
Y8917D01*
X26503Y4760D02*
X26818D01*
X26660Y4602D02*
Y4917D01*
X26503Y7760D02*
X26818D01*
X26660Y7602D02*
Y7917D01*
X19403Y7760D02*
X19718D01*
X19560Y7602D02*
Y7917D01*
X19403Y4760D02*
X19718D01*
X19560Y4602D02*
Y4917D01*
X26503Y5760D02*
X26818D01*
X26660Y5602D02*
Y5917D01*
X26503Y6760D02*
X26818D01*
X26660Y6602D02*
Y6917D01*
X19403Y5760D02*
X19718D01*
X19560Y5602D02*
Y5917D01*
X19403Y6760D02*
X19718D01*
X19560Y6602D02*
Y6917D01*
X19403Y9760D02*
X19718D01*
X19560Y9602D02*
Y9917D01*
X5157Y15484D02*
X5465D01*
X5311Y15331D02*
Y15638D01*
X7157Y15484D02*
X7465D01*
X7311Y15331D02*
Y15638D01*
X8157Y18610D02*
X8465D01*
X8311Y18457D02*
Y18764D01*
X6157Y18610D02*
X6465D01*
X6311Y18457D02*
Y18764D01*
X5157Y18610D02*
X5465D01*
X5311Y18457D02*
Y18764D01*
X7157Y18610D02*
X7465D01*
X7311Y18457D02*
Y18764D01*
X53120Y30906D02*
X53415D01*
X53268Y30758D02*
Y31053D01*
X53120Y31693D02*
X53415D01*
X53268Y31545D02*
Y31841D01*
X50797Y30906D02*
X51093D01*
X50945Y30758D02*
Y31053D01*
X50797Y31693D02*
X51093D01*
X50945Y31545D02*
Y31841D01*
X50254Y35421D02*
X50533D01*
X50394Y35282D02*
Y35561D01*
X53455Y34646D02*
X53868D01*
X53661Y34439D02*
Y34852D01*
X48583Y31535D02*
X48898D01*
X48740Y31378D02*
Y31693D01*
X48583Y35866D02*
X48898D01*
X48740Y35709D02*
Y36024D01*
X39449Y35906D02*
X39764D01*
X39606Y35748D02*
Y36063D01*
X39449Y31575D02*
X39764D01*
X39606Y31417D02*
Y31732D01*
X38018Y31575D02*
X38333D01*
X38176Y31417D02*
Y31732D01*
X38018Y35906D02*
X38333D01*
X38176Y35748D02*
Y36063D01*
X35118Y35906D02*
X35433D01*
X35276Y35748D02*
Y36063D01*
X35118Y31575D02*
X35433D01*
X35276Y31417D02*
Y31732D01*
X36535Y35906D02*
X36850D01*
X36693Y35748D02*
Y36063D01*
X23533Y30709D02*
X23868D01*
X23701Y30541D02*
Y30876D01*
X19488Y24055D02*
X19803D01*
X19646Y23898D02*
Y24213D01*
X23819Y24055D02*
X24134D01*
X23976Y23898D02*
Y24213D01*
X19634Y29487D02*
X20051D01*
X19843Y29278D02*
Y29696D01*
X16506Y29035D02*
X16801D01*
X16654Y28888D02*
Y29183D01*
X26921Y28390D02*
X27315D01*
X27118Y28193D02*
Y28587D01*
X26921Y25390D02*
X27315D01*
X27118Y25193D02*
Y25587D01*
X26921Y26390D02*
X27315D01*
X27118Y26193D02*
Y26587D01*
X26921Y31390D02*
X27315D01*
X27118Y31193D02*
Y31587D01*
X26921Y24390D02*
X27315D01*
X27118Y24193D02*
Y24587D01*
X26921Y30390D02*
X27315D01*
X27118Y30193D02*
Y30587D01*
X26921Y23390D02*
X27315D01*
X27118Y23193D02*
Y23587D01*
X26921Y29390D02*
X27315D01*
X27118Y29193D02*
Y29587D01*
X26921Y22390D02*
X27315D01*
X27118Y22193D02*
Y22587D01*
X26921Y21390D02*
X27315D01*
X27118Y21193D02*
Y21587D01*
X26921Y15390D02*
X27315D01*
X27118Y15193D02*
Y15587D01*
X26921Y17390D02*
X27315D01*
X27118Y17193D02*
Y17587D01*
X26921Y12390D02*
X27315D01*
X27118Y12193D02*
Y12587D01*
X26921Y19390D02*
X27315D01*
X27118Y19193D02*
Y19587D01*
X26921Y20390D02*
X27315D01*
X27118Y20193D02*
Y20587D01*
X26921Y18390D02*
X27315D01*
X27118Y18193D02*
Y18587D01*
X32921Y28390D02*
X33315D01*
X33118Y28193D02*
Y28587D01*
X32921Y26390D02*
X33315D01*
X33118Y26193D02*
Y26587D01*
X32921Y25390D02*
X33315D01*
X33118Y25193D02*
Y25587D01*
X32921Y29390D02*
X33315D01*
X33118Y29193D02*
Y29587D01*
X32921Y27390D02*
X33315D01*
X33118Y27193D02*
Y27587D01*
X32921Y13390D02*
X33315D01*
X33118Y13193D02*
Y13587D01*
X32921Y19390D02*
X33315D01*
X33118Y19193D02*
Y19587D01*
X32921Y18390D02*
X33315D01*
X33118Y18193D02*
Y18587D01*
X32921Y17390D02*
X33315D01*
X33118Y17193D02*
Y17587D01*
X32921Y16390D02*
X33315D01*
X33118Y16193D02*
Y16587D01*
X32921Y14390D02*
X33315D01*
X33118Y14193D02*
Y14587D01*
X32921Y15390D02*
X33315D01*
X33118Y15193D02*
Y15587D01*
X32921Y12390D02*
X33315D01*
X33118Y12193D02*
Y12587D01*
X32921Y23390D02*
X33315D01*
X33118Y23193D02*
Y23587D01*
X32921Y20390D02*
X33315D01*
X33118Y20193D02*
Y20587D01*
X26921Y27390D02*
X27315D01*
X27118Y27193D02*
Y27587D01*
X32921Y22390D02*
X33315D01*
X33118Y22193D02*
Y22587D01*
X32921Y24390D02*
X33315D01*
X33118Y24193D02*
Y24587D01*
X32921Y21390D02*
X33315D01*
X33118Y21193D02*
Y21587D01*
X26921Y14390D02*
X27315D01*
X27118Y14193D02*
Y14587D01*
X32921Y31390D02*
X33315D01*
X33118Y31193D02*
Y31587D01*
X26921Y16390D02*
X27315D01*
X27118Y16193D02*
Y16587D01*
X16083Y25236D02*
X16437D01*
X16260Y25059D02*
Y25413D01*
X18051Y25236D02*
X18406D01*
X18228Y25059D02*
Y25413D01*
X14169Y12913D02*
X14697D01*
X14433Y12650D02*
Y13177D01*
X15169Y12913D02*
X15697D01*
X15433Y12650D02*
Y13177D01*
X16169Y12913D02*
X16697D01*
X16433Y12650D02*
Y13177D01*
X4921Y12638D02*
X5236D01*
X5079Y12480D02*
Y12795D01*
X9252Y12638D02*
X9567D01*
X9409Y12480D02*
Y12795D01*
X9291Y14016D02*
X9606D01*
X9449Y13858D02*
Y14173D01*
X4961Y14016D02*
X5276D01*
X5118Y13858D02*
Y14173D01*
X6821Y20748D02*
X7116D01*
X6969Y20600D02*
Y20896D01*
X6821Y23543D02*
X7116D01*
X6969Y23396D02*
Y23691D01*
X6466Y26097D02*
X6761D01*
X6613Y25949D02*
Y26245D01*
X5678Y26097D02*
X5973D01*
X5826Y25949D02*
Y26245D01*
X1496Y15157D02*
X1969D01*
X1732Y14921D02*
Y15394D01*
X1496Y17126D02*
X1969D01*
X1732Y16890D02*
Y17362D01*
X1457Y25236D02*
X1929D01*
X1693Y25000D02*
Y25472D01*
X1457Y23268D02*
X1929D01*
X1693Y23031D02*
Y23504D01*
X17213Y14972D02*
X17520D01*
X17366Y14819D02*
Y15126D01*
X18213Y14972D02*
X18520D01*
X18366Y14819D02*
Y15126D01*
X19213Y14972D02*
X19520D01*
X19366Y14819D02*
Y15126D01*
X20213Y14972D02*
X20520D01*
X20366Y14819D02*
Y15126D01*
X21213Y14972D02*
X21520D01*
X21366Y14819D02*
Y15126D01*
X22213Y14972D02*
X22520D01*
X22366Y14819D02*
Y15126D01*
X24213Y18098D02*
X24520D01*
X24366Y17945D02*
Y18252D01*
X23213Y18098D02*
X23520D01*
X23366Y17945D02*
Y18252D01*
X22213Y18098D02*
X22520D01*
X22366Y17945D02*
Y18252D01*
X21213Y18098D02*
X21520D01*
X21366Y17945D02*
Y18252D01*
X20213Y18098D02*
X20520D01*
X20366Y17945D02*
Y18252D01*
X17213Y18098D02*
X17520D01*
X17366Y17945D02*
Y18252D01*
X18213Y18098D02*
X18520D01*
X18366Y17945D02*
Y18252D01*
X19213Y18098D02*
X19520D01*
X19366Y17945D02*
Y18252D01*
X11968Y31220D02*
X12441D01*
X12205Y30984D02*
Y31457D01*
X11968Y28465D02*
X12441D01*
X12205Y28228D02*
Y28701D01*
X53622Y58032D02*
X54567D01*
X54094Y57559D02*
Y58504D01*
X551Y58032D02*
X1496D01*
X1024Y57559D02*
Y58504D01*
X551Y1024D02*
X1496D01*
X1024Y551D02*
Y1496D01*
X53622Y1024D02*
X54567D01*
X54094Y551D02*
Y1496D01*
X19813Y11713D02*
X20108D01*
X19961Y11565D02*
Y11860D01*
X15472Y15276D02*
X15787D01*
X15630Y15118D02*
Y15433D01*
X11142Y16831D02*
X11457D01*
X11299Y16673D02*
Y16988D01*
X15472Y16831D02*
X15787D01*
X15630Y16673D02*
Y16988D01*
X11142Y18386D02*
X11457D01*
X11299Y18228D02*
Y18543D01*
X15472Y18386D02*
X15787D01*
X15630Y18228D02*
Y18543D01*
X22726Y11713D02*
X23022D01*
X22874Y11565D02*
Y11860D01*
X20729Y19567D02*
X21048D01*
X20888Y19407D02*
Y19726D01*
X22715Y19567D02*
X23033D01*
X22874Y19407D02*
Y19726D01*
X17844Y20984D02*
X18140D01*
X17992Y20837D02*
Y21132D01*
X21937Y26378D02*
X22339D01*
X22138Y26177D02*
Y26579D01*
X20729Y21811D02*
X21048D01*
X20888Y21652D02*
Y21970D01*
X22715Y21811D02*
X23033D01*
X22874Y21652D02*
Y21970D01*
X27049Y45118D02*
X28309D01*
X27679Y44488D02*
Y45748D01*
X27049Y37520D02*
X28309D01*
X27679Y36890D02*
Y38150D01*
X27049Y52717D02*
X28309D01*
X27679Y52087D02*
Y53346D01*
X5156Y45118D02*
X6415D01*
X5785Y44488D02*
Y45748D01*
X5156Y37520D02*
X6415D01*
X5785Y36890D02*
Y38150D01*
X5156Y52717D02*
X6415D01*
X5785Y52087D02*
Y53346D01*
X24700Y19567D02*
X25019D01*
X24860Y19407D02*
Y19726D01*
X24700Y21811D02*
X25019D01*
X24860Y21652D02*
Y21970D01*
X43071Y8246D02*
X43583D01*
X43327Y7990D02*
Y8502D01*
X43071Y3325D02*
X43583D01*
X43327Y3069D02*
Y3580D01*
X43071Y15610D02*
X43583D01*
X43327Y15354D02*
Y15866D01*
X43071Y10689D02*
X43583D01*
X43327Y10433D02*
Y10945D01*
X49823Y8246D02*
X50335D01*
X50079Y7990D02*
Y8502D01*
X49823Y3325D02*
X50335D01*
X50079Y3069D02*
Y3580D01*
X36319Y15610D02*
X36831D01*
X36575Y15354D02*
Y15866D01*
X36319Y10689D02*
X36831D01*
X36575Y10433D02*
Y10945D01*
X41243Y33702D02*
X41538D01*
X41391Y33555D02*
Y33850D01*
X46407Y33465D02*
X46742D01*
X46575Y33297D02*
Y33632D01*
X44439Y33465D02*
X44774D01*
X44606Y33297D02*
Y33632D01*
X11142Y19961D02*
X11457D01*
X11299Y19803D02*
Y20118D01*
X15472Y19961D02*
X15787D01*
X15630Y19803D02*
Y20118D01*
X15222Y21496D02*
X15541D01*
X15382Y21337D02*
Y21656D01*
X12939Y21496D02*
X13258D01*
X13098Y21337D02*
Y21656D01*
X10616Y21496D02*
X10935D01*
X10775Y21337D02*
Y21656D01*
X29154Y16417D02*
X29272D01*
X29213Y16358D02*
Y16476D01*
X29075Y15394D02*
X29193D01*
X29134Y15335D02*
Y15453D01*
X29429Y22402D02*
X29547D01*
X29488Y22343D02*
Y22461D01*
X26280Y15354D02*
X26398D01*
X26339Y15295D02*
Y15413D01*
X26280Y16024D02*
X26398D01*
X26339Y15965D02*
Y16083D01*
X25965Y15709D02*
X26083D01*
X26024Y15650D02*
Y15768D01*
X25236Y23228D02*
X25354D01*
X25295Y23169D02*
Y23287D01*
X29626Y21890D02*
X29744D01*
X29685Y21831D02*
Y21949D01*
X29665Y20906D02*
X29783D01*
X29724Y20846D02*
Y20965D01*
M02*
