G04*
G04 #@! TF.GenerationSoftware,Altium Limited,Altium Designer,25.7.1 (20)*
G04*
G04 Layer_Color=255*
%FSLAX24Y24*%
%MOIN*%
G70*
G04*
G04 #@! TF.SameCoordinates,6BD2BFD6-E8B5-49EE-896E-F5671A370314*
G04*
G04*
G04 #@! TF.FilePolarity,Positive*
G04*
G01*
G75*
%ADD18C,0.0512*%
G04:AMPARAMS|DCode=61|XSize=78.7mil|YSize=55.1mil|CornerRadius=13.8mil|HoleSize=0mil|Usage=FLASHONLY|Rotation=90.000|XOffset=0mil|YOffset=0mil|HoleType=Round|Shape=RoundedRectangle|*
%AMROUNDEDRECTD61*
21,1,0.0787,0.0276,0,0,90.0*
21,1,0.0512,0.0551,0,0,90.0*
1,1,0.0276,0.0138,0.0256*
1,1,0.0276,0.0138,-0.0256*
1,1,0.0276,-0.0138,-0.0256*
1,1,0.0276,-0.0138,0.0256*
%
%ADD61ROUNDEDRECTD61*%
%ADD62O,0.0551X0.0787*%
%ADD63O,0.0951X0.0591*%
%ADD64O,0.0591X0.0951*%
%ADD65C,0.0472*%
%ADD66O,0.1024X0.0512*%
%ADD67R,0.0511X0.0511*%
%ADD68R,0.0519X0.0519*%
%ADD69C,0.0433*%
%ADD70C,0.0768*%
%ADD71C,0.0591*%
%ADD72C,0.0445*%
%ADD73C,0.0709*%
%ADD74C,0.0626*%
%ADD75C,0.0620*%
%ADD76C,0.0480*%
%ADD77C,0.0515*%
%ADD78C,0.0600*%
%ADD79C,0.0594*%
%ADD80R,0.0768X0.0768*%
%ADD81C,0.0511*%
%ADD82R,0.0620X0.0620*%
%ADD83R,0.0594X0.0594*%
%ADD84C,0.0945*%
%ADD85R,0.0594X0.0594*%
%ADD86C,0.1181*%
%ADD87R,0.0515X0.0515*%
%ADD88R,0.0445X0.0445*%
%ADD89R,0.0433X0.0433*%
%ADD90R,0.0472X0.0472*%
%ADD91R,0.0626X0.0626*%
%ADD92R,0.0709X0.0709*%
%ADD93C,0.0554*%
%ADD94R,0.0791X0.0791*%
%ADD95C,0.0791*%
%ADD96R,0.0433X0.0433*%
%ADD97R,0.0709X0.0709*%
%ADD98O,0.2598X0.0945*%
%ADD99C,0.1575*%
%ADD100C,0.0519*%
%ADD101C,0.1260*%
D18*
X53425Y22677D02*
D03*
X52441D02*
D03*
X53425Y18740D02*
D03*
X52441D02*
D03*
X50472Y20709D02*
D03*
D61*
X16614Y31693D02*
D03*
D62*
X17283D02*
D03*
X17953D02*
D03*
X18622D02*
D03*
X19291D02*
D03*
D63*
X50472Y18740D02*
D03*
Y19724D02*
D03*
Y22677D02*
D03*
Y21693D02*
D03*
D64*
X52441Y20709D02*
D03*
D65*
X51352Y28976D02*
D03*
Y24646D02*
D03*
X52822Y28976D02*
D03*
Y24646D02*
D03*
X54291Y28976D02*
D03*
Y24646D02*
D03*
X49882Y28976D02*
D03*
Y24646D02*
D03*
X11299Y15276D02*
D03*
X21732Y30709D02*
D03*
X36693Y31575D02*
D03*
X48740Y31535D02*
D03*
Y35866D02*
D03*
X39606Y35906D02*
D03*
Y31575D02*
D03*
X38176D02*
D03*
Y35906D02*
D03*
X35276D02*
D03*
Y31575D02*
D03*
X36693Y35906D02*
D03*
X19646Y24055D02*
D03*
X23976D02*
D03*
X5079Y12638D02*
D03*
X9409D02*
D03*
X9449Y14016D02*
D03*
X5118D02*
D03*
X15630Y15276D02*
D03*
X11299Y16831D02*
D03*
X15630D02*
D03*
X11299Y18386D02*
D03*
X15630D02*
D03*
X46575Y33465D02*
D03*
X11299Y19961D02*
D03*
X15630D02*
D03*
D66*
X30748Y3740D02*
D03*
Y7441D02*
D03*
Y5591D02*
D03*
D67*
X11614Y12150D02*
D03*
D68*
X14382Y21496D02*
D03*
X12098D02*
D03*
X9775D02*
D03*
X19888Y21811D02*
D03*
X23860Y19567D02*
D03*
Y21811D02*
D03*
X19888Y19567D02*
D03*
X21874Y21811D02*
D03*
Y19567D02*
D03*
D69*
X17008Y20984D02*
D03*
X42375Y33702D02*
D03*
X19961Y12697D02*
D03*
X22874D02*
D03*
X5984Y23543D02*
D03*
Y20748D02*
D03*
X16654Y28051D02*
D03*
X53268Y30906D02*
D03*
X50945D02*
D03*
X5826Y26097D02*
D03*
D70*
X45295Y3325D02*
D03*
Y8246D02*
D03*
Y10689D02*
D03*
Y15610D02*
D03*
X52047Y3325D02*
D03*
Y8246D02*
D03*
X38543Y10689D02*
D03*
Y15610D02*
D03*
X52047Y10689D02*
D03*
Y15610D02*
D03*
X38543Y3325D02*
D03*
Y8246D02*
D03*
X36575D02*
D03*
X50079Y15610D02*
D03*
X43327Y8246D02*
D03*
Y15610D02*
D03*
X50079Y8246D02*
D03*
X36575Y15610D02*
D03*
D71*
X23138Y26378D02*
D03*
X22138D02*
D03*
D72*
X24366Y14972D02*
D03*
X23366D02*
D03*
X8311Y15484D02*
D03*
X6311D02*
D03*
X7311D02*
D03*
X8311Y18610D02*
D03*
X6311D02*
D03*
X5311D02*
D03*
X7311D02*
D03*
X18366Y14972D02*
D03*
X19366D02*
D03*
X20366D02*
D03*
X21366D02*
D03*
X22366D02*
D03*
X24366Y18098D02*
D03*
X23366D02*
D03*
X22366D02*
D03*
X21366D02*
D03*
X20366D02*
D03*
X17366D02*
D03*
X18366D02*
D03*
X19366D02*
D03*
D73*
X1693Y21299D02*
D03*
X1732Y13189D02*
D03*
X33118Y30390D02*
D03*
X27118Y13390D02*
D03*
Y28390D02*
D03*
Y25390D02*
D03*
Y26390D02*
D03*
Y24390D02*
D03*
Y30390D02*
D03*
Y23390D02*
D03*
Y29390D02*
D03*
Y22390D02*
D03*
Y21390D02*
D03*
Y15390D02*
D03*
Y17390D02*
D03*
Y12390D02*
D03*
Y19390D02*
D03*
Y20390D02*
D03*
Y18390D02*
D03*
X33118Y28390D02*
D03*
Y26390D02*
D03*
Y25390D02*
D03*
Y29390D02*
D03*
Y27390D02*
D03*
Y13390D02*
D03*
Y19390D02*
D03*
Y18390D02*
D03*
Y17390D02*
D03*
Y16390D02*
D03*
Y14390D02*
D03*
Y15390D02*
D03*
Y12390D02*
D03*
Y23390D02*
D03*
Y20390D02*
D03*
X27118Y27390D02*
D03*
X33118Y22390D02*
D03*
Y24390D02*
D03*
Y21390D02*
D03*
X27118Y14390D02*
D03*
Y16390D02*
D03*
X1732Y15157D02*
D03*
X1693Y23268D02*
D03*
D74*
X19843Y25395D02*
D03*
D75*
X52677Y34646D02*
D03*
X5787Y31260D02*
D03*
Y28504D02*
D03*
D76*
X50394Y34421D02*
D03*
Y35421D02*
D03*
D77*
X19560Y3760D02*
D03*
X26660D02*
D03*
Y2760D02*
D03*
X19560D02*
D03*
X26660Y9760D02*
D03*
Y8760D02*
D03*
X19560D02*
D03*
X26660Y4760D02*
D03*
Y7760D02*
D03*
X19560D02*
D03*
Y4760D02*
D03*
X26660Y5760D02*
D03*
Y6760D02*
D03*
X19560Y5760D02*
D03*
Y6760D02*
D03*
D78*
X15228Y9903D02*
D03*
X17228Y3368D02*
D03*
X15228D02*
D03*
X17228Y9903D02*
D03*
X16228D02*
D03*
Y3368D02*
D03*
D79*
X41508Y30256D02*
D03*
X2795Y29449D02*
D03*
Y28465D02*
D03*
Y30433D02*
D03*
X42508Y30256D02*
D03*
X43508D02*
D03*
D80*
X36575Y3325D02*
D03*
X50079Y10689D02*
D03*
X43327Y3325D02*
D03*
Y10689D02*
D03*
X50079Y3325D02*
D03*
X36575Y10689D02*
D03*
D81*
X11614Y14150D02*
D03*
Y13150D02*
D03*
D82*
X6772Y28504D02*
D03*
Y31260D02*
D03*
X53661Y34646D02*
D03*
D83*
X2795Y31417D02*
D03*
D84*
X31161Y45118D02*
D03*
X2461Y37520D02*
D03*
X31161Y52717D02*
D03*
X2461Y45118D02*
D03*
X31161Y37520D02*
D03*
X2461Y52717D02*
D03*
D85*
X40508Y30256D02*
D03*
D86*
X48209Y29980D02*
D03*
X35807Y18287D02*
D03*
X48209D02*
D03*
X35807Y29980D02*
D03*
D87*
X19560Y9760D02*
D03*
D88*
X5311Y15484D02*
D03*
X17366Y14972D02*
D03*
D89*
X53268Y31693D02*
D03*
X50945D02*
D03*
X16654Y29035D02*
D03*
X19961Y11713D02*
D03*
X22874D02*
D03*
D90*
X23701Y30709D02*
D03*
X44606Y33465D02*
D03*
D91*
X19843Y29487D02*
D03*
D92*
X27118Y31390D02*
D03*
X33118D02*
D03*
D93*
X16260Y25236D02*
D03*
X18228D02*
D03*
D94*
X14433Y12913D02*
D03*
D95*
X15433D02*
D03*
X16433D02*
D03*
D96*
X6969Y20748D02*
D03*
Y23543D02*
D03*
X6613Y26097D02*
D03*
X17992Y20984D02*
D03*
X41391Y33702D02*
D03*
D97*
X1732Y17126D02*
D03*
X1693Y25236D02*
D03*
D98*
X12205Y31220D02*
D03*
Y28465D02*
D03*
D99*
X54094Y58032D02*
D03*
X1024D02*
D03*
Y1024D02*
D03*
X54094D02*
D03*
D100*
X20888Y19567D02*
D03*
X22874D02*
D03*
X20888Y21811D02*
D03*
X22874D02*
D03*
X24860Y19567D02*
D03*
Y21811D02*
D03*
X15382Y21496D02*
D03*
X13098D02*
D03*
X10775D02*
D03*
D101*
X27679Y45118D02*
D03*
Y37520D02*
D03*
Y52717D02*
D03*
X5785Y45118D02*
D03*
Y37520D02*
D03*
Y52717D02*
D03*
M02*
