M48
;Layer_Color=9474304
;FILE_FORMAT=2:4
INCH,LZ
;TYPE=PLATED
T01F00S00C0.0118
T02F00S00C0.0280
T03F00S00C0.0295
T04F00S00C0.0307
T05F00S00C0.0311
T06F00S00C0.0315
T07F00S00C0.0319
T08F00S00C0.0335
T09F00S00C0.0354
T10F00S00C0.0394
T12F00S00C0.0402
T13F00S00C0.0413
T14F00S00C0.0417
T15F00S00C0.0433
T16F00S00C0.0472
T18F00S00C0.0512
T19F00S00C0.0528
T20F00S00C0.0630
T21F00S00C0.0945
;TYPE=NON_PLATED
T22F00S00C0.0512
T23F00S00C0.1181
T24F00S00C0.1260
%
T01
X026339Y015354
X029134Y015394
X029213Y016417
X026339Y016024
X026024Y015709
X025295Y023228
X029488Y022402
X029685Y02189
X029724Y020906
T02
X050394Y034421
Y035421
T03
X019961Y011713
Y012697
X022874
Y011713
X050945Y030906
X053268
X016654Y029035
Y028051
X017008Y020984
X017992
X006969Y020748
X005984
Y023543
X006969
X006613Y026097
X005826
X041391Y033702
X042375
X050945Y031693
X053268
T04
X005311Y015484
X006311
X007311
X008311
X017366Y014972
X018366
X019366
X020366
X021366
X022366
X023366
X024366
Y018098
X023366
X022366
X021366
X020366
X019366
X018366
X017366
X008311Y01861
X007311
X006311
X005311
T05
X011614Y01215
Y01315
Y01415
T06
X005079Y012638
X005118Y014016
X009449
X009409Y012638
X011299Y015276
X01563
X01956Y00976
Y00876
Y00776
Y00676
Y00576
Y00476
Y00376
Y00276
X02666
Y00376
Y00476
Y00576
Y00676
Y00776
Y00876
Y00976
X051352Y024646
X052822
X054291
Y028976
X052822
X051352
X049882
Y024646
X023976Y024055
X019646
X01563Y019961
X01563Y018386
Y016831
X011299
Y018386
X011299Y019961
X035276Y031575
X036693
X038176
X039606
Y035906
X038176
X036693
X035276
X04874Y035866
Y031535
T07
X019888Y019567
X020888
X021874
X022874
X02386
X02486
Y021811
X02386
X022874
X021874
X020888
X019888
X015382Y021496
X014382
X013098
X012098
X010775
X009775
T08
X021732Y030709
X023701
X044606Y033465
X046575
T09
X01626Y025236
X018228
T10
X015228Y003368
X016228
X017228
Y009903
X016228
X015228
X027118Y01239
Y01339
Y01439
Y01539
X033118
Y01439
Y01339
Y01239
X040508Y030256
X041508
X042508
X043508
X033118Y03039
Y02939
Y02839
Y02739
Y02639
Y02539
Y02439
Y02339
Y02239
Y02139
Y02039
Y01939
Y01839
Y01739
Y01639
X027118
Y01739
Y01839
Y01939
Y02039
Y02139
Y02239
Y02339
Y02439
Y02539
Y02639
Y02739
Y02839
Y02939
Y03039
X002795Y030433
Y029449
Y028465
Y031417
X027118Y03139
X033118
T12
X022138Y026378
X023138
T13
X005787Y028504
X006772
Y03126
X005787
X052677Y034646
X053661
T14
X019843Y025395
Y029487
T15
X016614Y031693
X017283
X017953
X018622
X019291
T16
X001732Y013189
Y015157
X050472Y01874
Y019724
Y021693
Y022677
X001693Y023268
Y021299
Y025236
X001732Y017126
T18
X036575Y003325
X038543
X043327
X045295
X050079
Y008246
Y010689
X045295
X043327
Y008246
X045295
X038543
X036575
Y010689
X038543
Y01561
X036575
X043327
X045295
X050079
X052047
Y010689
Y008246
Y003325
X052441Y020709
T19
X014433Y012913
X015433
X016433
T20
X002461Y03752
Y045118
X031161
Y03752
Y052717
X002461
T21
X001024Y001024
X054094
Y058032
X001024
T22
X052441Y01874
X053425
Y022677
X052441
X050472Y020709
T23
X035807Y018287
Y02998
X048209
Y018287
T24
X005785Y03752
Y045118
X027679
Y03752
Y052717
X005785
M30
