G04*
G04 #@! TF.GenerationSoftware,Altium Limited,Altium Designer,25.7.1 (20)*
G04*
G04 Layer_Color=16711935*
%FSLAX24Y24*%
%MOIN*%
G70*
G04*
G04 #@! TF.SameCoordinates,6BD2BFD6-E8B5-49EE-896E-F5671A370314*
G04*
G04*
G04 #@! TF.FilePolarity,Negative*
G04*
G01*
G75*
G04:AMPARAMS|DCode=16|XSize=86.7mil|YSize=63.1mil|CornerRadius=17.8mil|HoleSize=0mil|Usage=FLASHONLY|Rotation=90.000|XOffset=0mil|YOffset=0mil|HoleType=Round|Shape=RoundedRectangle|*
%AMROUNDEDRECTD16*
21,1,0.0867,0.0276,0,0,90.0*
21,1,0.0512,0.0631,0,0,90.0*
1,1,0.0356,0.0138,0.0256*
1,1,0.0356,0.0138,-0.0256*
1,1,0.0356,-0.0138,-0.0256*
1,1,0.0356,-0.0138,0.0256*
%
%ADD16ROUNDEDRECTD16*%
%ADD17O,0.0631X0.0867*%
%ADD18C,0.0512*%
%ADD19O,0.1032X0.0671*%
%ADD20O,0.0671X0.1032*%
%ADD21C,0.0552*%
%ADD22O,0.1104X0.0592*%
%ADD23R,0.0591X0.0591*%
%ADD24R,0.0599X0.0599*%
%ADD25C,0.0513*%
%ADD26C,0.0848*%
%ADD27C,0.0671*%
%ADD28C,0.0525*%
%ADD29C,0.0789*%
%ADD30C,0.0789*%
%ADD31C,0.0706*%
%ADD32C,0.0700*%
%ADD33C,0.0560*%
%ADD34C,0.0595*%
%ADD35C,0.0680*%
%ADD36C,0.0674*%
%ADD37R,0.0848X0.0848*%
%ADD38C,0.0591*%
%ADD39R,0.0700X0.0700*%
%ADD40R,0.0674X0.0674*%
%ADD41C,0.1025*%
%ADD42R,0.0674X0.0674*%
%ADD43C,0.1261*%
%ADD44R,0.0595X0.0595*%
%ADD45R,0.0525X0.0525*%
%ADD46R,0.0513X0.0513*%
%ADD47R,0.0552X0.0552*%
%ADD48R,0.0706X0.0706*%
%ADD49R,0.0789X0.0789*%
%ADD50C,0.0634*%
%ADD51R,0.0871X0.0871*%
%ADD52C,0.0871*%
%ADD53R,0.0513X0.0513*%
%ADD54R,0.0789X0.0789*%
%ADD55O,0.2678X0.1025*%
%ADD56C,0.1655*%
%ADD57C,0.0599*%
%ADD58C,0.1340*%
%ADD59C,0.0316*%
D16*
X16614Y31693D02*
D03*
D17*
X17283D02*
D03*
X17953D02*
D03*
X18622D02*
D03*
X19291D02*
D03*
D18*
X53425Y22677D02*
D03*
X52441D02*
D03*
X53425Y18740D02*
D03*
X52441D02*
D03*
X50472Y20709D02*
D03*
D19*
Y18740D02*
D03*
Y19724D02*
D03*
Y22677D02*
D03*
Y21693D02*
D03*
D20*
X52441Y20709D02*
D03*
D21*
X51352Y28976D02*
D03*
Y24646D02*
D03*
X52822Y28976D02*
D03*
Y24646D02*
D03*
X54291Y28976D02*
D03*
Y24646D02*
D03*
X49882Y28976D02*
D03*
Y24646D02*
D03*
X11299Y15276D02*
D03*
X21732Y30709D02*
D03*
X36693Y31575D02*
D03*
X48740Y31535D02*
D03*
Y35866D02*
D03*
X39606Y35906D02*
D03*
Y31575D02*
D03*
X38176D02*
D03*
Y35906D02*
D03*
X35276D02*
D03*
Y31575D02*
D03*
X36693Y35906D02*
D03*
X19646Y24055D02*
D03*
X23976D02*
D03*
X5079Y12638D02*
D03*
X9409D02*
D03*
X9449Y14016D02*
D03*
X5118D02*
D03*
X15630Y15276D02*
D03*
X11299Y16831D02*
D03*
X15630D02*
D03*
X11299Y18386D02*
D03*
X15630D02*
D03*
X46575Y33465D02*
D03*
X11299Y19961D02*
D03*
X15630D02*
D03*
D22*
X30748Y3740D02*
D03*
Y7441D02*
D03*
Y5591D02*
D03*
D23*
X11614Y12150D02*
D03*
D24*
X14382Y21496D02*
D03*
X12098D02*
D03*
X9775D02*
D03*
X19888Y21811D02*
D03*
X23860Y19567D02*
D03*
Y21811D02*
D03*
X19888Y19567D02*
D03*
X21874Y21811D02*
D03*
Y19567D02*
D03*
D25*
X17008Y20984D02*
D03*
X42375Y33702D02*
D03*
X19961Y12697D02*
D03*
X22874D02*
D03*
X5984Y23543D02*
D03*
Y20748D02*
D03*
X16654Y28051D02*
D03*
X53268Y30906D02*
D03*
X50945D02*
D03*
X5826Y26097D02*
D03*
D26*
X45295Y3325D02*
D03*
Y8246D02*
D03*
Y10689D02*
D03*
Y15610D02*
D03*
X52047Y3325D02*
D03*
Y8246D02*
D03*
X38543Y10689D02*
D03*
Y15610D02*
D03*
X52047Y10689D02*
D03*
Y15610D02*
D03*
X38543Y3325D02*
D03*
Y8246D02*
D03*
X36575D02*
D03*
X50079Y15610D02*
D03*
X43327Y8246D02*
D03*
Y15610D02*
D03*
X50079Y8246D02*
D03*
X36575Y15610D02*
D03*
D27*
X23138Y26378D02*
D03*
X22138D02*
D03*
D28*
X24366Y14972D02*
D03*
X23366D02*
D03*
X8311Y15484D02*
D03*
X6311D02*
D03*
X7311D02*
D03*
X8311Y18610D02*
D03*
X6311D02*
D03*
X5311D02*
D03*
X7311D02*
D03*
X18366Y14972D02*
D03*
X19366D02*
D03*
X20366D02*
D03*
X21366D02*
D03*
X22366D02*
D03*
X24366Y18098D02*
D03*
X23366D02*
D03*
X22366D02*
D03*
X21366D02*
D03*
X20366D02*
D03*
X17366D02*
D03*
X18366D02*
D03*
X19366D02*
D03*
D29*
X1693Y21299D02*
D03*
X1732Y13189D02*
D03*
Y15157D02*
D03*
X1693Y23268D02*
D03*
D30*
X33118Y30390D02*
D03*
X27118Y13390D02*
D03*
Y28390D02*
D03*
Y25390D02*
D03*
Y26390D02*
D03*
Y24390D02*
D03*
Y30390D02*
D03*
Y23390D02*
D03*
Y29390D02*
D03*
Y22390D02*
D03*
Y21390D02*
D03*
Y15390D02*
D03*
Y17390D02*
D03*
Y12390D02*
D03*
Y19390D02*
D03*
Y20390D02*
D03*
Y18390D02*
D03*
X33118Y28390D02*
D03*
Y26390D02*
D03*
Y25390D02*
D03*
Y29390D02*
D03*
Y27390D02*
D03*
Y13390D02*
D03*
Y19390D02*
D03*
Y18390D02*
D03*
Y17390D02*
D03*
Y16390D02*
D03*
Y14390D02*
D03*
Y15390D02*
D03*
Y12390D02*
D03*
Y23390D02*
D03*
Y20390D02*
D03*
X27118Y27390D02*
D03*
X33118Y22390D02*
D03*
Y24390D02*
D03*
Y21390D02*
D03*
X27118Y14390D02*
D03*
Y16390D02*
D03*
D31*
X19843Y25395D02*
D03*
D32*
X52677Y34646D02*
D03*
X5787Y31260D02*
D03*
Y28504D02*
D03*
D33*
X50394Y34421D02*
D03*
Y35421D02*
D03*
D34*
X19560Y3760D02*
D03*
X26660D02*
D03*
Y2760D02*
D03*
X19560D02*
D03*
X26660Y9760D02*
D03*
Y8760D02*
D03*
X19560D02*
D03*
X26660Y4760D02*
D03*
Y7760D02*
D03*
X19560D02*
D03*
Y4760D02*
D03*
X26660Y5760D02*
D03*
Y6760D02*
D03*
X19560Y5760D02*
D03*
Y6760D02*
D03*
D35*
X15228Y9903D02*
D03*
X17228Y3368D02*
D03*
X15228D02*
D03*
X17228Y9903D02*
D03*
X16228D02*
D03*
Y3368D02*
D03*
D36*
X41508Y30256D02*
D03*
X2795Y29449D02*
D03*
Y28465D02*
D03*
Y30433D02*
D03*
X42508Y30256D02*
D03*
X43508D02*
D03*
D37*
X36575Y3325D02*
D03*
X50079Y10689D02*
D03*
X43327Y3325D02*
D03*
Y10689D02*
D03*
X50079Y3325D02*
D03*
X36575Y10689D02*
D03*
D38*
X11614Y14150D02*
D03*
Y13150D02*
D03*
D39*
X6772Y28504D02*
D03*
Y31260D02*
D03*
X53661Y34646D02*
D03*
D40*
X2795Y31417D02*
D03*
D41*
X31161Y45118D02*
D03*
X2461Y37520D02*
D03*
X31161Y52717D02*
D03*
X2461Y45118D02*
D03*
X31161Y37520D02*
D03*
X2461Y52717D02*
D03*
D42*
X40508Y30256D02*
D03*
D43*
X48209Y29980D02*
D03*
X35807Y18287D02*
D03*
X48209D02*
D03*
X35807Y29980D02*
D03*
D44*
X19560Y9760D02*
D03*
D45*
X5311Y15484D02*
D03*
X17366Y14972D02*
D03*
D46*
X53268Y31693D02*
D03*
X50945D02*
D03*
X16654Y29035D02*
D03*
X19961Y11713D02*
D03*
X22874D02*
D03*
D47*
X23701Y30709D02*
D03*
X44606Y33465D02*
D03*
D48*
X19843Y29487D02*
D03*
D49*
X27118Y31390D02*
D03*
X33118D02*
D03*
D50*
X16260Y25236D02*
D03*
X18228D02*
D03*
D51*
X14433Y12913D02*
D03*
D52*
X15433D02*
D03*
X16433D02*
D03*
D53*
X6969Y20748D02*
D03*
Y23543D02*
D03*
X6613Y26097D02*
D03*
X17992Y20984D02*
D03*
X41391Y33702D02*
D03*
D54*
X1732Y17126D02*
D03*
X1693Y25236D02*
D03*
D55*
X12205Y31220D02*
D03*
Y28465D02*
D03*
D56*
X54094Y58032D02*
D03*
X1024D02*
D03*
Y1024D02*
D03*
X54094D02*
D03*
D57*
X20888Y19567D02*
D03*
X22874D02*
D03*
X20888Y21811D02*
D03*
X22874D02*
D03*
X24860Y19567D02*
D03*
Y21811D02*
D03*
X15382Y21496D02*
D03*
X13098D02*
D03*
X10775D02*
D03*
D58*
X27679Y45118D02*
D03*
Y37520D02*
D03*
Y52717D02*
D03*
X5785Y45118D02*
D03*
Y37520D02*
D03*
Y52717D02*
D03*
D59*
X29213Y16417D02*
D03*
X29134Y15394D02*
D03*
X29488Y22402D02*
D03*
X26339Y15354D02*
D03*
Y16024D02*
D03*
X26024Y15709D02*
D03*
X25295Y23228D02*
D03*
X29685Y21890D02*
D03*
X29724Y20906D02*
D03*
M02*
