G04*
G04 #@! TF.GenerationSoftware,Altium Limited,Altium Designer,25.7.1 (20)*
G04*
G04 Layer_Physical_Order=1*
G04 Layer_Color=255*
%FSLAX24Y24*%
%MOIN*%
G70*
G04*
G04 #@! TF.SameCoordinates,6BD2BFD6-E8B5-49EE-896E-F5671A370314*
G04*
G04*
G04 #@! TF.FilePolarity,Positive*
G04*
G01*
G75*
%ADD18C,0.0512*%
%ADD60C,0.0098*%
G04:AMPARAMS|DCode=61|XSize=78.7mil|YSize=55.1mil|CornerRadius=13.8mil|HoleSize=0mil|Usage=FLASHONLY|Rotation=90.000|XOffset=0mil|YOffset=0mil|HoleType=Round|Shape=RoundedRectangle|*
%AMROUNDEDRECTD61*
21,1,0.0787,0.0276,0,0,90.0*
21,1,0.0512,0.0551,0,0,90.0*
1,1,0.0276,0.0138,0.0256*
1,1,0.0276,0.0138,-0.0256*
1,1,0.0276,-0.0138,-0.0256*
1,1,0.0276,-0.0138,0.0256*
%
%ADD61ROUNDEDRECTD61*%
%ADD62O,0.0551X0.0787*%
%ADD63O,0.0951X0.0591*%
%ADD64O,0.0591X0.0951*%
%ADD65C,0.0472*%
%ADD66O,0.1024X0.0512*%
%ADD67R,0.0511X0.0511*%
%ADD68R,0.0519X0.0519*%
%ADD69C,0.0433*%
%ADD70C,0.0768*%
%ADD71C,0.0591*%
%ADD72C,0.0445*%
%ADD73C,0.0709*%
%ADD74C,0.0626*%
%ADD75C,0.0620*%
%ADD76C,0.0480*%
%ADD77C,0.0515*%
%ADD78C,0.0600*%
%ADD79C,0.0594*%
%ADD80R,0.0768X0.0768*%
%ADD81C,0.0511*%
%ADD82R,0.0620X0.0620*%
%ADD83R,0.0594X0.0594*%
%ADD84C,0.0945*%
%ADD85R,0.0594X0.0594*%
%ADD86C,0.1181*%
%ADD87R,0.0515X0.0515*%
%ADD88R,0.0445X0.0445*%
%ADD89R,0.0433X0.0433*%
%ADD90R,0.0472X0.0472*%
%ADD91R,0.0626X0.0626*%
%ADD92R,0.0709X0.0709*%
%ADD93C,0.0554*%
%ADD94R,0.0791X0.0791*%
%ADD95C,0.0791*%
%ADD96R,0.0433X0.0433*%
%ADD97R,0.0709X0.0709*%
%ADD98O,0.2598X0.0945*%
%ADD99C,0.1575*%
%ADD100C,0.0519*%
%ADD101C,0.1260*%
%ADD102C,0.0236*%
G36*
X55118D02*
X0D01*
Y59055D01*
X55118D01*
Y0D01*
D02*
G37*
%LPC*%
G36*
X54178Y58878D02*
X54011D01*
X53848Y58845D01*
X53694Y58782D01*
X53555Y58689D01*
X53437Y58571D01*
X53344Y58432D01*
X53281Y58278D01*
X53248Y58115D01*
Y57948D01*
X53281Y57785D01*
X53344Y57631D01*
X53437Y57492D01*
X53555Y57374D01*
X53694Y57281D01*
X53848Y57218D01*
X54011Y57185D01*
X54178D01*
X54341Y57218D01*
X54495Y57281D01*
X54634Y57374D01*
X54752Y57492D01*
X54845Y57631D01*
X54908Y57785D01*
X54941Y57948D01*
Y58115D01*
X54908Y58278D01*
X54845Y58432D01*
X54752Y58571D01*
X54634Y58689D01*
X54495Y58782D01*
X54341Y58845D01*
X54178Y58878D01*
D02*
G37*
G36*
X1107D02*
X940D01*
X777Y58845D01*
X623Y58782D01*
X484Y58689D01*
X366Y58571D01*
X273Y58432D01*
X210Y58278D01*
X177Y58115D01*
Y57948D01*
X210Y57785D01*
X273Y57631D01*
X366Y57492D01*
X484Y57374D01*
X623Y57281D01*
X777Y57218D01*
X940Y57185D01*
X1107D01*
X1271Y57218D01*
X1425Y57281D01*
X1563Y57374D01*
X1681Y57492D01*
X1774Y57631D01*
X1838Y57785D01*
X1870Y57948D01*
Y58115D01*
X1838Y58278D01*
X1774Y58432D01*
X1681Y58571D01*
X1563Y58689D01*
X1425Y58782D01*
X1271Y58845D01*
X1107Y58878D01*
D02*
G37*
G36*
X5853Y53406D02*
X5718D01*
X5584Y53379D01*
X5459Y53327D01*
X5346Y53252D01*
X5250Y53156D01*
X5175Y53043D01*
X5123Y52917D01*
X5096Y52784D01*
Y52649D01*
X5123Y52516D01*
X5175Y52390D01*
X5250Y52277D01*
X5346Y52181D01*
X5459Y52106D01*
X5584Y52054D01*
X5718Y52028D01*
X5853D01*
X5986Y52054D01*
X6112Y52106D01*
X6225Y52181D01*
X6321Y52277D01*
X6396Y52390D01*
X6448Y52516D01*
X6474Y52649D01*
Y52784D01*
X6448Y52917D01*
X6396Y53043D01*
X6321Y53156D01*
X6225Y53252D01*
X6112Y53327D01*
X5986Y53379D01*
X5853Y53406D01*
D02*
G37*
G36*
X32003Y54788D02*
X18976Y54788D01*
X18931Y54770D01*
X11588Y47426D01*
X1422D01*
X1417Y47426D01*
X1324Y47488D01*
Y51353D01*
X3898D01*
X3943Y51372D01*
X3962Y51417D01*
Y54724D01*
X3943Y54770D01*
X3898Y54788D01*
X197D01*
X152Y54770D01*
X133Y54724D01*
Y27559D01*
X152Y27514D01*
X197Y27495D01*
X4134D01*
X4179Y27514D01*
X4198Y27559D01*
Y28937D01*
X4179Y28982D01*
X4134Y29001D01*
X2879D01*
X2866Y29099D01*
X2933Y29117D01*
X3014Y29164D01*
X3080Y29230D01*
X3127Y29311D01*
X3151Y29402D01*
Y29496D01*
X3127Y29586D01*
X3080Y29667D01*
X3014Y29734D01*
X2933Y29780D01*
X2842Y29805D01*
X2748D01*
X2658Y29780D01*
X2577Y29734D01*
X2510Y29667D01*
X2464Y29586D01*
X2439Y29496D01*
Y29402D01*
X2464Y29311D01*
X2510Y29230D01*
X2577Y29164D01*
X2658Y29117D01*
X2724Y29099D01*
X2711Y29001D01*
X1324D01*
Y30977D01*
X1422Y31013D01*
X1457Y30999D01*
X4126Y30999D01*
X4134Y30999D01*
X4134Y30999D01*
X4179Y31018D01*
X4198Y31063D01*
X4198Y31063D01*
X4198Y31071D01*
Y33007D01*
X15157D01*
X15203Y33026D01*
X17625Y35448D01*
X32008D01*
X32008Y35448D01*
X32008Y35448D01*
X32030Y35457D01*
X32053Y35467D01*
X32053Y35467D01*
X32053Y35467D01*
X32122Y35537D01*
X32122Y35537D01*
X32123Y35537D01*
X32132Y35560D01*
X32141Y35582D01*
X32141Y35582D01*
X32141Y35582D01*
X32106Y39646D01*
X32097Y39669D01*
X32087Y39691D01*
X32087Y39691D01*
X32087Y39691D01*
X32065Y39700D01*
X32042Y39710D01*
X19016Y39710D01*
X18971Y39691D01*
X14068Y34788D01*
X1457D01*
X1422Y34774D01*
X1324Y34810D01*
Y35386D01*
X1422Y35423D01*
X1457Y35409D01*
X13937D01*
X13982Y35427D01*
X21483Y42928D01*
X32008D01*
X32008Y42928D01*
X32008Y42928D01*
X32030Y42938D01*
X32053Y42947D01*
X32053Y42947D01*
X32053Y42947D01*
X32122Y43017D01*
X32122Y43017D01*
X32123Y43017D01*
X32132Y43040D01*
X32141Y43062D01*
X32141Y43062D01*
X32141Y43063D01*
X32106Y47127D01*
X32097Y47149D01*
X32087Y47171D01*
X32087Y47171D01*
X32087Y47172D01*
X32065Y47181D01*
X32042Y47190D01*
X19016Y47190D01*
X18971Y47171D01*
X11627Y39828D01*
X1457D01*
X1422Y39813D01*
X1324Y39850D01*
Y42945D01*
X1417Y43007D01*
X1422Y43007D01*
X13898D01*
X13943Y43026D01*
X21444Y50527D01*
X31968D01*
X31968Y50527D01*
X31969Y50527D01*
X31991Y50536D01*
X32013Y50545D01*
X32014Y50545D01*
X32014Y50546D01*
X32083Y50615D01*
X32083Y50616D01*
X32083Y50616D01*
X32092Y50638D01*
X32101Y50661D01*
X32101Y50661D01*
X32101Y50661D01*
X32067Y54725D01*
X32057Y54747D01*
X32048Y54770D01*
X32048Y54770D01*
X32048Y54770D01*
X32025Y54779D01*
X32003Y54788D01*
D02*
G37*
G36*
X39645Y36201D02*
X39567D01*
X39492Y36181D01*
X39425Y36142D01*
X39370Y36087D01*
X39331Y36019D01*
X39311Y35944D01*
Y35867D01*
X39331Y35792D01*
X39370Y35724D01*
X39425Y35669D01*
X39492Y35630D01*
X39567Y35610D01*
X39645D01*
X39720Y35630D01*
X39788Y35669D01*
X39843Y35724D01*
X39881Y35792D01*
X39902Y35867D01*
Y35944D01*
X39881Y36019D01*
X39843Y36087D01*
X39788Y36142D01*
X39720Y36181D01*
X39645Y36201D01*
D02*
G37*
G36*
X38215D02*
X38137D01*
X38062Y36181D01*
X37995Y36142D01*
X37940Y36087D01*
X37901Y36019D01*
X37881Y35944D01*
Y35867D01*
X37901Y35792D01*
X37940Y35724D01*
X37995Y35669D01*
X38062Y35630D01*
X38137Y35610D01*
X38215D01*
X38290Y35630D01*
X38357Y35669D01*
X38412Y35724D01*
X38451Y35792D01*
X38471Y35867D01*
Y35944D01*
X38451Y36019D01*
X38412Y36087D01*
X38357Y36142D01*
X38290Y36181D01*
X38215Y36201D01*
D02*
G37*
G36*
X35314D02*
X35237D01*
X35162Y36181D01*
X35094Y36142D01*
X35039Y36087D01*
X35000Y36019D01*
X34980Y35944D01*
Y35867D01*
X35000Y35792D01*
X35039Y35724D01*
X35094Y35669D01*
X35162Y35630D01*
X35237Y35610D01*
X35314D01*
X35390Y35630D01*
X35457Y35669D01*
X35512Y35724D01*
X35551Y35792D01*
X35571Y35867D01*
Y35944D01*
X35551Y36019D01*
X35512Y36087D01*
X35457Y36142D01*
X35390Y36181D01*
X35314Y36201D01*
D02*
G37*
G36*
X48779Y36161D02*
X48701D01*
X48626Y36141D01*
X48559Y36102D01*
X48504Y36047D01*
X48465Y35980D01*
X48464Y35977D01*
X47008D01*
X46966Y35968D01*
X46930Y35944D01*
X44745Y33760D01*
X44311D01*
Y33169D01*
X44902D01*
Y33604D01*
X47054Y35756D01*
X48464D01*
X48465Y35752D01*
X48504Y35685D01*
X48559Y35630D01*
X48626Y35591D01*
X48701Y35571D01*
X48779D01*
X48854Y35591D01*
X48921Y35630D01*
X48976Y35685D01*
X49015Y35752D01*
X49035Y35827D01*
Y35905D01*
X49015Y35980D01*
X48976Y36047D01*
X48921Y36102D01*
X48854Y36141D01*
X48779Y36161D01*
D02*
G37*
G36*
X50433Y35720D02*
X50354D01*
X50278Y35700D01*
X50210Y35660D01*
X50155Y35605D01*
X50115Y35537D01*
X50095Y35461D01*
Y35382D01*
X50115Y35306D01*
X50118Y35301D01*
X48662Y33846D01*
X48638Y33810D01*
X48630Y33768D01*
Y31812D01*
X48626Y31811D01*
X48559Y31772D01*
X48504Y31717D01*
X48465Y31649D01*
X48445Y31574D01*
Y31497D01*
X48465Y31421D01*
X48504Y31354D01*
X48559Y31299D01*
X48626Y31260D01*
X48701Y31240D01*
X48779D01*
X48854Y31260D01*
X48921Y31299D01*
X48976Y31354D01*
X49015Y31421D01*
X49035Y31497D01*
Y31574D01*
X49015Y31649D01*
X48976Y31717D01*
X48921Y31772D01*
X48854Y31811D01*
X48851Y31812D01*
Y33722D01*
X50274Y35145D01*
X50278Y35143D01*
X50354Y35122D01*
X50433D01*
X50509Y35143D01*
X50577Y35182D01*
X50633Y35238D01*
X50672Y35306D01*
X50693Y35382D01*
Y35461D01*
X50672Y35537D01*
X50633Y35605D01*
X50577Y35660D01*
X50509Y35700D01*
X50433Y35720D01*
D02*
G37*
G36*
X52047Y36370D02*
X50197D01*
X50155Y36362D01*
X50119Y36338D01*
X47356Y33575D01*
X46851D01*
X46850Y33579D01*
X46811Y33646D01*
X46756Y33701D01*
X46689Y33740D01*
X46614Y33760D01*
X46536D01*
X46461Y33740D01*
X46393Y33701D01*
X46339Y33646D01*
X46300Y33579D01*
X46280Y33503D01*
Y33426D01*
X46300Y33351D01*
X46339Y33283D01*
X46393Y33228D01*
X46461Y33189D01*
X46536Y33169D01*
X46614D01*
X46689Y33189D01*
X46756Y33228D01*
X46811Y33283D01*
X46850Y33351D01*
X46851Y33354D01*
X47402D01*
X47444Y33363D01*
X47480Y33387D01*
X50243Y36149D01*
X52002D01*
X53292Y34859D01*
Y34277D01*
X54031D01*
Y35015D01*
X53448D01*
X52125Y36338D01*
X52089Y36362D01*
X52047Y36370D01*
D02*
G37*
G36*
X41666Y33978D02*
X41115D01*
Y33427D01*
X41666D01*
Y33978D01*
D02*
G37*
G36*
X53543Y31969D02*
X52992D01*
Y31417D01*
X53543D01*
Y31969D01*
D02*
G37*
G36*
X51220D02*
X50669D01*
Y31417D01*
X51220D01*
Y31969D01*
D02*
G37*
G36*
X36732Y36201D02*
X36654D01*
X36579Y36181D01*
X36512Y36142D01*
X36457Y36087D01*
X36418Y36019D01*
X36398Y35944D01*
Y35867D01*
X36418Y35792D01*
X36457Y35724D01*
X36512Y35669D01*
X36579Y35630D01*
X36583Y35629D01*
Y34337D01*
X35198Y32952D01*
X35174Y32916D01*
X35165Y32874D01*
Y31851D01*
X35162Y31850D01*
X35094Y31811D01*
X35039Y31756D01*
X35000Y31689D01*
X34980Y31614D01*
Y31536D01*
X34995Y31481D01*
X33977Y30463D01*
X33953Y30427D01*
X33945Y30385D01*
Y25373D01*
X33322Y24750D01*
X33278Y24775D01*
X33173Y24803D01*
X33064D01*
X32959Y24775D01*
X32864Y24721D01*
X32787Y24644D01*
X32733Y24549D01*
X32705Y24444D01*
Y24335D01*
X32733Y24230D01*
X32787Y24136D01*
X32864Y24059D01*
X32959Y24005D01*
X33064Y23976D01*
X33173D01*
X33278Y24005D01*
X33372Y24059D01*
X33449Y24136D01*
X33503Y24230D01*
X33531Y24335D01*
Y24444D01*
X33503Y24549D01*
X33478Y24593D01*
X34133Y25249D01*
X34157Y25285D01*
X34166Y25327D01*
Y30339D01*
X35139Y31313D01*
X35162Y31300D01*
X35237Y31280D01*
X35314D01*
X35390Y31300D01*
X35457Y31339D01*
X35512Y31393D01*
X35551Y31461D01*
X35571Y31536D01*
Y31614D01*
X35551Y31689D01*
X35512Y31756D01*
X35457Y31811D01*
X35390Y31850D01*
X35386Y31851D01*
Y32828D01*
X36771Y34213D01*
X36795Y34249D01*
X36803Y34291D01*
Y35629D01*
X36807Y35630D01*
X36874Y35669D01*
X36929Y35724D01*
X36968Y35792D01*
X36988Y35867D01*
Y35944D01*
X36968Y36019D01*
X36929Y36087D01*
X36874Y36142D01*
X36807Y36181D01*
X36732Y36201D01*
D02*
G37*
G36*
X27531Y31803D02*
X26705D01*
Y30976D01*
X27531D01*
Y31803D01*
D02*
G37*
G36*
X16890Y32938D02*
X15827D01*
X15782Y32919D01*
X15763Y32874D01*
Y30340D01*
X10669D01*
X10624Y30321D01*
X10605Y30276D01*
Y27480D01*
Y26245D01*
X9055D01*
X9037Y26237D01*
X9017Y26232D01*
X7639Y25209D01*
X7637Y25205D01*
X7632Y25203D01*
X7624Y25184D01*
X7614Y25167D01*
X7615Y25162D01*
X7613Y25157D01*
Y22598D01*
Y22389D01*
X6569Y21344D01*
X6550Y21299D01*
Y21181D01*
Y18982D01*
X6452Y18929D01*
X6421Y18948D01*
Y22840D01*
X6849Y23268D01*
X7244D01*
Y23819D01*
X6693D01*
Y23424D01*
X6233Y22964D01*
X6209Y22928D01*
X6201Y22886D01*
Y18872D01*
X6138Y18835D01*
X6086Y18783D01*
X6049Y18719D01*
X6030Y18647D01*
Y18573D01*
X6049Y18502D01*
X6086Y18437D01*
X6138Y18385D01*
X6202Y18348D01*
X6274Y18329D01*
X6348D01*
X6420Y18348D01*
X6484Y18385D01*
X6536Y18437D01*
X6573Y18502D01*
X6584Y18541D01*
X6664Y18573D01*
X6691Y18573D01*
X7120Y18144D01*
X7165Y18125D01*
X7717D01*
X7762Y18144D01*
X7780Y18189D01*
Y21117D01*
X8268D01*
X8313Y21136D01*
X8903Y21726D01*
X8922Y21772D01*
Y24267D01*
X13740D01*
X13785Y24286D01*
X14337Y24837D01*
X14355Y24882D01*
Y27480D01*
Y28479D01*
X17677D01*
X17731Y28395D01*
Y27271D01*
X16745Y26284D01*
X15756Y26284D01*
X15748Y26284D01*
X15748Y26284D01*
X15703Y26266D01*
X15684Y26220D01*
X15684Y26220D01*
X15684Y26212D01*
Y24409D01*
X15703Y24364D01*
X15748Y24346D01*
X16882D01*
X16890Y24346D01*
X16890Y24346D01*
X16935Y24364D01*
X16954Y24409D01*
X16954Y24409D01*
X16954Y24417D01*
X16954Y25367D01*
X18470Y26884D01*
X18489Y26929D01*
X18489Y28853D01*
X20592D01*
X20627Y28803D01*
X20640Y28765D01*
X20640Y28762D01*
X17199Y25321D01*
X17180Y25276D01*
Y24724D01*
X17199Y24679D01*
X17244Y24660D01*
X19094D01*
X19140Y24679D01*
X19158Y24724D01*
Y25485D01*
X23373Y29700D01*
X24424D01*
Y24710D01*
X23622D01*
X23577Y24691D01*
X23558Y24646D01*
Y23701D01*
X23577Y23656D01*
X23622Y23637D01*
X25079D01*
X25086Y23640D01*
X25185Y23588D01*
Y23369D01*
X25145Y23329D01*
X25118Y23264D01*
Y23193D01*
X25145Y23128D01*
X25195Y23078D01*
X25260Y23051D01*
X25331D01*
X25382Y23072D01*
X25439Y23050D01*
X25480Y23023D01*
Y22587D01*
X24994Y22101D01*
X24983Y22108D01*
X24902Y22130D01*
X24818D01*
X24737Y22108D01*
X24664Y22066D01*
X24605Y22007D01*
X24563Y21934D01*
X24541Y21853D01*
Y21769D01*
X24563Y21688D01*
X24605Y21615D01*
X24664Y21556D01*
X24737Y21514D01*
X24799Y21498D01*
X24827Y21441D01*
X24834Y21394D01*
X24613Y21173D01*
X21682D01*
X21178Y21677D01*
X21185Y21688D01*
X21207Y21769D01*
Y21853D01*
X21185Y21934D01*
X21143Y22007D01*
X21084Y22066D01*
X21011Y22108D01*
X20930Y22130D01*
X20846D01*
X20765Y22108D01*
X20693Y22066D01*
X20633Y22007D01*
X20591Y21934D01*
X20570Y21853D01*
Y21769D01*
X20591Y21688D01*
X20633Y21615D01*
X20693Y21556D01*
X20765Y21514D01*
X20846Y21493D01*
X20930D01*
X21011Y21514D01*
X21022Y21521D01*
X21558Y20985D01*
X21594Y20961D01*
X21636Y20953D01*
X24487D01*
X24524Y20862D01*
X24442Y20780D01*
X21227D01*
X20465Y21542D01*
Y22310D01*
X20682Y22527D01*
X22002D01*
X22584Y21945D01*
X22577Y21934D01*
X22556Y21853D01*
Y21769D01*
X22577Y21688D01*
X22619Y21615D01*
X22678Y21556D01*
X22751Y21514D01*
X22832Y21493D01*
X22916D01*
X22997Y21514D01*
X23070Y21556D01*
X23129Y21615D01*
X23171Y21688D01*
X23193Y21769D01*
Y21853D01*
X23171Y21934D01*
X23129Y22007D01*
X23070Y22066D01*
X22997Y22108D01*
X22916Y22130D01*
X22832D01*
X22751Y22108D01*
X22740Y22101D01*
X22125Y22716D01*
X22089Y22740D01*
X22047Y22748D01*
X20637D01*
X20594Y22740D01*
X20559Y22716D01*
X20276Y22434D01*
X20252Y22398D01*
X20244Y22355D01*
Y21496D01*
X20252Y21454D01*
X20276Y21418D01*
X21103Y20591D01*
X21139Y20567D01*
X21181Y20559D01*
X24488D01*
X24530Y20567D01*
X24566Y20591D01*
X24659Y20684D01*
X24750Y20646D01*
Y19867D01*
X24737Y19864D01*
X24664Y19822D01*
X24605Y19763D01*
X24563Y19690D01*
X24541Y19609D01*
Y19525D01*
X24563Y19444D01*
X24605Y19371D01*
X24664Y19312D01*
X24737Y19270D01*
X24818Y19248D01*
X24902D01*
X24983Y19270D01*
X25055Y19312D01*
X25115Y19371D01*
X25157Y19444D01*
X25178Y19525D01*
Y19609D01*
X25157Y19690D01*
X25115Y19763D01*
X25055Y19822D01*
X24983Y19864D01*
X24970Y19867D01*
Y20740D01*
X25382Y21151D01*
X25480Y21111D01*
Y19573D01*
X24757Y18851D01*
X23747D01*
X23457Y19140D01*
Y19843D01*
X23448Y19885D01*
X23425Y19921D01*
X22952Y20393D01*
X22916Y20417D01*
X22874Y20425D01*
X21636D01*
X21594Y20417D01*
X21558Y20393D01*
X21022Y19857D01*
X21011Y19864D01*
X20930Y19885D01*
X20846D01*
X20765Y19864D01*
X20693Y19822D01*
X20633Y19763D01*
X20591Y19690D01*
X20570Y19609D01*
Y19525D01*
X20591Y19444D01*
X20633Y19371D01*
X20693Y19312D01*
X20765Y19270D01*
X20846Y19248D01*
X20930D01*
X21011Y19270D01*
X21084Y19312D01*
X21143Y19371D01*
X21185Y19444D01*
X21207Y19525D01*
Y19609D01*
X21185Y19690D01*
X21178Y19701D01*
X21682Y20205D01*
X22828D01*
X23174Y19859D01*
X23173Y19857D01*
X23073Y19823D01*
X23063Y19826D01*
X22997Y19864D01*
X22916Y19885D01*
X22832D01*
X22751Y19864D01*
X22678Y19822D01*
X22619Y19763D01*
X22577Y19690D01*
X22556Y19609D01*
Y19525D01*
X22577Y19444D01*
X22584Y19433D01*
X21733Y18582D01*
X21709Y18546D01*
X21701Y18504D01*
Y18279D01*
X21602Y18253D01*
X21591Y18271D01*
X21539Y18324D01*
X21475Y18361D01*
X21403Y18380D01*
X21329D01*
X21257Y18361D01*
X21193Y18324D01*
X21141Y18271D01*
X21104Y18207D01*
X21085Y18135D01*
Y18061D01*
X21103Y17992D01*
X18820Y15708D01*
X18796Y15672D01*
X18787Y15630D01*
Y7677D01*
X18796Y7635D01*
X18820Y7599D01*
X19253Y7166D01*
X19288Y7142D01*
X19331Y7134D01*
X19378D01*
X19404Y7035D01*
X19366Y7013D01*
X19307Y6954D01*
X19219Y7000D01*
X18477Y7743D01*
Y14711D01*
X18539Y14747D01*
X18591Y14800D01*
X18628Y14864D01*
X18648Y14935D01*
Y15009D01*
X18628Y15081D01*
X18591Y15145D01*
X18539Y15198D01*
X18475Y15235D01*
X18403Y15254D01*
X18329D01*
X18257Y15235D01*
X18193Y15198D01*
X18141Y15145D01*
X18104Y15081D01*
X18085Y15009D01*
Y14935D01*
X18104Y14864D01*
X18141Y14800D01*
X18193Y14747D01*
X18256Y14711D01*
Y7697D01*
X18264Y7655D01*
X18288Y7619D01*
X19166Y6741D01*
X19201Y6717D01*
X19244Y6709D01*
X19246D01*
X19265Y6638D01*
X19307Y6565D01*
X19366Y6507D01*
X19438Y6465D01*
X19519Y6443D01*
X19602D01*
X19682Y6465D01*
X19755Y6507D01*
X19814Y6565D01*
X19855Y6638D01*
X19877Y6718D01*
Y6802D01*
X19855Y6882D01*
X19814Y6954D01*
X19755Y7013D01*
X19716Y7035D01*
X19743Y7134D01*
X19915D01*
X20047Y7002D01*
Y6403D01*
X19693Y6049D01*
X19682Y6055D01*
X19602Y6076D01*
X19519D01*
X19438Y6055D01*
X19366Y6013D01*
X19307Y5954D01*
X19265Y5882D01*
X19244Y5802D01*
Y5718D01*
X19265Y5638D01*
X19307Y5565D01*
X19366Y5507D01*
X19438Y5465D01*
X19519Y5443D01*
X19602D01*
X19682Y5465D01*
X19755Y5507D01*
X19814Y5565D01*
X19855Y5638D01*
X19877Y5718D01*
Y5802D01*
X19855Y5882D01*
X19849Y5893D01*
X20236Y6279D01*
X20259Y6315D01*
X20268Y6357D01*
Y7047D01*
X20259Y7089D01*
X20236Y7125D01*
X20039Y7322D01*
X20003Y7346D01*
X19961Y7354D01*
X19651D01*
X19638Y7453D01*
X19682Y7465D01*
X19755Y7507D01*
X19814Y7565D01*
X19855Y7638D01*
X19877Y7718D01*
Y7802D01*
X19855Y7882D01*
X19849Y7893D01*
X21161Y9204D01*
X21185Y9240D01*
X21193Y9282D01*
Y12607D01*
X22291Y13705D01*
X24404D01*
X24446Y13713D01*
X24482Y13737D01*
X25236Y14491D01*
X25259Y14527D01*
X25268Y14569D01*
Y15281D01*
X25271Y15283D01*
X25369Y15230D01*
Y12402D01*
X25388Y12356D01*
X26175Y11569D01*
X26220Y11550D01*
X27717D01*
X27762Y11569D01*
X27780Y11614D01*
Y12795D01*
X27762Y12840D01*
X27717Y12859D01*
X26678D01*
Y14128D01*
X26777Y14155D01*
X26787Y14136D01*
X26864Y14059D01*
X26959Y14005D01*
X27064Y13976D01*
X27173D01*
X27278Y14005D01*
X27372Y14059D01*
X27449Y14136D01*
X27503Y14230D01*
X27531Y14335D01*
Y14444D01*
X27503Y14549D01*
X27449Y14644D01*
X27372Y14721D01*
X27278Y14775D01*
X27173Y14803D01*
X27064D01*
X26959Y14775D01*
X26864Y14721D01*
X26787Y14644D01*
X26777Y14625D01*
X26678Y14651D01*
Y15128D01*
X26777Y15155D01*
X26787Y15136D01*
X26864Y15059D01*
X26959Y15005D01*
X27064Y14976D01*
X27173D01*
X27278Y15005D01*
X27372Y15059D01*
X27449Y15136D01*
X27503Y15230D01*
X27517Y15281D01*
X28996D01*
X29034Y15244D01*
X29099Y15217D01*
X29169D01*
X29234Y15244D01*
X29284Y15293D01*
X29311Y15358D01*
Y15429D01*
X29284Y15494D01*
X29234Y15544D01*
X29169Y15571D01*
X29099D01*
X29034Y15544D01*
X28992Y15502D01*
X27516D01*
X27503Y15549D01*
X27449Y15644D01*
X27372Y15721D01*
X27278Y15775D01*
X27173Y15803D01*
X27064D01*
X26959Y15775D01*
X26864Y15721D01*
X26787Y15644D01*
X26777Y15625D01*
X26678Y15651D01*
Y16128D01*
X26777Y16155D01*
X26787Y16136D01*
X26864Y16059D01*
X26959Y16005D01*
X27064Y15976D01*
X27173D01*
X27278Y16005D01*
X27372Y16059D01*
X27449Y16136D01*
X27503Y16230D01*
X27520Y16293D01*
X29086D01*
X29112Y16267D01*
X29177Y16240D01*
X29248D01*
X29313Y16267D01*
X29363Y16317D01*
X29390Y16382D01*
Y16453D01*
X29363Y16518D01*
X29313Y16568D01*
X29248Y16594D01*
X29177D01*
X29112Y16568D01*
X29062Y16518D01*
X29061Y16514D01*
X27513D01*
X27503Y16549D01*
X27449Y16644D01*
X27372Y16721D01*
X27278Y16775D01*
X27173Y16803D01*
X27064D01*
X26959Y16775D01*
X26864Y16721D01*
X26787Y16644D01*
X26733Y16549D01*
X26726Y16524D01*
X26614Y16481D01*
X26505D01*
X26464Y16580D01*
X26914Y17030D01*
X26959Y17005D01*
X27064Y16976D01*
X27173D01*
X27278Y17005D01*
X27372Y17059D01*
X27449Y17136D01*
X27503Y17230D01*
X27531Y17335D01*
Y17444D01*
X27503Y17549D01*
X27449Y17644D01*
X27372Y17721D01*
X27278Y17775D01*
X27173Y17803D01*
X27064D01*
X26959Y17775D01*
X26864Y17721D01*
X26787Y17644D01*
X26733Y17549D01*
X26705Y17444D01*
Y17335D01*
X26733Y17230D01*
X26758Y17186D01*
X25201Y15629D01*
X25110Y15667D01*
Y16226D01*
X26914Y18030D01*
X26959Y18005D01*
X27064Y17976D01*
X27173D01*
X27278Y18005D01*
X27372Y18059D01*
X27449Y18136D01*
X27503Y18230D01*
X27531Y18335D01*
Y18444D01*
X27503Y18549D01*
X27449Y18644D01*
X27372Y18721D01*
X27278Y18775D01*
X27173Y18803D01*
X27064D01*
X26959Y18775D01*
X26864Y18721D01*
X26787Y18644D01*
X26733Y18549D01*
X26705Y18444D01*
Y18335D01*
X26733Y18230D01*
X26758Y18186D01*
X24922Y16350D01*
X24898Y16314D01*
X24890Y16272D01*
Y14691D01*
X24285Y14087D01*
X22165D01*
X22123Y14078D01*
X22087Y14054D01*
X20214Y12181D01*
X20190Y12146D01*
X20182Y12103D01*
Y11988D01*
X19685D01*
Y11437D01*
X20182D01*
Y9538D01*
X19693Y9049D01*
X19682Y9055D01*
X19602Y9076D01*
X19519D01*
X19438Y9055D01*
X19366Y9013D01*
X19307Y8954D01*
X19265Y8882D01*
X19244Y8802D01*
Y8718D01*
X19265Y8638D01*
X19307Y8565D01*
X19366Y8507D01*
X19438Y8465D01*
X19519Y8443D01*
X19602D01*
X19682Y8465D01*
X19755Y8507D01*
X19814Y8565D01*
X19855Y8638D01*
X19877Y8718D01*
Y8802D01*
X19855Y8882D01*
X19849Y8893D01*
X20370Y9414D01*
X20394Y9450D01*
X20403Y9492D01*
Y12058D01*
X20881Y12536D01*
X20972Y12499D01*
Y9328D01*
X19693Y8049D01*
X19682Y8055D01*
X19602Y8076D01*
X19519D01*
X19438Y8055D01*
X19366Y8013D01*
X19307Y7954D01*
X19265Y7882D01*
X19244Y7802D01*
Y7718D01*
X19265Y7638D01*
X19307Y7565D01*
X19366Y7507D01*
X19438Y7465D01*
X19453Y7461D01*
X19444Y7361D01*
X19375Y7356D01*
X19008Y7723D01*
Y14841D01*
X19104Y14864D01*
X19141Y14800D01*
X19193Y14747D01*
X19257Y14710D01*
X19329Y14691D01*
X19403D01*
X19475Y14710D01*
X19539Y14747D01*
X19591Y14800D01*
X19628Y14864D01*
X19648Y14935D01*
Y15009D01*
X19628Y15081D01*
X19591Y15145D01*
X19539Y15198D01*
X19475Y15235D01*
X19403Y15254D01*
X19329D01*
X19257Y15235D01*
X19193Y15198D01*
X19141Y15145D01*
X19104Y15081D01*
X19008Y15104D01*
Y15584D01*
X21259Y17836D01*
X21329Y17817D01*
X21403D01*
X21475Y17836D01*
X21539Y17873D01*
X21591Y17926D01*
X21602Y17944D01*
X21701Y17918D01*
Y17598D01*
X21709Y17556D01*
X21733Y17520D01*
X22166Y17087D01*
X22202Y17063D01*
X22244Y17055D01*
X24331D01*
X24365Y17062D01*
X24371Y17057D01*
X24394Y16951D01*
X22589Y15147D01*
X22539Y15198D01*
X22475Y15235D01*
X22403Y15254D01*
X22329D01*
X22257Y15235D01*
X22193Y15198D01*
X22141Y15145D01*
X22104Y15081D01*
X22085Y15009D01*
Y14935D01*
X22104Y14864D01*
X22141Y14800D01*
X22193Y14747D01*
X22257Y14710D01*
X22329Y14691D01*
X22403D01*
X22475Y14710D01*
X22539Y14747D01*
X22591Y14800D01*
X22628Y14864D01*
X22645Y14926D01*
X22674Y14931D01*
X22710Y14955D01*
X26180Y18426D01*
X26204Y18462D01*
X26213Y18504D01*
Y19328D01*
X26914Y20030D01*
X26959Y20005D01*
X27064Y19976D01*
X27173D01*
X27278Y20005D01*
X27372Y20059D01*
X27449Y20136D01*
X27503Y20230D01*
X27531Y20335D01*
Y20444D01*
X27503Y20549D01*
X27449Y20644D01*
X27396Y20697D01*
X27430Y20795D01*
X29584D01*
X29624Y20755D01*
X29689Y20728D01*
X29760D01*
X29825Y20755D01*
X29875Y20805D01*
X29902Y20870D01*
Y20941D01*
X29875Y21006D01*
X29825Y21056D01*
X29760Y21083D01*
X29689D01*
X29624Y21056D01*
X29584Y21016D01*
X27468D01*
X27427Y21114D01*
X27449Y21136D01*
X27503Y21230D01*
X27531Y21335D01*
Y21444D01*
X27503Y21549D01*
X27449Y21644D01*
X27412Y21681D01*
X27452Y21779D01*
X29545D01*
X29585Y21740D01*
X29650Y21713D01*
X29720D01*
X29785Y21740D01*
X29835Y21789D01*
X29862Y21855D01*
Y21925D01*
X29835Y21990D01*
X29785Y22040D01*
X29720Y22067D01*
X29650D01*
X29585Y22040D01*
X29545Y22000D01*
X27452D01*
X27412Y22099D01*
X27449Y22136D01*
X27503Y22230D01*
X27531Y22335D01*
Y22444D01*
X27503Y22549D01*
X27449Y22644D01*
X27427Y22665D01*
X27468Y22764D01*
X28970D01*
X29311Y22423D01*
Y22366D01*
X29338Y22301D01*
X29388Y22251D01*
X29453Y22224D01*
X29523D01*
X29589Y22251D01*
X29638Y22301D01*
X29665Y22366D01*
Y22437D01*
X29638Y22502D01*
X29589Y22552D01*
X29523Y22579D01*
X29467D01*
X29094Y22952D01*
X29058Y22976D01*
X29016Y22984D01*
X27430D01*
X27396Y23083D01*
X27449Y23136D01*
X27503Y23230D01*
X27531Y23335D01*
Y23444D01*
X27503Y23549D01*
X27449Y23644D01*
X27372Y23721D01*
X27278Y23775D01*
X27173Y23803D01*
X27064D01*
X26959Y23775D01*
X26864Y23721D01*
X26787Y23644D01*
X26733Y23549D01*
X26705Y23444D01*
Y23335D01*
X26733Y23230D01*
X26787Y23136D01*
X26864Y23059D01*
X26870Y22960D01*
X26864Y22946D01*
X26343Y22425D01*
X26252Y22463D01*
Y24285D01*
X26969Y25002D01*
X27064Y24976D01*
X27173D01*
X27278Y25005D01*
X27322Y25030D01*
X30520Y21832D01*
Y16224D01*
X30421Y16214D01*
X30417Y16235D01*
X30393Y16271D01*
X27478Y19186D01*
X27503Y19230D01*
X27531Y19335D01*
Y19444D01*
X27503Y19549D01*
X27449Y19644D01*
X27372Y19721D01*
X27278Y19775D01*
X27173Y19803D01*
X27064D01*
X26959Y19775D01*
X26864Y19721D01*
X26787Y19644D01*
X26733Y19549D01*
X26705Y19444D01*
Y19335D01*
X26733Y19230D01*
X26787Y19136D01*
X26864Y19059D01*
X26959Y19005D01*
X27064Y18976D01*
X27173D01*
X27278Y19005D01*
X27322Y19030D01*
X30205Y16147D01*
Y13460D01*
X26793Y10049D01*
X26782Y10055D01*
X26702Y10076D01*
X26619D01*
X26538Y10055D01*
X26466Y10013D01*
X26407Y9954D01*
X26365Y9882D01*
X26344Y9802D01*
Y9718D01*
X26365Y9638D01*
X26407Y9565D01*
X26466Y9507D01*
X26538Y9465D01*
X26619Y9443D01*
X26702D01*
X26782Y9465D01*
X26855Y9507D01*
X26914Y9565D01*
X26955Y9638D01*
X26977Y9718D01*
Y9802D01*
X26955Y9882D01*
X26949Y9893D01*
X30393Y13337D01*
X30417Y13372D01*
X30421Y13393D01*
X30520Y13384D01*
Y11772D01*
X30528Y11729D01*
X30552Y11694D01*
X32560Y9686D01*
X32596Y9662D01*
X32638Y9653D01*
X37698D01*
X37735Y9562D01*
X36800Y8627D01*
X36746Y8659D01*
X36633Y8689D01*
X36516D01*
X36404Y8659D01*
X36303Y8600D01*
X36220Y8518D01*
X36162Y8417D01*
X36132Y8304D01*
Y8188D01*
X36162Y8075D01*
X36220Y7974D01*
X36303Y7891D01*
X36404Y7833D01*
X36464Y7817D01*
Y3767D01*
X36132D01*
Y2882D01*
X37018D01*
Y3767D01*
X36685D01*
Y7817D01*
X36746Y7833D01*
X36847Y7891D01*
X36929Y7974D01*
X36988Y8075D01*
X37018Y8188D01*
Y8304D01*
X36988Y8417D01*
X36956Y8471D01*
X37981Y9496D01*
X45027D01*
X45068Y9397D01*
X44027Y8356D01*
X43756D01*
X43740Y8417D01*
X43681Y8518D01*
X43599Y8600D01*
X43498Y8659D01*
X43385Y8689D01*
X43268D01*
X43156Y8659D01*
X43055Y8600D01*
X42972Y8518D01*
X42914Y8417D01*
X42884Y8304D01*
Y8188D01*
X42914Y8075D01*
X42972Y7974D01*
X43055Y7891D01*
X43156Y7833D01*
X43216Y7817D01*
Y3767D01*
X42884D01*
Y2882D01*
X43770D01*
Y3767D01*
X43437D01*
Y7817D01*
X43498Y7833D01*
X43599Y7891D01*
X43681Y7974D01*
X43740Y8075D01*
X43756Y8135D01*
X44073D01*
X44115Y8144D01*
X44151Y8168D01*
X45498Y9516D01*
X51064D01*
X51101Y9425D01*
X50304Y8627D01*
X50250Y8659D01*
X50137Y8689D01*
X50020D01*
X49908Y8659D01*
X49807Y8600D01*
X49724Y8518D01*
X49666Y8417D01*
X49636Y8304D01*
Y8188D01*
X49666Y8075D01*
X49724Y7974D01*
X49807Y7891D01*
X49908Y7833D01*
X49968Y7817D01*
Y3767D01*
X49636D01*
Y2882D01*
X50522D01*
Y3767D01*
X50189D01*
Y7817D01*
X50250Y7833D01*
X50351Y7891D01*
X50433Y7974D01*
X50491Y8075D01*
X50522Y8188D01*
Y8304D01*
X50491Y8417D01*
X50460Y8471D01*
X51327Y9338D01*
X52520D01*
X52562Y9347D01*
X52598Y9371D01*
X54428Y11201D01*
X54452Y11237D01*
X54461Y11280D01*
Y15925D01*
X54452Y15967D01*
X54428Y16003D01*
X53188Y17243D01*
X53152Y17267D01*
X53110Y17276D01*
X47684D01*
X42491Y22468D01*
X42456Y22492D01*
X42413Y22500D01*
X33516D01*
X33503Y22549D01*
X33449Y22644D01*
X33372Y22721D01*
X33278Y22775D01*
X33173Y22803D01*
X33064D01*
X32959Y22775D01*
X32864Y22721D01*
X32787Y22644D01*
X32733Y22549D01*
X32705Y22444D01*
Y22335D01*
X32733Y22230D01*
X32787Y22136D01*
X32825Y22099D01*
X32784Y22000D01*
X32520D01*
X32477Y21992D01*
X32442Y21968D01*
X32048Y21574D01*
X32024Y21538D01*
X32016Y21496D01*
Y20906D01*
X32024Y20863D01*
X32048Y20827D01*
X32564Y20312D01*
X32599Y20288D01*
X32642Y20279D01*
X32720D01*
X32733Y20230D01*
X32787Y20136D01*
X32864Y20059D01*
X32959Y20005D01*
X33064Y19976D01*
X33173D01*
X33278Y20005D01*
X33372Y20059D01*
X33449Y20136D01*
X33503Y20230D01*
X33531Y20335D01*
Y20444D01*
X33503Y20549D01*
X33449Y20644D01*
X33372Y20721D01*
X33278Y20775D01*
X33173Y20803D01*
X33064D01*
X32959Y20775D01*
X32864Y20721D01*
X32787Y20644D01*
X32749Y20578D01*
X32664Y20553D01*
X32633Y20555D01*
X32236Y20951D01*
Y21450D01*
X32565Y21779D01*
X32784D01*
X32825Y21681D01*
X32787Y21644D01*
X32733Y21549D01*
X32705Y21444D01*
Y21335D01*
X32733Y21230D01*
X32787Y21136D01*
X32864Y21059D01*
X32959Y21005D01*
X33064Y20976D01*
X33173D01*
X33278Y21005D01*
X33372Y21059D01*
X33449Y21136D01*
X33503Y21230D01*
X33516Y21279D01*
X42895D01*
X47402Y16772D01*
X47438Y16748D01*
X47480Y16740D01*
X52934D01*
X53925Y15749D01*
Y11483D01*
X52356Y9914D01*
X45357D01*
X45315Y9905D01*
X45279Y9881D01*
X45115Y9717D01*
X42639D01*
X42602Y9808D01*
X43040Y10246D01*
X43770D01*
Y11132D01*
X43437D01*
Y15181D01*
X43498Y15198D01*
X43599Y15256D01*
X43681Y15338D01*
X43740Y15439D01*
X43770Y15552D01*
Y15669D01*
X43740Y15781D01*
X43681Y15882D01*
X43599Y15965D01*
X43498Y16023D01*
X43385Y16053D01*
X43268D01*
X43156Y16023D01*
X43055Y15965D01*
X42972Y15882D01*
X42914Y15781D01*
X42884Y15669D01*
Y15552D01*
X42914Y15439D01*
X42972Y15338D01*
X43055Y15256D01*
X43156Y15198D01*
X43216Y15181D01*
Y11132D01*
X42884D01*
Y10402D01*
X42356Y9874D01*
X40091D01*
X40050Y9973D01*
X40944Y10867D01*
X40968Y10903D01*
X40977Y10945D01*
Y15505D01*
X41857Y16386D01*
X49147D01*
X49697Y15835D01*
X49666Y15781D01*
X49636Y15669D01*
Y15552D01*
X49666Y15439D01*
X49724Y15338D01*
X49807Y15256D01*
X49908Y15198D01*
X49968Y15181D01*
Y11132D01*
X49636D01*
Y10246D01*
X50522D01*
Y11132D01*
X50189D01*
Y15181D01*
X50250Y15198D01*
X50351Y15256D01*
X50433Y15338D01*
X50491Y15439D01*
X50522Y15552D01*
Y15669D01*
X50491Y15781D01*
X50433Y15882D01*
X50351Y15965D01*
X50250Y16023D01*
X50137Y16053D01*
X50020D01*
X49908Y16023D01*
X49853Y15992D01*
X49271Y16574D01*
X49235Y16598D01*
X49193Y16606D01*
X41811D01*
X41769Y16598D01*
X41733Y16574D01*
X40788Y15629D01*
X40764Y15593D01*
X40756Y15551D01*
Y10991D01*
X39836Y10071D01*
X32767D01*
X31944Y10894D01*
X31981Y10985D01*
X33379D01*
X33421Y10994D01*
X33457Y11018D01*
X34999Y12560D01*
X35023Y12596D01*
X35032Y12638D01*
Y14915D01*
X35617Y15500D01*
X36146D01*
X36162Y15439D01*
X36220Y15338D01*
X36303Y15256D01*
X36404Y15198D01*
X36464Y15181D01*
Y11132D01*
X36132D01*
Y10246D01*
X37018D01*
Y11132D01*
X36685D01*
Y15181D01*
X36746Y15198D01*
X36847Y15256D01*
X36929Y15338D01*
X36988Y15439D01*
X37018Y15552D01*
Y15669D01*
X36988Y15781D01*
X36929Y15882D01*
X36847Y15965D01*
X36746Y16023D01*
X36633Y16053D01*
X36516D01*
X36404Y16023D01*
X36303Y15965D01*
X36220Y15882D01*
X36162Y15781D01*
X36146Y15721D01*
X35571D01*
X35529Y15712D01*
X35493Y15688D01*
X34843Y15039D01*
X34819Y15003D01*
X34811Y14961D01*
Y12684D01*
X33333Y11206D01*
X31855D01*
X31055Y12005D01*
Y23563D01*
X31047Y23605D01*
X31023Y23641D01*
X27478Y27186D01*
X27503Y27230D01*
X27531Y27335D01*
Y27444D01*
X27503Y27549D01*
X27449Y27644D01*
X27388Y27705D01*
X27403Y27771D01*
X27423Y27803D01*
X31549D01*
X32758Y26593D01*
X32733Y26549D01*
X32705Y26444D01*
Y26335D01*
X32733Y26230D01*
X32787Y26136D01*
X32864Y26059D01*
X32959Y26005D01*
X33064Y25976D01*
X33173D01*
X33278Y26005D01*
X33372Y26059D01*
X33449Y26136D01*
X33503Y26230D01*
X33531Y26335D01*
Y26444D01*
X33503Y26549D01*
X33449Y26644D01*
X33372Y26721D01*
X33278Y26775D01*
X33173Y26803D01*
X33064D01*
X32959Y26775D01*
X32914Y26750D01*
X31673Y27991D01*
X31637Y28015D01*
X31594Y28024D01*
X27476D01*
X27435Y28122D01*
X27449Y28136D01*
X27503Y28230D01*
X27531Y28335D01*
Y28444D01*
X27503Y28549D01*
X27449Y28644D01*
X27372Y28721D01*
X27278Y28775D01*
X27173Y28803D01*
X27064D01*
X26959Y28775D01*
X26864Y28721D01*
X26787Y28644D01*
X26733Y28549D01*
X26705Y28444D01*
Y28335D01*
X26733Y28230D01*
X26787Y28136D01*
X26801Y28122D01*
X26760Y28024D01*
X26614D01*
X26572Y28015D01*
X26536Y27991D01*
X25241Y26696D01*
X25147Y26729D01*
X25143Y26732D01*
X25143Y31983D01*
X32298D01*
Y30827D01*
X32317Y30782D01*
X32362Y30763D01*
X33937D01*
X33982Y30782D01*
X34001Y30827D01*
Y32874D01*
X33982Y32919D01*
X33937Y32938D01*
X18346D01*
X18301Y32919D01*
X18283Y32874D01*
Y30984D01*
X18273Y30969D01*
X17623D01*
Y32874D01*
X17604Y32919D01*
X17559Y32938D01*
X17008D01*
X16949Y32923D01*
X16890Y32938D01*
D02*
G37*
G36*
X2842Y30789D02*
X2748D01*
X2658Y30765D01*
X2577Y30718D01*
X2510Y30652D01*
X2464Y30570D01*
X2439Y30480D01*
Y30386D01*
X2464Y30296D01*
X2510Y30215D01*
X2577Y30148D01*
X2658Y30101D01*
X2748Y30077D01*
X2842D01*
X2933Y30101D01*
X3014Y30148D01*
X3080Y30215D01*
X3127Y30296D01*
X3151Y30386D01*
Y30480D01*
X3127Y30570D01*
X3080Y30652D01*
X3014Y30718D01*
X2933Y30765D01*
X2842Y30789D01*
D02*
G37*
G36*
X27173Y30803D02*
X27064D01*
X26959Y30775D01*
X26864Y30721D01*
X26787Y30644D01*
X26733Y30549D01*
X26705Y30444D01*
Y30335D01*
X26733Y30230D01*
X26787Y30136D01*
X26864Y30059D01*
X26959Y30005D01*
X27064Y29976D01*
X27173D01*
X27278Y30005D01*
X27372Y30059D01*
X27449Y30136D01*
X27503Y30230D01*
X27531Y30335D01*
Y30444D01*
X27503Y30549D01*
X27449Y30644D01*
X27372Y30721D01*
X27278Y30775D01*
X27173Y30803D01*
D02*
G37*
G36*
X41480Y32394D02*
X38885D01*
X38842Y32385D01*
X38806Y32362D01*
X38293Y31848D01*
X38290Y31850D01*
X38215Y31870D01*
X38137D01*
X38062Y31850D01*
X37995Y31811D01*
X37940Y31756D01*
X37901Y31689D01*
X37881Y31614D01*
Y31536D01*
X37901Y31461D01*
X37940Y31393D01*
X37995Y31339D01*
X38062Y31300D01*
X38137Y31280D01*
X38215D01*
X38290Y31300D01*
X38357Y31339D01*
X38412Y31393D01*
X38451Y31461D01*
X38471Y31536D01*
Y31614D01*
X38451Y31689D01*
X38449Y31692D01*
X38930Y32173D01*
X41435D01*
X43190Y30417D01*
X43176Y30393D01*
X43152Y30303D01*
Y30209D01*
X43176Y30119D01*
X43223Y30037D01*
X43289Y29971D01*
X43370Y29924D01*
X43461Y29900D01*
X43555D01*
X43645Y29924D01*
X43726Y29971D01*
X43793Y30037D01*
X43840Y30119D01*
X43864Y30209D01*
Y30303D01*
X43840Y30393D01*
X43793Y30474D01*
X43726Y30541D01*
X43645Y30588D01*
X43555Y30612D01*
X43461D01*
X43370Y30588D01*
X43346Y30574D01*
X41558Y32362D01*
X41523Y32385D01*
X41480Y32394D01*
D02*
G37*
G36*
X39645Y31870D02*
X39567D01*
X39492Y31850D01*
X39425Y31811D01*
X39370Y31756D01*
X39331Y31689D01*
X39311Y31614D01*
Y31536D01*
X39331Y31461D01*
X39370Y31393D01*
X39425Y31339D01*
X39492Y31300D01*
X39567Y31280D01*
X39645D01*
X39720Y31300D01*
X39788Y31339D01*
X39843Y31393D01*
X39881Y31461D01*
X39882Y31464D01*
X41143D01*
X42190Y30417D01*
X42176Y30393D01*
X42152Y30303D01*
Y30209D01*
X42176Y30119D01*
X42223Y30037D01*
X42289Y29971D01*
X42371Y29924D01*
X42461Y29900D01*
X42555D01*
X42645Y29924D01*
X42726Y29971D01*
X42793Y30037D01*
X42840Y30119D01*
X42864Y30209D01*
Y30303D01*
X42840Y30393D01*
X42793Y30474D01*
X42726Y30541D01*
X42645Y30588D01*
X42555Y30612D01*
X42461D01*
X42371Y30588D01*
X42346Y30574D01*
X41267Y31653D01*
X41231Y31677D01*
X41189Y31685D01*
X39882D01*
X39881Y31689D01*
X39843Y31756D01*
X39788Y31811D01*
X39720Y31850D01*
X39645Y31870D01*
D02*
G37*
G36*
X40864Y30612D02*
X40152D01*
Y29900D01*
X40864D01*
Y30612D01*
D02*
G37*
G36*
X48273Y30630D02*
X48145D01*
X48019Y30605D01*
X47901Y30556D01*
X47795Y30485D01*
X47704Y30394D01*
X47633Y30288D01*
X47584Y30170D01*
X47559Y30044D01*
Y29916D01*
X47584Y29791D01*
X47633Y29673D01*
X47704Y29566D01*
X47795Y29476D01*
X47901Y29405D01*
X48019Y29356D01*
X48145Y29331D01*
X48273D01*
X48398Y29356D01*
X48516Y29405D01*
X48623Y29476D01*
X48713Y29566D01*
X48784Y29673D01*
X48833Y29791D01*
X48858Y29916D01*
Y30044D01*
X48833Y30170D01*
X48784Y30288D01*
X48713Y30394D01*
X48623Y30485D01*
X48516Y30556D01*
X48398Y30605D01*
X48273Y30630D01*
D02*
G37*
G36*
X35871D02*
X35743D01*
X35618Y30605D01*
X35499Y30556D01*
X35393Y30485D01*
X35303Y30394D01*
X35231Y30288D01*
X35182Y30170D01*
X35157Y30044D01*
Y29916D01*
X35182Y29791D01*
X35231Y29673D01*
X35303Y29566D01*
X35393Y29476D01*
X35499Y29405D01*
X35618Y29356D01*
X35743Y29331D01*
X35871D01*
X35997Y29356D01*
X36115Y29405D01*
X36221Y29476D01*
X36312Y29566D01*
X36383Y29673D01*
X36432Y29791D01*
X36457Y29916D01*
Y30044D01*
X36432Y30170D01*
X36383Y30288D01*
X36312Y30394D01*
X36221Y30485D01*
X36115Y30556D01*
X35997Y30605D01*
X35871Y30630D01*
D02*
G37*
G36*
X50981Y31181D02*
X50909D01*
X50839Y31162D01*
X50776Y31126D01*
X50724Y31075D01*
X50688Y31012D01*
X50669Y30942D01*
Y30869D01*
X50688Y30799D01*
X50724Y30736D01*
X50776Y30685D01*
X50834Y30651D01*
Y30085D01*
X49999Y29250D01*
X49996Y29252D01*
X49921Y29272D01*
X49843D01*
X49768Y29252D01*
X49701Y29213D01*
X49646Y29158D01*
X49607Y29090D01*
X49587Y29015D01*
Y28937D01*
X49607Y28862D01*
X49646Y28795D01*
X49701Y28740D01*
X49768Y28701D01*
X49843Y28681D01*
X49921D01*
X49996Y28701D01*
X50063Y28740D01*
X50118Y28795D01*
X50157Y28862D01*
X50177Y28937D01*
Y29015D01*
X50157Y29090D01*
X50155Y29094D01*
X51023Y29961D01*
X51047Y29997D01*
X51055Y30039D01*
Y30651D01*
X51114Y30685D01*
X51165Y30736D01*
X51202Y30799D01*
X51220Y30869D01*
Y30942D01*
X51202Y31012D01*
X51165Y31075D01*
X51114Y31126D01*
X51051Y31162D01*
X50981Y31181D01*
D02*
G37*
G36*
X33173Y29803D02*
X33064D01*
X32959Y29775D01*
X32864Y29721D01*
X32787Y29644D01*
X32733Y29549D01*
X32705Y29444D01*
Y29335D01*
X32733Y29230D01*
X32787Y29136D01*
X32864Y29059D01*
X32959Y29005D01*
X33064Y28976D01*
X33173D01*
X33278Y29005D01*
X33372Y29059D01*
X33449Y29136D01*
X33503Y29230D01*
X33531Y29335D01*
Y29444D01*
X33503Y29549D01*
X33449Y29644D01*
X33372Y29721D01*
X33278Y29775D01*
X33173Y29803D01*
D02*
G37*
G36*
X27173D02*
X27064D01*
X26959Y29775D01*
X26864Y29721D01*
X26787Y29644D01*
X26733Y29549D01*
X26705Y29444D01*
Y29335D01*
X26733Y29230D01*
X26787Y29136D01*
X26864Y29059D01*
X26959Y29005D01*
X27064Y28976D01*
X27173D01*
X27278Y29005D01*
X27372Y29059D01*
X27449Y29136D01*
X27503Y29230D01*
X27531Y29335D01*
Y29444D01*
X27503Y29549D01*
X27449Y29644D01*
X27372Y29721D01*
X27278Y29775D01*
X27173Y29803D01*
D02*
G37*
G36*
X53304Y31181D02*
X53231D01*
X53161Y31162D01*
X53099Y31126D01*
X53047Y31075D01*
X53011Y31012D01*
X52992Y30942D01*
Y30869D01*
X53011Y30799D01*
X53047Y30736D01*
X53099Y30685D01*
X53157Y30651D01*
Y30000D01*
X53166Y29958D01*
X53190Y29922D01*
X54018Y29094D01*
X54016Y29090D01*
X53996Y29015D01*
Y28937D01*
X54016Y28862D01*
X54055Y28795D01*
X54110Y28740D01*
X54177Y28701D01*
X54252Y28681D01*
X54330D01*
X54405Y28701D01*
X54473Y28740D01*
X54528Y28795D01*
X54566Y28862D01*
X54587Y28937D01*
Y29015D01*
X54566Y29090D01*
X54528Y29158D01*
X54473Y29213D01*
X54405Y29252D01*
X54330Y29272D01*
X54252D01*
X54177Y29252D01*
X54174Y29250D01*
X53378Y30046D01*
Y30651D01*
X53437Y30685D01*
X53488Y30736D01*
X53525Y30799D01*
X53543Y30869D01*
Y30942D01*
X53525Y31012D01*
X53488Y31075D01*
X53437Y31126D01*
X53374Y31162D01*
X53304Y31181D01*
D02*
G37*
G36*
X33173Y28803D02*
X33064D01*
X32959Y28775D01*
X32864Y28721D01*
X32787Y28644D01*
X32733Y28549D01*
X32705Y28444D01*
Y28335D01*
X32733Y28230D01*
X32787Y28136D01*
X32864Y28059D01*
X32959Y28005D01*
X33064Y27976D01*
X33173D01*
X33278Y28005D01*
X33372Y28059D01*
X33449Y28136D01*
X33503Y28230D01*
X33531Y28335D01*
Y28444D01*
X33503Y28549D01*
X33449Y28644D01*
X33372Y28721D01*
X33278Y28775D01*
X33173Y28803D01*
D02*
G37*
G36*
X14449Y32741D02*
X6339D01*
X6293Y32722D01*
X6275Y32677D01*
Y27638D01*
X6293Y27593D01*
X6339Y27574D01*
X7598D01*
X7644Y27593D01*
X7662Y27638D01*
Y30448D01*
X14449D01*
X14494Y30467D01*
X14513Y30512D01*
Y32677D01*
X14494Y32722D01*
X14449Y32741D01*
D02*
G37*
G36*
X33173Y27803D02*
X33064D01*
X32959Y27775D01*
X32864Y27721D01*
X32787Y27644D01*
X32733Y27549D01*
X32705Y27444D01*
Y27335D01*
X32733Y27230D01*
X32787Y27136D01*
X32864Y27059D01*
X32959Y27005D01*
X33064Y26976D01*
X33173D01*
X33278Y27005D01*
X33372Y27059D01*
X33449Y27136D01*
X33503Y27230D01*
X33531Y27335D01*
Y27444D01*
X33503Y27549D01*
X33449Y27644D01*
X33372Y27721D01*
X33278Y27775D01*
X33173Y27803D01*
D02*
G37*
G36*
X5978Y26843D02*
X5157D01*
X5115Y26834D01*
X5079Y26810D01*
X1897Y23627D01*
X1852Y23653D01*
X1747Y23681D01*
X1638D01*
X1533Y23653D01*
X1439Y23599D01*
X1362Y23522D01*
X1308Y23427D01*
X1280Y23322D01*
Y23213D01*
X1308Y23108D01*
X1362Y23014D01*
X1439Y22937D01*
X1533Y22882D01*
X1638Y22854D01*
X1747D01*
X1852Y22882D01*
X1947Y22937D01*
X2024Y23014D01*
X2078Y23108D01*
X2106Y23213D01*
Y23322D01*
X2078Y23427D01*
X2053Y23471D01*
X5203Y26622D01*
X5932D01*
X6338Y26217D01*
Y25822D01*
X6889D01*
Y26373D01*
X6494D01*
X6056Y26810D01*
X6020Y26834D01*
X5978Y26843D01*
D02*
G37*
G36*
X5862Y26373D02*
X5790D01*
X5719Y26354D01*
X5657Y26318D01*
X5605Y26266D01*
X5569Y26203D01*
X5550Y26133D01*
Y26061D01*
X5568Y25995D01*
X4174Y24601D01*
X4150Y24566D01*
X4142Y24523D01*
Y19669D01*
X4150Y19627D01*
X4174Y19591D01*
X5048Y18717D01*
X5030Y18647D01*
Y18573D01*
X5049Y18502D01*
X5086Y18437D01*
X5138Y18385D01*
X5202Y18348D01*
X5274Y18329D01*
X5348D01*
X5420Y18348D01*
X5484Y18385D01*
X5536Y18437D01*
X5573Y18502D01*
X5593Y18573D01*
Y18647D01*
X5573Y18719D01*
X5536Y18783D01*
X5484Y18835D01*
X5420Y18873D01*
X5348Y18892D01*
X5274D01*
X5204Y18873D01*
X4362Y19715D01*
Y24478D01*
X5724Y25839D01*
X5790Y25822D01*
X5862D01*
X5932Y25840D01*
X5995Y25877D01*
X6046Y25928D01*
X6083Y25991D01*
X6101Y26061D01*
Y26133D01*
X6083Y26203D01*
X6046Y26266D01*
X5995Y26318D01*
X5932Y26354D01*
X5862Y26373D01*
D02*
G37*
G36*
X33173Y25803D02*
X33064D01*
X32959Y25775D01*
X32864Y25721D01*
X32787Y25644D01*
X32733Y25549D01*
X32705Y25444D01*
Y25335D01*
X32733Y25230D01*
X32787Y25136D01*
X32864Y25059D01*
X32959Y25005D01*
X33064Y24976D01*
X33173D01*
X33278Y25005D01*
X33372Y25059D01*
X33449Y25136D01*
X33503Y25230D01*
X33531Y25335D01*
Y25444D01*
X33503Y25549D01*
X33449Y25644D01*
X33372Y25721D01*
X33278Y25775D01*
X33173Y25803D01*
D02*
G37*
G36*
X51391Y29272D02*
X51313D01*
X51238Y29252D01*
X51170Y29213D01*
X51115Y29158D01*
X51077Y29090D01*
X51056Y29015D01*
Y28937D01*
X51077Y28862D01*
X51115Y28795D01*
X51170Y28740D01*
X51238Y28701D01*
X51241Y28700D01*
Y26161D01*
X49999Y24919D01*
X49996Y24921D01*
X49921Y24941D01*
X49843D01*
X49768Y24921D01*
X49701Y24882D01*
X49646Y24827D01*
X49607Y24760D01*
X49587Y24685D01*
Y24607D01*
X49607Y24532D01*
X49626Y24498D01*
X49607Y24479D01*
X49583Y24443D01*
X49575Y24401D01*
Y19347D01*
X49583Y19305D01*
X49607Y19269D01*
X49975Y18901D01*
X49947Y18833D01*
X49935Y18740D01*
X49947Y18648D01*
X49983Y18561D01*
X50039Y18487D01*
X50113Y18431D01*
X50200Y18395D01*
X50292Y18383D01*
X50653D01*
X50745Y18395D01*
X50831Y18431D01*
X50905Y18487D01*
X50962Y18561D01*
X50998Y18648D01*
X51010Y18740D01*
X50998Y18833D01*
X50962Y18919D01*
X50905Y18993D01*
X50831Y19050D01*
X50745Y19085D01*
X50653Y19098D01*
X50292D01*
X50200Y19085D01*
X50131Y19057D01*
X49795Y19393D01*
Y24261D01*
X49843Y24350D01*
X49921D01*
X49996Y24371D01*
X50063Y24409D01*
X50118Y24464D01*
X50157Y24532D01*
X50177Y24607D01*
Y24685D01*
X50157Y24760D01*
X50155Y24763D01*
X51430Y26037D01*
X51454Y26073D01*
X51462Y26115D01*
Y28700D01*
X51466Y28701D01*
X51533Y28740D01*
X51588Y28795D01*
X51627Y28862D01*
X51647Y28937D01*
Y29015D01*
X51627Y29090D01*
X51588Y29158D01*
X51533Y29213D01*
X51466Y29252D01*
X51391Y29272D01*
D02*
G37*
G36*
X2106Y25650D02*
X1280D01*
Y25375D01*
X1249D01*
X1206Y25366D01*
X1171Y25342D01*
X512Y24684D01*
X489Y24649D01*
X480Y24606D01*
Y17126D01*
X489Y17084D01*
X512Y17048D01*
X1931Y15629D01*
X1914Y15592D01*
X1874Y15548D01*
X1787Y15571D01*
X1678D01*
X1573Y15543D01*
X1478Y15488D01*
X1401Y15411D01*
X1347Y15317D01*
X1319Y15212D01*
Y15103D01*
X1347Y14998D01*
X1401Y14904D01*
X1478Y14827D01*
X1573Y14772D01*
X1678Y14744D01*
X1787D01*
X1892Y14772D01*
X1936Y14798D01*
X15198Y1536D01*
X15233Y1512D01*
X15276Y1504D01*
X31299D01*
X31341Y1512D01*
X31377Y1536D01*
X34133Y4292D01*
X34157Y4328D01*
X34166Y4370D01*
Y6457D01*
X34157Y6499D01*
X34133Y6535D01*
X33149Y7519D01*
X33113Y7543D01*
X33071Y7551D01*
X31299D01*
X31279Y7600D01*
X31229Y7666D01*
X31163Y7716D01*
X31086Y7748D01*
X31004Y7759D01*
X30492D01*
X30410Y7748D01*
X30333Y7716D01*
X30267Y7666D01*
X30217Y7600D01*
X30185Y7523D01*
X30174Y7441D01*
X30185Y7359D01*
X30217Y7282D01*
X30267Y7216D01*
X30333Y7166D01*
X30410Y7134D01*
X30492Y7123D01*
X31004D01*
X31086Y7134D01*
X31163Y7166D01*
X31229Y7216D01*
X31279Y7282D01*
X31299Y7331D01*
X33025D01*
X33945Y6411D01*
Y4416D01*
X31253Y1725D01*
X15321D01*
X2092Y14954D01*
X2118Y14998D01*
X2146Y15103D01*
Y15212D01*
X2119Y15311D01*
X2131Y15329D01*
X2171Y15365D01*
X2194Y15381D01*
X2232Y15374D01*
X5030D01*
Y15203D01*
X5593D01*
Y15766D01*
X5030D01*
Y15595D01*
X2278D01*
X701Y17172D01*
Y24561D01*
X1189Y25048D01*
X1280Y25011D01*
Y24823D01*
X2106D01*
Y25650D01*
D02*
G37*
G36*
X52860Y29272D02*
X52783D01*
X52708Y29252D01*
X52640Y29213D01*
X52585Y29158D01*
X52546Y29090D01*
X52526Y29015D01*
Y28937D01*
X52546Y28862D01*
X52585Y28795D01*
X52640Y28740D01*
X52708Y28701D01*
X52711Y28700D01*
Y26115D01*
X52720Y26073D01*
X52743Y26037D01*
X54018Y24763D01*
X54016Y24760D01*
X53996Y24685D01*
Y24607D01*
X54016Y24532D01*
X54018Y24528D01*
X53616Y24126D01*
X51858D01*
X51816Y24118D01*
X51780Y24094D01*
X50713Y23027D01*
X50653Y23035D01*
X50292D01*
X50200Y23022D01*
X50113Y22987D01*
X50039Y22930D01*
X49983Y22856D01*
X49947Y22770D01*
X49935Y22677D01*
X49947Y22585D01*
X49983Y22498D01*
X50039Y22424D01*
X50113Y22368D01*
X50200Y22332D01*
X50292Y22320D01*
X50653D01*
X50745Y22332D01*
X50831Y22368D01*
X50905Y22424D01*
X50962Y22498D01*
X50998Y22585D01*
X51010Y22677D01*
X50998Y22770D01*
X50962Y22856D01*
X50915Y22917D01*
X51904Y23905D01*
X53661D01*
X53704Y23914D01*
X53739Y23938D01*
X54174Y24372D01*
X54177Y24371D01*
X54252Y24350D01*
X54330D01*
X54405Y24371D01*
X54473Y24409D01*
X54528Y24464D01*
X54566Y24532D01*
X54587Y24607D01*
Y24685D01*
X54566Y24760D01*
X54528Y24827D01*
X54473Y24882D01*
X54405Y24921D01*
X54330Y24941D01*
X54252D01*
X54177Y24921D01*
X54174Y24919D01*
X52932Y26161D01*
Y28700D01*
X52935Y28701D01*
X53003Y28740D01*
X53058Y28795D01*
X53097Y28862D01*
X53117Y28937D01*
Y29015D01*
X53097Y29090D01*
X53058Y29158D01*
X53003Y29213D01*
X52935Y29252D01*
X52860Y29272D01*
D02*
G37*
G36*
X22184Y26732D02*
X22091D01*
X22001Y26708D01*
X21920Y26661D01*
X21854Y26596D01*
X21808Y26515D01*
X21783Y26425D01*
Y26331D01*
X21808Y26241D01*
X21854Y26160D01*
X21920Y26094D01*
X22001Y26048D01*
X22027Y26041D01*
Y25424D01*
X20769Y24166D01*
X19922D01*
X19921Y24169D01*
X19882Y24236D01*
X19827Y24291D01*
X19760Y24330D01*
X19685Y24350D01*
X19607D01*
X19532Y24330D01*
X19464Y24291D01*
X19409Y24236D01*
X19371Y24169D01*
X19350Y24094D01*
Y24016D01*
X19371Y23941D01*
X19409Y23874D01*
X19464Y23819D01*
X19532Y23780D01*
X19607Y23760D01*
X19685D01*
X19760Y23780D01*
X19827Y23819D01*
X19882Y23874D01*
X19921Y23941D01*
X19922Y23945D01*
X20815D01*
X20857Y23953D01*
X20893Y23977D01*
X22216Y25300D01*
X22240Y25336D01*
X22248Y25378D01*
Y26041D01*
X22275Y26048D01*
X22355Y26094D01*
X22421Y26160D01*
X22468Y26241D01*
X22492Y26331D01*
Y26425D01*
X22468Y26515D01*
X22421Y26596D01*
X22355Y26661D01*
X22275Y26708D01*
X22184Y26732D01*
D02*
G37*
G36*
X27173Y24803D02*
X27064D01*
X26959Y24775D01*
X26864Y24721D01*
X26787Y24644D01*
X26733Y24549D01*
X26705Y24444D01*
Y24335D01*
X26733Y24230D01*
X26787Y24136D01*
X26864Y24059D01*
X26959Y24005D01*
X27064Y23976D01*
X27173D01*
X27278Y24005D01*
X27372Y24059D01*
X27449Y24136D01*
X27503Y24230D01*
X27531Y24335D01*
Y24444D01*
X27503Y24549D01*
X27449Y24644D01*
X27372Y24721D01*
X27278Y24775D01*
X27173Y24803D01*
D02*
G37*
G36*
X33173Y23803D02*
X33064D01*
X32959Y23775D01*
X32864Y23721D01*
X32787Y23644D01*
X32733Y23549D01*
X32705Y23444D01*
Y23335D01*
X32733Y23230D01*
X32787Y23136D01*
X32864Y23059D01*
X32959Y23005D01*
X33064Y22976D01*
X33173D01*
X33278Y23005D01*
X33372Y23059D01*
X33449Y23136D01*
X33503Y23230D01*
X33531Y23335D01*
Y23444D01*
X33503Y23549D01*
X33449Y23644D01*
X33372Y23721D01*
X33278Y23775D01*
X33173Y23803D01*
D02*
G37*
G36*
X53467Y22992D02*
X53384D01*
X53304Y22971D01*
X53232Y22929D01*
X53173Y22871D01*
X53132Y22799D01*
X53110Y22719D01*
Y22636D01*
X53132Y22556D01*
X53173Y22484D01*
X53232Y22425D01*
X53304Y22384D01*
X53384Y22362D01*
X53467D01*
X53547Y22384D01*
X53619Y22425D01*
X53677Y22484D01*
X53719Y22556D01*
X53740Y22636D01*
Y22719D01*
X53719Y22799D01*
X53677Y22871D01*
X53619Y22929D01*
X53547Y22971D01*
X53467Y22992D01*
D02*
G37*
G36*
X52482D02*
X52399D01*
X52319Y22971D01*
X52248Y22929D01*
X52189Y22871D01*
X52147Y22799D01*
X52126Y22719D01*
Y22636D01*
X52147Y22556D01*
X52189Y22484D01*
X52248Y22425D01*
X52319Y22384D01*
X52399Y22362D01*
X52482D01*
X52563Y22384D01*
X52634Y22425D01*
X52693Y22484D01*
X52734Y22556D01*
X52756Y22636D01*
Y22719D01*
X52734Y22799D01*
X52693Y22871D01*
X52634Y22929D01*
X52563Y22971D01*
X52482Y22992D01*
D02*
G37*
G36*
X14634Y22354D02*
X13846D01*
X13804Y22346D01*
X13768Y22322D01*
X13232Y21786D01*
X13221Y21793D01*
X13140Y21815D01*
X13056D01*
X12975Y21793D01*
X12964Y21786D01*
X12428Y22322D01*
X12392Y22346D01*
X12350Y22354D01*
X11523D01*
X11481Y22346D01*
X11445Y22322D01*
X10910Y21786D01*
X10898Y21793D01*
X10817Y21815D01*
X10734D01*
X10653Y21793D01*
X10580Y21751D01*
X10521Y21692D01*
X10479Y21619D01*
X10457Y21538D01*
Y21454D01*
X10479Y21373D01*
X10485Y21362D01*
X9410Y20287D01*
X9386Y20251D01*
X9378Y20209D01*
Y17762D01*
X8852Y17236D01*
X2146D01*
Y17539D01*
X1319D01*
Y16713D01*
X2146D01*
Y17016D01*
X8898D01*
X8940Y17024D01*
X8976Y17048D01*
X9566Y17638D01*
X9590Y17674D01*
X9599Y17717D01*
Y20163D01*
X10641Y21206D01*
X10653Y21199D01*
X10734Y21178D01*
X10817D01*
X10898Y21199D01*
X10971Y21241D01*
X11030Y21300D01*
X11072Y21373D01*
X11094Y21454D01*
Y21538D01*
X11072Y21619D01*
X11066Y21630D01*
X11569Y22134D01*
X12305D01*
X12808Y21630D01*
X12801Y21619D01*
X12780Y21538D01*
Y21454D01*
X12801Y21373D01*
X12843Y21300D01*
X12903Y21241D01*
X12975Y21199D01*
X13056Y21178D01*
X13140D01*
X13221Y21199D01*
X13294Y21241D01*
X13353Y21300D01*
X13395Y21373D01*
X13417Y21454D01*
Y21538D01*
X13395Y21619D01*
X13389Y21630D01*
X13892Y22134D01*
X14588D01*
X15091Y21630D01*
X15085Y21619D01*
X15063Y21538D01*
Y21454D01*
X15085Y21373D01*
X15127Y21300D01*
X15186Y21241D01*
X15259Y21199D01*
X15340Y21178D01*
X15424D01*
X15446Y21184D01*
X15520Y21120D01*
Y20237D01*
X15516Y20236D01*
X15449Y20197D01*
X15394Y20142D01*
X15355Y20075D01*
X15335Y20000D01*
Y19922D01*
X15355Y19847D01*
X15394Y19779D01*
X15449Y19724D01*
X15516Y19685D01*
X15591Y19665D01*
X15669D01*
X15744Y19685D01*
X15811Y19724D01*
X15866Y19779D01*
X15905Y19847D01*
X15925Y19922D01*
Y20000D01*
X15905Y20075D01*
X15866Y20142D01*
X15811Y20197D01*
X15744Y20236D01*
X15740Y20237D01*
Y21169D01*
X15732Y21211D01*
X15708Y21247D01*
X15643Y21312D01*
X15679Y21373D01*
X15700Y21454D01*
Y21538D01*
X15679Y21619D01*
X15637Y21692D01*
X15577Y21751D01*
X15505Y21793D01*
X15424Y21815D01*
X15340D01*
X15259Y21793D01*
X15248Y21786D01*
X14712Y22322D01*
X14676Y22346D01*
X14634Y22354D01*
D02*
G37*
G36*
X50653Y22050D02*
X50292D01*
X50200Y22038D01*
X50113Y22002D01*
X50039Y21946D01*
X49983Y21872D01*
X49947Y21785D01*
X49935Y21693D01*
X49947Y21600D01*
X49983Y21514D01*
X50039Y21440D01*
X50113Y21383D01*
X50200Y21348D01*
X50292Y21336D01*
X50653D01*
X50745Y21348D01*
X50831Y21383D01*
X50905Y21440D01*
X50962Y21514D01*
X50998Y21600D01*
X51010Y21693D01*
X50998Y21785D01*
X50962Y21872D01*
X50905Y21946D01*
X50831Y22002D01*
X50745Y22038D01*
X50653Y22050D01*
D02*
G37*
G36*
X18268Y21260D02*
X17717D01*
Y20709D01*
X18268D01*
Y21260D01*
D02*
G37*
G36*
X50514Y21024D02*
X50431D01*
X50351Y21002D01*
X50279Y20961D01*
X50220Y20902D01*
X50179Y20830D01*
X50157Y20750D01*
Y20667D01*
X50179Y20587D01*
X50220Y20515D01*
X50279Y20457D01*
X50351Y20415D01*
X50431Y20394D01*
X50514D01*
X50594Y20415D01*
X50666Y20457D01*
X50724Y20515D01*
X50766Y20587D01*
X50787Y20667D01*
Y20750D01*
X50766Y20830D01*
X50724Y20902D01*
X50666Y20961D01*
X50594Y21002D01*
X50514Y21024D01*
D02*
G37*
G36*
X50653Y20082D02*
X50292D01*
X50200Y20070D01*
X50113Y20034D01*
X50039Y19977D01*
X49983Y19903D01*
X49947Y19817D01*
X49935Y19724D01*
X49947Y19632D01*
X49983Y19546D01*
X50039Y19472D01*
X50113Y19415D01*
X50200Y19379D01*
X50292Y19367D01*
X50653D01*
X50745Y19379D01*
X50831Y19415D01*
X50905Y19472D01*
X50962Y19546D01*
X50998Y19632D01*
X51010Y19724D01*
X50998Y19817D01*
X50962Y19903D01*
X50905Y19977D01*
X50831Y20034D01*
X50745Y20070D01*
X50653Y20082D01*
D02*
G37*
G36*
X33173Y19803D02*
X33064D01*
X32959Y19775D01*
X32864Y19721D01*
X32787Y19644D01*
X32733Y19549D01*
X32705Y19444D01*
Y19335D01*
X32733Y19230D01*
X32787Y19136D01*
X32864Y19059D01*
X32959Y19005D01*
X33064Y18976D01*
X33173D01*
X33278Y19005D01*
X33372Y19059D01*
X33449Y19136D01*
X33503Y19230D01*
X33531Y19335D01*
Y19444D01*
X33503Y19549D01*
X33449Y19644D01*
X33372Y19721D01*
X33278Y19775D01*
X33173Y19803D01*
D02*
G37*
G36*
X18724Y18851D02*
X15984D01*
X15942Y18842D01*
X15906Y18818D01*
X15747Y18659D01*
X15744Y18661D01*
X15669Y18681D01*
X15591D01*
X15516Y18661D01*
X15449Y18622D01*
X15394Y18567D01*
X15355Y18500D01*
X15335Y18425D01*
Y18347D01*
X15355Y18272D01*
X15394Y18205D01*
X15449Y18150D01*
X15516Y18111D01*
X15591Y18091D01*
X15669D01*
X15744Y18111D01*
X15811Y18150D01*
X15866Y18205D01*
X15905Y18272D01*
X15925Y18347D01*
Y18425D01*
X15905Y18500D01*
X15903Y18503D01*
X16030Y18630D01*
X18679D01*
X19103Y18205D01*
X19085Y18135D01*
Y18061D01*
X19104Y17990D01*
X19141Y17926D01*
X19193Y17873D01*
X19257Y17836D01*
X19329Y17817D01*
X19403D01*
X19475Y17836D01*
X19539Y17873D01*
X19591Y17926D01*
X19628Y17990D01*
X19648Y18061D01*
Y18135D01*
X19628Y18207D01*
X19591Y18271D01*
X19539Y18324D01*
X19475Y18361D01*
X19403Y18380D01*
X19329D01*
X19259Y18361D01*
X18802Y18818D01*
X18767Y18842D01*
X18724Y18851D01*
D02*
G37*
G36*
X53467Y19055D02*
X53384D01*
X53304Y19034D01*
X53232Y18992D01*
X53173Y18934D01*
X53132Y18862D01*
X53110Y18782D01*
Y18699D01*
X53132Y18619D01*
X53173Y18547D01*
X53232Y18488D01*
X53304Y18447D01*
X53384Y18425D01*
X53467D01*
X53547Y18447D01*
X53619Y18488D01*
X53677Y18547D01*
X53719Y18619D01*
X53740Y18699D01*
Y18782D01*
X53719Y18862D01*
X53677Y18934D01*
X53619Y18992D01*
X53547Y19034D01*
X53467Y19055D01*
D02*
G37*
G36*
X52482D02*
X52399D01*
X52319Y19034D01*
X52248Y18992D01*
X52189Y18934D01*
X52147Y18862D01*
X52126Y18782D01*
Y18699D01*
X52147Y18619D01*
X52189Y18547D01*
X52248Y18488D01*
X52319Y18447D01*
X52399Y18425D01*
X52482D01*
X52563Y18447D01*
X52634Y18488D01*
X52693Y18547D01*
X52734Y18619D01*
X52756Y18699D01*
Y18782D01*
X52734Y18862D01*
X52693Y18934D01*
X52634Y18992D01*
X52563Y19034D01*
X52482Y19055D01*
D02*
G37*
G36*
X8348Y18892D02*
X8274D01*
X8202Y18873D01*
X8138Y18835D01*
X8086Y18783D01*
X8049Y18719D01*
X8030Y18647D01*
Y18573D01*
X8049Y18502D01*
X8086Y18437D01*
X8138Y18385D01*
X8202Y18348D01*
X8274Y18329D01*
X8348D01*
X8420Y18348D01*
X8484Y18385D01*
X8536Y18437D01*
X8573Y18502D01*
X8593Y18573D01*
Y18647D01*
X8573Y18719D01*
X8536Y18783D01*
X8484Y18835D01*
X8420Y18873D01*
X8348Y18892D01*
D02*
G37*
G36*
X33173Y18803D02*
X33064D01*
X32959Y18775D01*
X32864Y18721D01*
X32787Y18644D01*
X32733Y18549D01*
X32705Y18444D01*
Y18335D01*
X32733Y18230D01*
X32787Y18136D01*
X32864Y18059D01*
X32959Y18005D01*
X33064Y17976D01*
X33173D01*
X33278Y18005D01*
X33372Y18059D01*
X33449Y18136D01*
X33503Y18230D01*
X33531Y18335D01*
Y18444D01*
X33503Y18549D01*
X33449Y18644D01*
X33372Y18721D01*
X33278Y18775D01*
X33173Y18803D01*
D02*
G37*
G36*
X20403Y18380D02*
X20329D01*
X20257Y18361D01*
X20193Y18324D01*
X20141Y18271D01*
X20104Y18207D01*
X20085Y18135D01*
Y18061D01*
X20103Y17992D01*
X17796Y15684D01*
X17772Y15649D01*
X17764Y15606D01*
Y10595D01*
X17392Y10223D01*
X17367Y10238D01*
X17276Y10262D01*
X17181D01*
X17090Y10238D01*
X17008Y10190D01*
X16941Y10124D01*
X16894Y10042D01*
X16869Y9950D01*
Y9856D01*
X16894Y9765D01*
X16941Y9683D01*
X17008Y9616D01*
X17090Y9569D01*
X17181Y9544D01*
X17276D01*
X17367Y9569D01*
X17449Y9616D01*
X17516Y9683D01*
X17563Y9765D01*
X17587Y9856D01*
Y9950D01*
X17563Y10042D01*
X17548Y10067D01*
X17952Y10471D01*
X17976Y10507D01*
X17984Y10549D01*
Y15561D01*
X20259Y17836D01*
X20329Y17817D01*
X20403D01*
X20475Y17836D01*
X20539Y17873D01*
X20591Y17926D01*
X20628Y17990D01*
X20648Y18061D01*
Y18135D01*
X20628Y18207D01*
X20591Y18271D01*
X20539Y18324D01*
X20475Y18361D01*
X20403Y18380D01*
D02*
G37*
G36*
X18403D02*
X18329D01*
X18257Y18361D01*
X18193Y18324D01*
X18141Y18271D01*
X18104Y18207D01*
X18085Y18135D01*
Y18061D01*
X18103Y17992D01*
X17053Y16941D01*
X15906D01*
X15905Y16945D01*
X15866Y17012D01*
X15811Y17067D01*
X15744Y17106D01*
X15669Y17126D01*
X15591D01*
X15516Y17106D01*
X15449Y17067D01*
X15394Y17012D01*
X15355Y16945D01*
X15335Y16870D01*
Y16792D01*
X15355Y16717D01*
X15394Y16649D01*
X15449Y16594D01*
X15516Y16556D01*
X15591Y16535D01*
X15669D01*
X15744Y16556D01*
X15811Y16594D01*
X15866Y16649D01*
X15905Y16717D01*
X15906Y16720D01*
X17098D01*
X17141Y16729D01*
X17176Y16753D01*
X18259Y17836D01*
X18329Y17817D01*
X18403D01*
X18475Y17836D01*
X18539Y17873D01*
X18591Y17926D01*
X18628Y17990D01*
X18648Y18061D01*
Y18135D01*
X18628Y18207D01*
X18591Y18271D01*
X18539Y18324D01*
X18475Y18361D01*
X18403Y18380D01*
D02*
G37*
G36*
X17403D02*
X17329D01*
X17257Y18361D01*
X17193Y18324D01*
X17141Y18271D01*
X17104Y18207D01*
X17085Y18135D01*
Y18061D01*
X17104Y17990D01*
X17141Y17926D01*
X17193Y17873D01*
X17257Y17836D01*
X17329Y17817D01*
X17403D01*
X17475Y17836D01*
X17539Y17873D01*
X17591Y17926D01*
X17628Y17990D01*
X17648Y18061D01*
Y18135D01*
X17628Y18207D01*
X17591Y18271D01*
X17539Y18324D01*
X17475Y18361D01*
X17403Y18380D01*
D02*
G37*
G36*
X48273Y18937D02*
X48145D01*
X48019Y18912D01*
X47901Y18863D01*
X47795Y18792D01*
X47704Y18701D01*
X47633Y18595D01*
X47584Y18477D01*
X47559Y18351D01*
Y18223D01*
X47584Y18098D01*
X47633Y17980D01*
X47704Y17873D01*
X47795Y17783D01*
X47901Y17712D01*
X48019Y17663D01*
X48145Y17638D01*
X48273D01*
X48398Y17663D01*
X48516Y17712D01*
X48623Y17783D01*
X48713Y17873D01*
X48784Y17980D01*
X48833Y18098D01*
X48858Y18223D01*
Y18351D01*
X48833Y18477D01*
X48784Y18595D01*
X48713Y18701D01*
X48623Y18792D01*
X48516Y18863D01*
X48398Y18912D01*
X48273Y18937D01*
D02*
G37*
G36*
X35871D02*
X35743D01*
X35618Y18912D01*
X35499Y18863D01*
X35393Y18792D01*
X35303Y18701D01*
X35231Y18595D01*
X35182Y18477D01*
X35157Y18351D01*
Y18223D01*
X35182Y18098D01*
X35231Y17980D01*
X35303Y17873D01*
X35393Y17783D01*
X35499Y17712D01*
X35618Y17663D01*
X35743Y17638D01*
X35871D01*
X35997Y17663D01*
X36115Y17712D01*
X36221Y17783D01*
X36312Y17873D01*
X36383Y17980D01*
X36432Y18098D01*
X36457Y18223D01*
Y18351D01*
X36432Y18477D01*
X36383Y18595D01*
X36312Y18701D01*
X36221Y18792D01*
X36115Y18863D01*
X35997Y18912D01*
X35871Y18937D01*
D02*
G37*
G36*
X33173Y17803D02*
X33064D01*
X32959Y17775D01*
X32864Y17721D01*
X32787Y17644D01*
X32733Y17549D01*
X32705Y17444D01*
Y17335D01*
X32733Y17230D01*
X32787Y17136D01*
X32864Y17059D01*
X32959Y17005D01*
X33064Y16976D01*
X33173D01*
X33278Y17005D01*
X33372Y17059D01*
X33449Y17136D01*
X33503Y17230D01*
X33531Y17335D01*
Y17444D01*
X33503Y17549D01*
X33449Y17644D01*
X33372Y17721D01*
X33278Y17775D01*
X33173Y17803D01*
D02*
G37*
G36*
X11338Y20256D02*
X11260D01*
X11185Y20236D01*
X11118Y20197D01*
X11063Y20142D01*
X11024Y20075D01*
X11004Y20000D01*
Y19922D01*
X11024Y19847D01*
X11063Y19779D01*
X11118Y19724D01*
X11185Y19685D01*
X11189Y19685D01*
Y18662D01*
X11185Y18661D01*
X11118Y18622D01*
X11063Y18567D01*
X11024Y18500D01*
X11004Y18425D01*
Y18347D01*
X11024Y18272D01*
X11063Y18205D01*
X11118Y18150D01*
X11185Y18111D01*
X11189Y18110D01*
Y17107D01*
X11185Y17106D01*
X11118Y17067D01*
X11063Y17012D01*
X11024Y16945D01*
X11004Y16870D01*
Y16792D01*
X11024Y16717D01*
X11063Y16649D01*
X11118Y16594D01*
X11185Y16556D01*
X11260Y16535D01*
X11338D01*
X11413Y16556D01*
X11481Y16594D01*
X11535Y16649D01*
X11574Y16717D01*
X11594Y16792D01*
Y16870D01*
X11574Y16945D01*
X11535Y17012D01*
X11481Y17067D01*
X11413Y17106D01*
X11410Y17107D01*
Y18110D01*
X11413Y18111D01*
X11481Y18150D01*
X11535Y18205D01*
X11574Y18272D01*
X11594Y18347D01*
Y18425D01*
X11574Y18500D01*
X11535Y18567D01*
X11481Y18622D01*
X11413Y18661D01*
X11410Y18662D01*
Y19685D01*
X11413Y19685D01*
X11481Y19724D01*
X11535Y19779D01*
X11574Y19847D01*
X11594Y19922D01*
Y20000D01*
X11574Y20075D01*
X11535Y20142D01*
X11481Y20197D01*
X11413Y20236D01*
X11338Y20256D01*
D02*
G37*
G36*
X33173Y16803D02*
X33064D01*
X32959Y16775D01*
X32864Y16721D01*
X32787Y16644D01*
X32733Y16549D01*
X32705Y16444D01*
Y16335D01*
X32733Y16230D01*
X32787Y16136D01*
X32864Y16059D01*
X32959Y16005D01*
X33064Y15976D01*
X33173D01*
X33278Y16005D01*
X33372Y16059D01*
X33449Y16136D01*
X33503Y16230D01*
X33531Y16335D01*
Y16444D01*
X33503Y16549D01*
X33449Y16644D01*
X33372Y16721D01*
X33278Y16775D01*
X33173Y16803D01*
D02*
G37*
G36*
X15669Y15571D02*
X15591D01*
X15516Y15551D01*
X15449Y15512D01*
X15394Y15457D01*
X15355Y15390D01*
X15335Y15314D01*
Y15237D01*
X15355Y15162D01*
X15394Y15094D01*
X15449Y15039D01*
X15516Y15000D01*
X15591Y14980D01*
X15669D01*
X15744Y15000D01*
X15811Y15039D01*
X15866Y15094D01*
X15905Y15162D01*
X15925Y15237D01*
Y15314D01*
X15905Y15390D01*
X15866Y15457D01*
X15811Y15512D01*
X15744Y15551D01*
X15669Y15571D01*
D02*
G37*
G36*
X33173Y15803D02*
X33064D01*
X32959Y15775D01*
X32864Y15721D01*
X32787Y15644D01*
X32733Y15549D01*
X32705Y15444D01*
Y15335D01*
X32733Y15230D01*
X32787Y15136D01*
X32864Y15059D01*
X32959Y15005D01*
X33064Y14976D01*
X33173D01*
X33278Y15005D01*
X33372Y15059D01*
X33449Y15136D01*
X33503Y15230D01*
X33531Y15335D01*
Y15444D01*
X33503Y15549D01*
X33449Y15644D01*
X33372Y15721D01*
X33278Y15775D01*
X33173Y15803D01*
D02*
G37*
G36*
X21403Y15254D02*
X21329D01*
X21257Y15235D01*
X21193Y15198D01*
X21141Y15145D01*
X21104Y15081D01*
X21085Y15009D01*
Y14935D01*
X21104Y14864D01*
X21141Y14800D01*
X21193Y14747D01*
X21257Y14710D01*
X21329Y14691D01*
X21403D01*
X21475Y14710D01*
X21539Y14747D01*
X21591Y14800D01*
X21628Y14864D01*
X21648Y14935D01*
Y15009D01*
X21628Y15081D01*
X21591Y15145D01*
X21539Y15198D01*
X21475Y15235D01*
X21403Y15254D01*
D02*
G37*
G36*
X20403D02*
X20329D01*
X20257Y15235D01*
X20193Y15198D01*
X20141Y15145D01*
X20104Y15081D01*
X20085Y15009D01*
Y14935D01*
X20104Y14864D01*
X20141Y14800D01*
X20193Y14747D01*
X20257Y14710D01*
X20329Y14691D01*
X20403D01*
X20475Y14710D01*
X20539Y14747D01*
X20591Y14800D01*
X20628Y14864D01*
X20648Y14935D01*
Y15009D01*
X20628Y15081D01*
X20591Y15145D01*
X20539Y15198D01*
X20475Y15235D01*
X20403Y15254D01*
D02*
G37*
G36*
X33173Y14803D02*
X33064D01*
X32959Y14775D01*
X32864Y14721D01*
X32787Y14644D01*
X32733Y14549D01*
X32705Y14444D01*
Y14335D01*
X32733Y14230D01*
X32787Y14136D01*
X32864Y14059D01*
X32959Y14005D01*
X33064Y13976D01*
X33173D01*
X33278Y14005D01*
X33372Y14059D01*
X33449Y14136D01*
X33503Y14230D01*
X33531Y14335D01*
Y14444D01*
X33503Y14549D01*
X33449Y14644D01*
X33372Y14721D01*
X33278Y14775D01*
X33173Y14803D01*
D02*
G37*
G36*
X5157Y14311D02*
X5079D01*
X5004Y14291D01*
X4937Y14252D01*
X4882Y14197D01*
X4843Y14130D01*
X4823Y14055D01*
Y13977D01*
X4843Y13902D01*
X4882Y13834D01*
X4937Y13779D01*
X5004Y13741D01*
X5079Y13720D01*
X5157D01*
X5232Y13741D01*
X5299Y13779D01*
X5354Y13834D01*
X5393Y13902D01*
X5413Y13977D01*
Y14055D01*
X5393Y14130D01*
X5354Y14197D01*
X5299Y14252D01*
X5232Y14291D01*
X5157Y14311D01*
D02*
G37*
G36*
X33173Y13803D02*
X33064D01*
X32959Y13775D01*
X32864Y13721D01*
X32787Y13644D01*
X32733Y13549D01*
X32705Y13444D01*
Y13335D01*
X32733Y13230D01*
X32787Y13136D01*
X32864Y13059D01*
X32959Y13005D01*
X33064Y12976D01*
X33173D01*
X33278Y13005D01*
X33372Y13059D01*
X33449Y13136D01*
X33503Y13230D01*
X33531Y13335D01*
Y13444D01*
X33503Y13549D01*
X33449Y13644D01*
X33372Y13721D01*
X33278Y13775D01*
X33173Y13803D01*
D02*
G37*
G36*
X9488Y14311D02*
X9410D01*
X9335Y14291D01*
X9268Y14252D01*
X9213Y14197D01*
X9174Y14130D01*
X9154Y14055D01*
Y13977D01*
X9174Y13902D01*
X9213Y13834D01*
X9268Y13779D01*
X9335Y13741D01*
X9410Y13720D01*
X9488D01*
X9563Y13741D01*
X9566Y13742D01*
X10237Y13072D01*
X10273Y13048D01*
X10315Y13039D01*
X11318D01*
X11321Y13028D01*
X11362Y12956D01*
X11421Y12898D01*
X11493Y12856D01*
X11573Y12835D01*
X11656D01*
X11736Y12856D01*
X11807Y12898D01*
X11866Y12956D01*
X11907Y13028D01*
X11929Y13108D01*
Y13191D01*
X11907Y13271D01*
X11866Y13343D01*
X11807Y13401D01*
X11736Y13443D01*
X11656Y13464D01*
X11573D01*
X11493Y13443D01*
X11421Y13401D01*
X11362Y13343D01*
X11321Y13271D01*
X11318Y13260D01*
X10361D01*
X9722Y13899D01*
X9724Y13902D01*
X9744Y13977D01*
Y14055D01*
X9724Y14130D01*
X9685Y14197D01*
X9630Y14252D01*
X9563Y14291D01*
X9488Y14311D01*
D02*
G37*
G36*
X5118Y12933D02*
X5040D01*
X4965Y12913D01*
X4897Y12874D01*
X4842Y12819D01*
X4804Y12752D01*
X4783Y12677D01*
Y12599D01*
X4804Y12524D01*
X4842Y12456D01*
X4897Y12402D01*
X4965Y12363D01*
X5040Y12343D01*
X5118D01*
X5193Y12363D01*
X5260Y12402D01*
X5315Y12456D01*
X5354Y12524D01*
X5374Y12599D01*
Y12677D01*
X5354Y12752D01*
X5315Y12819D01*
X5260Y12874D01*
X5193Y12913D01*
X5118Y12933D01*
D02*
G37*
G36*
X33173Y12803D02*
X33064D01*
X32959Y12775D01*
X32864Y12721D01*
X32787Y12644D01*
X32733Y12549D01*
X32705Y12444D01*
Y12335D01*
X32733Y12230D01*
X32787Y12136D01*
X32864Y12059D01*
X32959Y12005D01*
X33064Y11976D01*
X33173D01*
X33278Y12005D01*
X33372Y12059D01*
X33449Y12136D01*
X33503Y12230D01*
X33531Y12335D01*
Y12444D01*
X33503Y12549D01*
X33449Y12644D01*
X33372Y12721D01*
X33278Y12775D01*
X33173Y12803D01*
D02*
G37*
G36*
X17648Y15254D02*
X17085D01*
Y14691D01*
X17256D01*
Y11821D01*
X17163Y11728D01*
X17072Y11766D01*
Y13346D01*
X17053Y13392D01*
X17008Y13410D01*
X15945D01*
X15900Y13392D01*
X15881Y13346D01*
Y13243D01*
X15842Y13219D01*
X15783Y13207D01*
X15712Y13277D01*
X15609Y13337D01*
X15493Y13368D01*
X15373D01*
X15258Y13337D01*
X15154Y13277D01*
X15069Y13193D01*
X15009Y13089D01*
X14986Y13003D01*
X14888Y13016D01*
Y13368D01*
X14134D01*
X13275Y14228D01*
X13239Y14252D01*
X13197Y14260D01*
X11910D01*
X11907Y14271D01*
X11866Y14343D01*
X11807Y14401D01*
X11736Y14443D01*
X11656Y14464D01*
X11573D01*
X11493Y14443D01*
X11421Y14401D01*
X11362Y14343D01*
X11321Y14271D01*
X11300Y14191D01*
Y14108D01*
X11321Y14028D01*
X11362Y13956D01*
X11421Y13898D01*
X11493Y13856D01*
X11573Y13835D01*
X11656D01*
X11736Y13856D01*
X11807Y13898D01*
X11866Y13956D01*
X11907Y14028D01*
X11910Y14039D01*
X13151D01*
X13978Y13212D01*
Y12459D01*
X14888D01*
Y12811D01*
X14986Y12824D01*
X15009Y12738D01*
X15069Y12634D01*
X15154Y12550D01*
X15258Y12490D01*
X15373Y12459D01*
X15493D01*
X15609Y12490D01*
X15712Y12550D01*
X15783Y12620D01*
X15842Y12608D01*
X15881Y12584D01*
Y12229D01*
X11929D01*
X11884Y12211D01*
X11865Y12165D01*
Y11899D01*
X11364D01*
Y12165D01*
X11345Y12211D01*
X11300Y12229D01*
X9985D01*
Y13071D01*
X9966Y13116D01*
X9921Y13135D01*
X8937D01*
X8892Y13116D01*
X8873Y13071D01*
Y11181D01*
X8892Y11136D01*
X8937Y11117D01*
X16423D01*
X16461Y11026D01*
X16150Y10716D01*
X16126Y10680D01*
X16118Y10638D01*
Y10245D01*
X16090Y10238D01*
X16008Y10190D01*
X15941Y10124D01*
X15894Y10042D01*
X15869Y9950D01*
Y9856D01*
X15894Y9765D01*
X15941Y9683D01*
X16008Y9616D01*
X16090Y9569D01*
X16181Y9544D01*
X16276D01*
X16367Y9569D01*
X16449Y9616D01*
X16516Y9683D01*
X16563Y9765D01*
X16587Y9856D01*
Y9950D01*
X16563Y10042D01*
X16516Y10124D01*
X16449Y10190D01*
X16367Y10238D01*
X16339Y10245D01*
Y10592D01*
X17444Y11698D01*
X17468Y11733D01*
X17477Y11776D01*
Y14691D01*
X17648D01*
Y15254D01*
D02*
G37*
G36*
X23150Y11988D02*
X22598D01*
Y11437D01*
X23150D01*
Y11988D01*
D02*
G37*
G36*
X19877Y10076D02*
X19244D01*
Y9443D01*
X19877D01*
Y10076D01*
D02*
G37*
G36*
X26702Y9076D02*
X26619D01*
X26538Y9055D01*
X26466Y9013D01*
X26407Y8954D01*
X26365Y8882D01*
X26344Y8802D01*
Y8718D01*
X26365Y8638D01*
X26407Y8565D01*
X26466Y8507D01*
X26538Y8465D01*
X26619Y8443D01*
X26702D01*
X26782Y8465D01*
X26855Y8507D01*
X26914Y8565D01*
X26955Y8638D01*
X26977Y8718D01*
Y8802D01*
X26955Y8882D01*
X26914Y8954D01*
X26855Y9013D01*
X26782Y9055D01*
X26702Y9076D01*
D02*
G37*
G36*
Y8076D02*
X26619D01*
X26538Y8055D01*
X26466Y8013D01*
X26407Y7954D01*
X26365Y7882D01*
X26344Y7802D01*
Y7718D01*
X26365Y7638D01*
X26407Y7565D01*
X26466Y7507D01*
X26538Y7465D01*
X26619Y7443D01*
X26702D01*
X26782Y7465D01*
X26855Y7507D01*
X26914Y7565D01*
X26955Y7638D01*
X26977Y7718D01*
Y7802D01*
X26955Y7882D01*
X26914Y7954D01*
X26855Y8013D01*
X26782Y8055D01*
X26702Y8076D01*
D02*
G37*
G36*
Y7076D02*
X26619D01*
X26538Y7055D01*
X26466Y7013D01*
X26407Y6954D01*
X26365Y6882D01*
X26344Y6802D01*
Y6718D01*
X26365Y6638D01*
X26407Y6565D01*
X26466Y6507D01*
X26538Y6465D01*
X26619Y6443D01*
X26702D01*
X26782Y6465D01*
X26855Y6507D01*
X26914Y6565D01*
X26955Y6638D01*
X26977Y6718D01*
Y6802D01*
X26955Y6882D01*
X26914Y6954D01*
X26855Y7013D01*
X26782Y7055D01*
X26702Y7076D01*
D02*
G37*
G36*
Y6076D02*
X26619D01*
X26538Y6055D01*
X26466Y6013D01*
X26407Y5954D01*
X26365Y5882D01*
X26344Y5802D01*
Y5718D01*
X26365Y5638D01*
X26407Y5565D01*
X26466Y5507D01*
X26538Y5465D01*
X26619Y5443D01*
X26702D01*
X26782Y5465D01*
X26855Y5507D01*
X26914Y5565D01*
X26955Y5638D01*
X26977Y5718D01*
Y5802D01*
X26955Y5882D01*
X26914Y5954D01*
X26855Y6013D01*
X26782Y6055D01*
X26702Y6076D01*
D02*
G37*
G36*
X7348Y15766D02*
X7274D01*
X7202Y15747D01*
X7138Y15710D01*
X7086Y15657D01*
X7049Y15593D01*
X7030Y15521D01*
Y15447D01*
X7049Y15376D01*
X7086Y15311D01*
X7138Y15259D01*
X7202Y15222D01*
X7211Y15220D01*
Y10316D01*
X7220Y10274D01*
X7244Y10238D01*
X15335Y2146D01*
X15371Y2122D01*
X15413Y2114D01*
X27461D01*
X27503Y2122D01*
X27539Y2146D01*
X28393Y3001D01*
X28417Y3037D01*
X28426Y3079D01*
Y4254D01*
X29652Y5480D01*
X30197D01*
X30217Y5432D01*
X30267Y5366D01*
X30333Y5315D01*
X30410Y5284D01*
X30492Y5273D01*
X31004D01*
X31086Y5284D01*
X31163Y5315D01*
X31229Y5366D01*
X31279Y5432D01*
X31311Y5508D01*
X31322Y5591D01*
X31311Y5673D01*
X31279Y5749D01*
X31229Y5815D01*
X31163Y5866D01*
X31086Y5897D01*
X31004Y5908D01*
X30492D01*
X30410Y5897D01*
X30333Y5866D01*
X30267Y5815D01*
X30217Y5749D01*
X30197Y5701D01*
X29606D01*
X29564Y5693D01*
X29528Y5669D01*
X28237Y4377D01*
X28213Y4342D01*
X28205Y4299D01*
Y3125D01*
X27415Y2335D01*
X15459D01*
X7432Y10362D01*
Y15229D01*
X7484Y15259D01*
X7536Y15311D01*
X7573Y15376D01*
X7593Y15447D01*
Y15521D01*
X7573Y15593D01*
X7536Y15657D01*
X7484Y15710D01*
X7420Y15747D01*
X7348Y15766D01*
D02*
G37*
G36*
X26702Y5076D02*
X26619D01*
X26538Y5055D01*
X26466Y5013D01*
X26407Y4954D01*
X26365Y4882D01*
X26344Y4802D01*
Y4718D01*
X26365Y4638D01*
X26407Y4565D01*
X26466Y4507D01*
X26538Y4465D01*
X26619Y4443D01*
X26702D01*
X26782Y4465D01*
X26855Y4507D01*
X26914Y4565D01*
X26955Y4638D01*
X26977Y4718D01*
Y4802D01*
X26955Y4882D01*
X26914Y4954D01*
X26855Y5013D01*
X26782Y5055D01*
X26702Y5076D01*
D02*
G37*
G36*
X19602D02*
X19519D01*
X19438Y5055D01*
X19366Y5013D01*
X19307Y4954D01*
X19265Y4882D01*
X19244Y4802D01*
Y4718D01*
X19265Y4638D01*
X19307Y4565D01*
X19366Y4507D01*
X19438Y4465D01*
X19519Y4443D01*
X19602D01*
X19682Y4465D01*
X19755Y4507D01*
X19814Y4565D01*
X19855Y4638D01*
X19877Y4718D01*
Y4802D01*
X19855Y4882D01*
X19814Y4954D01*
X19755Y5013D01*
X19682Y5055D01*
X19602Y5076D01*
D02*
G37*
G36*
X16276Y3727D02*
X16181D01*
X16090Y3702D01*
X16008Y3655D01*
X15941Y3588D01*
X15894Y3506D01*
X15869Y3415D01*
Y3320D01*
X15894Y3229D01*
X15941Y3147D01*
X16008Y3080D01*
X16090Y3033D01*
X16181Y3009D01*
X16276D01*
X16367Y3033D01*
X16449Y3080D01*
X16516Y3147D01*
X16563Y3229D01*
X16587Y3320D01*
Y3415D01*
X16563Y3506D01*
X16516Y3588D01*
X16449Y3655D01*
X16367Y3702D01*
X16276Y3727D01*
D02*
G37*
G36*
X15276D02*
X15181D01*
X15090Y3702D01*
X15008Y3655D01*
X14941Y3588D01*
X14894Y3506D01*
X14869Y3415D01*
Y3320D01*
X14894Y3229D01*
X14941Y3147D01*
X15008Y3080D01*
X15090Y3033D01*
X15181Y3009D01*
X15276D01*
X15367Y3033D01*
X15449Y3080D01*
X15516Y3147D01*
X15563Y3229D01*
X15587Y3320D01*
Y3415D01*
X15563Y3506D01*
X15516Y3588D01*
X15449Y3655D01*
X15367Y3702D01*
X15276Y3727D01*
D02*
G37*
G36*
X26702Y3076D02*
X26619D01*
X26538Y3055D01*
X26466Y3013D01*
X26407Y2954D01*
X26365Y2882D01*
X26344Y2802D01*
Y2718D01*
X26365Y2638D01*
X26407Y2565D01*
X26466Y2507D01*
X26538Y2465D01*
X26619Y2443D01*
X26702D01*
X26782Y2465D01*
X26855Y2507D01*
X26914Y2565D01*
X26955Y2638D01*
X26977Y2718D01*
Y2802D01*
X26955Y2882D01*
X26914Y2954D01*
X26855Y3013D01*
X26782Y3055D01*
X26702Y3076D01*
D02*
G37*
G36*
X19602D02*
X19519D01*
X19438Y3055D01*
X19366Y3013D01*
X19307Y2954D01*
X19265Y2882D01*
X19244Y2802D01*
Y2718D01*
X19265Y2638D01*
X19307Y2565D01*
X19366Y2507D01*
X19438Y2465D01*
X19519Y2443D01*
X19602D01*
X19682Y2465D01*
X19755Y2507D01*
X19814Y2565D01*
X19855Y2638D01*
X19877Y2718D01*
Y2802D01*
X19855Y2882D01*
X19814Y2954D01*
X19755Y3013D01*
X19682Y3055D01*
X19602Y3076D01*
D02*
G37*
G36*
X54178Y1870D02*
X54011D01*
X53848Y1838D01*
X53694Y1774D01*
X53555Y1681D01*
X53437Y1563D01*
X53344Y1425D01*
X53281Y1271D01*
X53248Y1107D01*
Y940D01*
X53281Y777D01*
X53344Y623D01*
X53437Y484D01*
X53555Y366D01*
X53694Y273D01*
X53848Y210D01*
X54011Y177D01*
X54178D01*
X54341Y210D01*
X54495Y273D01*
X54634Y366D01*
X54752Y484D01*
X54845Y623D01*
X54908Y777D01*
X54941Y940D01*
Y1107D01*
X54908Y1271D01*
X54845Y1425D01*
X54752Y1563D01*
X54634Y1681D01*
X54495Y1774D01*
X54341Y1838D01*
X54178Y1870D01*
D02*
G37*
G36*
X1107D02*
X940D01*
X777Y1838D01*
X623Y1774D01*
X484Y1681D01*
X366Y1563D01*
X273Y1425D01*
X210Y1271D01*
X177Y1107D01*
Y940D01*
X210Y777D01*
X273Y623D01*
X366Y484D01*
X484Y366D01*
X623Y273D01*
X777Y210D01*
X940Y177D01*
X1107D01*
X1271Y210D01*
X1425Y273D01*
X1563Y366D01*
X1681Y484D01*
X1774Y623D01*
X1838Y777D01*
X1870Y940D01*
Y1107D01*
X1838Y1271D01*
X1774Y1425D01*
X1681Y1563D01*
X1563Y1681D01*
X1425Y1774D01*
X1271Y1838D01*
X1107Y1870D01*
D02*
G37*
%LPD*%
G36*
X32038Y50660D02*
X31968Y50591D01*
X21417D01*
X13898Y43071D01*
X1417D01*
Y47362D01*
X11614D01*
X18976Y54724D01*
X32003Y54724D01*
X32038Y50660D01*
D02*
G37*
G36*
X32077Y43062D02*
X32008Y42992D01*
X21457D01*
X13937Y35472D01*
X1457D01*
Y39764D01*
X11654D01*
X19016Y47126D01*
X32042Y47126D01*
X32077Y43062D01*
D02*
G37*
G36*
Y35582D02*
X32008Y35512D01*
X17598D01*
X15157Y33071D01*
X4134D01*
Y31063D01*
X1457Y31063D01*
Y33071D01*
Y34724D01*
X14094D01*
X19016Y39646D01*
X32042Y39646D01*
X32077Y35582D01*
D02*
G37*
G36*
X3898Y51417D02*
X1260D01*
Y28937D01*
X4134D01*
Y27559D01*
X197D01*
Y54724D01*
X3898D01*
Y51417D01*
D02*
G37*
%LPC*%
G36*
X27747Y53406D02*
X27611D01*
X27478Y53379D01*
X27353Y53327D01*
X27240Y53252D01*
X27144Y53156D01*
X27069Y53043D01*
X27017Y52917D01*
X26990Y52784D01*
Y52649D01*
X27017Y52516D01*
X27069Y52390D01*
X27144Y52277D01*
X27240Y52181D01*
X27353Y52106D01*
X27478Y52054D01*
X27611Y52028D01*
X27747D01*
X27880Y52054D01*
X28005Y52106D01*
X28118Y52181D01*
X28214Y52277D01*
X28290Y52390D01*
X28342Y52516D01*
X28368Y52649D01*
Y52784D01*
X28342Y52917D01*
X28290Y53043D01*
X28214Y53156D01*
X28118Y53252D01*
X28005Y53327D01*
X27880Y53379D01*
X27747Y53406D01*
D02*
G37*
G36*
X5853Y45807D02*
X5718D01*
X5584Y45781D01*
X5459Y45729D01*
X5346Y45653D01*
X5250Y45557D01*
X5175Y45444D01*
X5123Y45319D01*
X5096Y45186D01*
Y45050D01*
X5123Y44917D01*
X5175Y44792D01*
X5250Y44679D01*
X5346Y44583D01*
X5459Y44508D01*
X5584Y44456D01*
X5718Y44429D01*
X5853D01*
X5986Y44456D01*
X6112Y44508D01*
X6225Y44583D01*
X6321Y44679D01*
X6396Y44792D01*
X6448Y44917D01*
X6474Y45050D01*
Y45186D01*
X6448Y45319D01*
X6396Y45444D01*
X6321Y45557D01*
X6225Y45653D01*
X6112Y45729D01*
X5986Y45781D01*
X5853Y45807D01*
D02*
G37*
G36*
X27747D02*
X27611D01*
X27478Y45781D01*
X27353Y45729D01*
X27240Y45653D01*
X27144Y45557D01*
X27069Y45444D01*
X27017Y45319D01*
X26990Y45186D01*
Y45050D01*
X27017Y44917D01*
X27069Y44792D01*
X27144Y44679D01*
X27240Y44583D01*
X27353Y44508D01*
X27478Y44456D01*
X27611Y44429D01*
X27747D01*
X27880Y44456D01*
X28005Y44508D01*
X28118Y44583D01*
X28214Y44679D01*
X28290Y44792D01*
X28342Y44917D01*
X28368Y45050D01*
Y45186D01*
X28342Y45319D01*
X28290Y45444D01*
X28214Y45557D01*
X28118Y45653D01*
X28005Y45729D01*
X27880Y45781D01*
X27747Y45807D01*
D02*
G37*
G36*
X5853Y38209D02*
X5718D01*
X5584Y38182D01*
X5459Y38130D01*
X5346Y38055D01*
X5250Y37959D01*
X5175Y37846D01*
X5123Y37721D01*
X5096Y37588D01*
Y37452D01*
X5123Y37319D01*
X5175Y37193D01*
X5250Y37080D01*
X5346Y36985D01*
X5459Y36909D01*
X5584Y36857D01*
X5718Y36831D01*
X5853D01*
X5986Y36857D01*
X6112Y36909D01*
X6225Y36985D01*
X6321Y37080D01*
X6396Y37193D01*
X6448Y37319D01*
X6474Y37452D01*
Y37588D01*
X6448Y37721D01*
X6396Y37846D01*
X6321Y37959D01*
X6225Y38055D01*
X6112Y38130D01*
X5986Y38182D01*
X5853Y38209D01*
D02*
G37*
G36*
X27747D02*
X27611D01*
X27478Y38182D01*
X27353Y38130D01*
X27240Y38055D01*
X27144Y37959D01*
X27069Y37846D01*
X27017Y37721D01*
X26990Y37588D01*
Y37452D01*
X27017Y37319D01*
X27069Y37193D01*
X27144Y37080D01*
X27240Y36985D01*
X27353Y36909D01*
X27478Y36857D01*
X27611Y36831D01*
X27747D01*
X27880Y36857D01*
X28005Y36909D01*
X28118Y36985D01*
X28214Y37080D01*
X28290Y37193D01*
X28342Y37319D01*
X28368Y37452D01*
Y37588D01*
X28342Y37721D01*
X28290Y37846D01*
X28214Y37959D01*
X28118Y38055D01*
X28005Y38130D01*
X27880Y38182D01*
X27747Y38209D01*
D02*
G37*
%LPD*%
G36*
X33937Y30827D02*
X32362D01*
Y32047D01*
X25079D01*
X25079Y23701D01*
X23622D01*
Y24646D01*
X24488D01*
Y29764D01*
X23346D01*
X19094Y25512D01*
Y24724D01*
X17244D01*
Y25276D01*
X22717Y30748D01*
Y31693D01*
Y32441D01*
X18898D01*
Y30984D01*
X18346D01*
Y32874D01*
X33937D01*
Y30827D01*
D02*
G37*
G36*
X22653Y31693D02*
Y30775D01*
X20787Y28909D01*
X20778Y28910D01*
X20694Y28955D01*
Y30039D01*
X20675Y30085D01*
X20630Y30103D01*
X18489D01*
X18489Y30906D01*
X18499Y30920D01*
X18898D01*
X18943Y30939D01*
X18962Y30984D01*
Y32377D01*
X22653D01*
Y31693D01*
D02*
G37*
G36*
X30834Y23517D02*
Y22958D01*
X30744Y22920D01*
X27478Y26186D01*
X27503Y26230D01*
X27531Y26335D01*
Y26444D01*
X27503Y26549D01*
X27449Y26644D01*
X27372Y26721D01*
X27278Y26775D01*
X27173Y26803D01*
X27064D01*
X26959Y26775D01*
X26864Y26721D01*
X26787Y26644D01*
X26733Y26549D01*
X26705Y26444D01*
Y26335D01*
X26733Y26230D01*
X26758Y26186D01*
X25799Y25227D01*
X25753Y25235D01*
X25701Y25263D01*
Y25816D01*
X26914Y27030D01*
X26959Y27005D01*
X27064Y26976D01*
X27173D01*
X27278Y27005D01*
X27322Y27030D01*
X30834Y23517D01*
D02*
G37*
G36*
X17559Y30906D02*
X18425D01*
X18425Y29404D01*
X18425Y30039D01*
X20630D01*
Y28925D01*
X20610Y28917D01*
X18425D01*
X18425Y26929D01*
X16890Y25394D01*
X16890Y24409D01*
X15748D01*
Y26220D01*
X16772Y26220D01*
X17795Y27244D01*
Y30472D01*
X17008D01*
Y32874D01*
X17559D01*
Y30906D01*
D02*
G37*
G36*
X30677Y22675D02*
Y22116D01*
X30586Y22078D01*
X27478Y25186D01*
X27503Y25230D01*
X27531Y25335D01*
Y25444D01*
X27503Y25549D01*
X27449Y25644D01*
X27372Y25721D01*
X27278Y25775D01*
X27173Y25803D01*
X27064D01*
X26959Y25775D01*
X26864Y25721D01*
X26787Y25644D01*
X26733Y25549D01*
X26705Y25444D01*
Y25335D01*
X26733Y25230D01*
X26787Y25136D01*
X26789Y25134D01*
X26075Y24420D01*
X26029Y24428D01*
X25977Y24455D01*
Y25092D01*
X26914Y26030D01*
X26959Y26005D01*
X27064Y25976D01*
X27173D01*
X27278Y26005D01*
X27322Y26030D01*
X30677Y22675D01*
D02*
G37*
G36*
X26833Y27771D02*
X26848Y27705D01*
X26787Y27644D01*
X26733Y27549D01*
X26705Y27444D01*
Y27335D01*
X26733Y27230D01*
X26758Y27186D01*
X25512Y25940D01*
X25504Y25928D01*
X25406Y25954D01*
Y26549D01*
X26660Y27803D01*
X26813D01*
X26833Y27771D01*
D02*
G37*
G36*
X42556Y22091D02*
X42518Y22000D01*
X33452D01*
X33412Y22099D01*
X33449Y22136D01*
X33503Y22230D01*
X33516Y22279D01*
X42368D01*
X42556Y22091D01*
D02*
G37*
G36*
X42820Y21591D02*
X42782Y21500D01*
X33516D01*
X33503Y21549D01*
X33449Y21644D01*
X33412Y21681D01*
X33452Y21779D01*
X42631D01*
X42820Y21591D01*
D02*
G37*
G36*
X16890Y30276D02*
X17677D01*
Y28543D01*
X14291D01*
Y27480D01*
Y24882D01*
X13740Y24331D01*
X8858D01*
Y21772D01*
X8268Y21181D01*
X7717D01*
Y21142D01*
Y18189D01*
X7165D01*
X6614Y18740D01*
Y21181D01*
Y21299D01*
X7677Y22362D01*
Y22598D01*
Y25157D01*
X9055Y26181D01*
X10669D01*
Y27480D01*
Y30276D01*
X15827D01*
Y32874D01*
X16890D01*
Y30276D01*
D02*
G37*
G36*
X26733Y21230D02*
X26787Y21136D01*
X26834Y21090D01*
X26847Y21009D01*
X26832Y20964D01*
X25949Y20082D01*
X25858Y20120D01*
Y20978D01*
X26160Y21279D01*
X26720D01*
X26733Y21230D01*
D02*
G37*
G36*
X26705Y20386D02*
Y20335D01*
X26733Y20230D01*
X26758Y20186D01*
X26127Y19554D01*
X26036Y19592D01*
Y19856D01*
X26606Y20427D01*
X26705Y20386D01*
D02*
G37*
G36*
X23236Y19360D02*
Y19094D01*
X23244Y19052D01*
X23268Y19016D01*
X23623Y18662D01*
X23630Y18657D01*
X23653Y18564D01*
X23651Y18539D01*
X23473Y18361D01*
X23403Y18380D01*
X23329D01*
X23257Y18361D01*
X23193Y18324D01*
X23141Y18271D01*
X23105Y18209D01*
X22627D01*
X22591Y18271D01*
X22539Y18324D01*
X22475Y18361D01*
X22403Y18380D01*
X22329D01*
X22257Y18361D01*
X22193Y18324D01*
X22141Y18271D01*
X22104Y18207D01*
X22085Y18135D01*
Y18061D01*
X22104Y17990D01*
X22141Y17926D01*
X22193Y17873D01*
X22257Y17836D01*
X22329Y17817D01*
X22403D01*
X22475Y17836D01*
X22539Y17873D01*
X22591Y17926D01*
X22627Y17988D01*
X23105D01*
X23141Y17926D01*
X23193Y17873D01*
X23257Y17836D01*
X23329Y17817D01*
X23403D01*
X23475Y17836D01*
X23539Y17873D01*
X23591Y17926D01*
X23628Y17990D01*
X23648Y18061D01*
Y18135D01*
X23629Y18205D01*
X23896Y18472D01*
X24294D01*
X24306Y18374D01*
X24257Y18361D01*
X24193Y18324D01*
X24141Y18271D01*
X24104Y18207D01*
X24085Y18135D01*
Y18061D01*
X24104Y17990D01*
X24141Y17926D01*
X24193Y17873D01*
X24257Y17836D01*
X24329Y17817D01*
X24403D01*
X24475Y17836D01*
X24539Y17873D01*
X24591Y17926D01*
X24628Y17990D01*
X24648Y18061D01*
Y18135D01*
X24628Y18207D01*
X24591Y18271D01*
X24539Y18324D01*
X24475Y18361D01*
X24426Y18374D01*
X24439Y18472D01*
X24921D01*
X24964Y18481D01*
X24999Y18505D01*
X25724Y19229D01*
X25815Y19192D01*
Y18806D01*
X24285Y17276D01*
X22290D01*
X21921Y17644D01*
Y18458D01*
X22740Y19277D01*
X22751Y19270D01*
X22832Y19248D01*
X22916D01*
X22997Y19270D01*
X23070Y19312D01*
X23129Y19371D01*
X23138Y19387D01*
X23236Y19360D01*
D02*
G37*
G36*
X26614Y12795D02*
X27717D01*
Y11614D01*
X26220D01*
X25433Y12402D01*
Y15472D01*
X26378Y16417D01*
X26614D01*
Y12795D01*
D02*
G37*
G36*
X14449Y30512D02*
X7598D01*
Y27638D01*
X6339D01*
Y32677D01*
X14449D01*
Y30512D01*
D02*
G37*
G36*
X17008Y11573D02*
X16616Y11181D01*
X8937D01*
Y13071D01*
X9921D01*
Y12165D01*
X11300D01*
Y11835D01*
X11929D01*
Y12165D01*
X15945D01*
Y13346D01*
X17008D01*
Y11573D01*
D02*
G37*
D18*
X53425Y22677D02*
D03*
X52441D02*
D03*
X53425Y18740D02*
D03*
X52441D02*
D03*
X50472Y20709D02*
D03*
D60*
X1693Y23268D02*
Y23268D01*
X5157Y26732D01*
X5978D01*
X1249Y25264D02*
X1665D01*
X1693Y25236D01*
X591Y24606D02*
X1249Y25264D01*
X591Y17126D02*
Y24606D01*
Y17126D02*
X2232Y15484D01*
X5311D01*
X5978Y26732D02*
X6613Y26097D01*
X51282Y9449D02*
X52520D01*
X54350Y11280D01*
Y15925D01*
X52447Y9626D02*
X54193Y11372D01*
X54035Y11437D02*
Y15795D01*
X45357Y9803D02*
X52402D01*
X45453Y9626D02*
X52447D01*
X54193Y11372D02*
Y15860D01*
X52402Y9803D02*
X54035Y11437D01*
X26948Y22874D02*
X29016D01*
X24860Y20786D02*
X26948Y22874D01*
X24860Y19567D02*
Y20786D01*
X26142Y22323D02*
Y24331D01*
X24659Y21063D02*
X25866Y22270D01*
X21636Y21063D02*
X24659D01*
X21181Y20669D02*
X24488D01*
X26142Y22323D01*
X25866Y22270D02*
Y25138D01*
X26114Y21390D02*
X27118D01*
X25591Y21220D02*
X26260Y21890D01*
X25748Y19409D02*
Y21024D01*
X25591Y19528D02*
Y21220D01*
X26260Y21890D02*
X29685D01*
X25748Y21024D02*
X26114Y21390D01*
X50520Y22677D02*
X51858Y24016D01*
X53661D01*
X50472Y22677D02*
X50520D01*
X53661Y24016D02*
X54291Y24646D01*
X49685Y24401D02*
X49882Y24598D01*
X49685Y19347D02*
X50292Y18740D01*
X49882Y24598D02*
Y24646D01*
X49685Y19347D02*
Y24401D01*
X49882Y24646D02*
X51352Y26115D01*
X50292Y18740D02*
X50472D01*
X52822Y26115D02*
X54291Y24646D01*
X52822Y26115D02*
Y28976D01*
X51352Y26115D02*
Y28976D01*
X47638Y17165D02*
X53110D01*
X53045Y17008D02*
X54193Y15860D01*
X52980Y16850D02*
X54035Y15795D01*
X47559Y17008D02*
X53045D01*
X47480Y16850D02*
X52980D01*
X53110Y17165D02*
X54350Y15925D01*
X33118Y22390D02*
X42413D01*
X47638Y17165D01*
X33118Y21390D02*
X42941D01*
X42677Y21890D02*
X47559Y17008D01*
X32520Y21890D02*
X42677D01*
X42941Y21390D02*
X47480Y16850D01*
X18898Y7677D02*
X19331Y7244D01*
X19961D02*
X20157Y7047D01*
X19331Y7244D02*
X19961D01*
X20157Y6357D02*
Y7047D01*
X18366Y7697D02*
Y14972D01*
X19501Y6819D02*
X19560Y6760D01*
X19244Y6819D02*
X19501D01*
X18366Y7697D02*
X19244Y6819D01*
X18898Y15630D02*
X21366Y18098D01*
X18898Y7677D02*
Y15630D01*
X50079Y10689D02*
Y15610D01*
X49193Y16496D02*
X50079Y15610D01*
X41811Y16496D02*
X49193D01*
X40866Y15551D02*
X41811Y16496D01*
X40866Y10945D02*
Y15551D01*
X39882Y9961D02*
X40866Y10945D01*
X32721Y9961D02*
X39882D01*
X30787Y11895D02*
X32721Y9961D01*
X32638Y9764D02*
X42402D01*
X30630Y11772D02*
X32638Y9764D01*
X30630Y11772D02*
Y21878D01*
X36575Y8246D02*
X37935Y9606D01*
X45161D02*
X45357Y9803D01*
X42402Y9764D02*
X43327Y10689D01*
X37935Y9606D02*
X45161D01*
X36575Y10689D02*
Y15610D01*
X35571D02*
X36575D01*
X34921Y14961D02*
X35571Y15610D01*
X30787Y11895D02*
Y22720D01*
X27118Y26390D02*
X30787Y22720D01*
X44073Y8246D02*
X45453Y9626D01*
X50079Y8246D02*
X51282Y9449D01*
X32642Y20390D02*
X33118D01*
X32126Y20906D02*
X32642Y20390D01*
X32126Y20906D02*
Y21496D01*
X32520Y21890D01*
X43327Y8246D02*
X44073D01*
X27118Y25390D02*
X30630Y21878D01*
X28315Y3079D02*
Y4299D01*
X27461Y2224D02*
X28315Y3079D01*
Y4299D02*
X29606Y5591D01*
X30748D01*
X15413Y2224D02*
X27461D01*
X31299Y1614D02*
X34055Y4370D01*
Y6457D01*
X33071Y7441D02*
X34055Y6457D01*
X30748Y7441D02*
X33071D01*
X7322Y10316D02*
X15413Y2224D01*
X7322Y10316D02*
Y15473D01*
X7311Y15484D02*
X7322Y15473D01*
X15276Y1614D02*
X31299D01*
X1732Y15157D02*
X15276Y1614D01*
X34055Y25327D02*
Y30385D01*
X35245Y31575D01*
X13197Y14150D02*
X14433Y12913D01*
X11614Y14150D02*
X13197D01*
X10315Y13150D02*
X11614D01*
X20815Y24055D02*
X22138Y25378D01*
Y26378D01*
X19646Y24055D02*
X20815D01*
X22366Y14972D02*
X22427Y15033D01*
X22632D01*
X26102Y18504D02*
Y19374D01*
X22632Y15033D02*
X26102Y18504D01*
Y19374D02*
X27118Y20390D01*
X25925Y19902D02*
X26929Y20906D01*
X25925Y18760D02*
Y19902D01*
X24331Y17165D02*
X25925Y18760D01*
X24803Y18740D02*
X25591Y19528D01*
X16228Y9903D02*
Y10638D01*
X17366Y11776D02*
Y14972D01*
X16228Y10638D02*
X17366Y11776D01*
X17228Y9903D02*
X17874Y10549D01*
Y15606D01*
X6311Y22886D02*
X6969Y23543D01*
X6311Y18610D02*
Y22886D01*
X35276Y31575D02*
Y32874D01*
X36693Y34291D02*
Y35906D01*
X35276Y32874D02*
X36693Y34291D01*
X35245Y31575D02*
X35276D01*
X33118Y24390D02*
X34055Y25327D01*
X29199Y16404D02*
X29213Y16417D01*
X27132Y16404D02*
X29199D01*
X27118Y16390D02*
X27132Y16404D01*
X27120Y15392D02*
X29132D01*
X29134Y15394D01*
X27118Y15390D02*
X27120Y15392D01*
X29016Y22874D02*
X29488Y22402D01*
X27118Y19390D02*
X30315Y16193D01*
X26660Y9760D02*
X30315Y13415D01*
Y16193D01*
X25000Y16272D02*
X27118Y18390D01*
X25000Y14646D02*
Y16272D01*
X18724Y18740D02*
X19366Y18098D01*
X15984Y18740D02*
X18724D01*
X25157Y15429D02*
X27118Y17390D01*
X25157Y14569D02*
Y15429D01*
X24331Y13976D02*
X25000Y14646D01*
X24404Y13815D02*
X25157Y14569D01*
X27118Y27390D02*
X30945Y23563D01*
Y11960D02*
Y23563D01*
X31594Y27913D02*
X33118Y26390D01*
X26614Y27913D02*
X31594D01*
X25295Y23228D02*
Y26594D01*
X26614Y27913D01*
X4252Y24523D02*
X5826Y26097D01*
X4252Y19669D02*
Y24523D01*
Y19669D02*
X5311Y18610D01*
X1732Y17126D02*
X8898D01*
X9488Y17717D01*
Y20209D01*
X10775Y21496D01*
X11523Y22244D01*
X12350D02*
X13098Y21496D01*
X11523Y22244D02*
X12350D01*
X13846D02*
X14634D01*
X15382Y21496D01*
X13098D02*
X13846Y22244D01*
X15382Y21417D02*
Y21496D01*
Y21417D02*
X15630Y21169D01*
Y19961D02*
Y21169D01*
X11299Y19961D02*
X11299Y19961D01*
Y18386D02*
Y19961D01*
Y16831D02*
Y18386D01*
X30945Y11960D02*
X31809Y11096D01*
X33379D01*
X22165Y13976D02*
X24331D01*
X19560Y7760D02*
X21083Y9282D01*
X19560Y8760D02*
X20292Y9492D01*
X21083Y9282D02*
Y12653D01*
X20292Y9492D02*
Y12103D01*
X22165Y13976D01*
X15630Y18386D02*
X15984Y18740D01*
X24921Y18583D02*
X25748Y19409D01*
X23701Y18740D02*
X24803D01*
X25866Y25138D02*
X27118Y26390D01*
X23346Y19094D02*
Y19843D01*
Y19094D02*
X23701Y18740D01*
X23850Y18583D02*
X24921D01*
X22244Y17165D02*
X24331D01*
X22874Y20315D02*
X23346Y19843D01*
X21636Y20315D02*
X22874D01*
X20888Y19567D02*
X21636Y20315D01*
X26142Y24331D02*
X27118Y25307D01*
X20888Y21811D02*
X21636Y21063D01*
X20354Y21496D02*
X21181Y20669D01*
X20354Y21496D02*
Y22355D01*
X20637Y22638D01*
X22047D01*
X22874Y21811D01*
X27118Y25307D02*
Y25390D01*
X24860Y21811D02*
X25591Y22542D01*
Y25862D01*
X27118Y27390D01*
X21811Y17598D02*
X22244Y17165D01*
X21811Y17598D02*
Y18504D01*
X22874Y19567D01*
X19560Y5760D02*
X20157Y6357D01*
X50079Y3325D02*
Y8246D01*
X34921Y12638D02*
Y14961D01*
X41189Y31575D02*
X42508Y30256D01*
X41480Y32283D02*
X43508Y30256D01*
X49882Y28976D02*
X50945Y30039D01*
Y30906D01*
X53268Y30000D02*
Y30906D01*
Y30000D02*
X54291Y28976D01*
X38176Y31575D02*
X38885Y32283D01*
X41480D01*
X39606Y31575D02*
X41189D01*
X48740Y31535D02*
Y33768D01*
X46575Y33465D02*
X47402D01*
X48740Y33768D02*
X50394Y35421D01*
X44606Y33465D02*
X47008Y35866D01*
X47402Y33465D02*
X50197Y36260D01*
X52047D02*
X53661Y34646D01*
X47008Y35866D02*
X48740D01*
X50197Y36260D02*
X52047D01*
X9449Y14016D02*
X10315Y13150D01*
X15630Y16831D02*
X17098D01*
X18366Y18098D01*
X17874Y15606D02*
X20366Y18098D01*
X22366D02*
X23366D01*
X23850Y18583D01*
X21083Y12653D02*
X22245Y13815D01*
X24404D01*
X26929Y20906D02*
X29724D01*
X36575Y3325D02*
Y8246D01*
X43327Y3325D02*
Y8246D01*
X33379Y11096D02*
X34921Y12638D01*
X43327Y10689D02*
Y15610D01*
D61*
X16614Y31693D02*
D03*
D62*
X17283D02*
D03*
X17953D02*
D03*
X18622D02*
D03*
X19291D02*
D03*
D63*
X50472Y18740D02*
D03*
Y19724D02*
D03*
Y22677D02*
D03*
Y21693D02*
D03*
D64*
X52441Y20709D02*
D03*
D65*
X51352Y28976D02*
D03*
Y24646D02*
D03*
X52822Y28976D02*
D03*
Y24646D02*
D03*
X54291Y28976D02*
D03*
Y24646D02*
D03*
X49882Y28976D02*
D03*
Y24646D02*
D03*
X11299Y15276D02*
D03*
X21732Y30709D02*
D03*
X36693Y31575D02*
D03*
X48740Y31535D02*
D03*
Y35866D02*
D03*
X39606Y35906D02*
D03*
Y31575D02*
D03*
X38176D02*
D03*
Y35906D02*
D03*
X35276D02*
D03*
Y31575D02*
D03*
X36693Y35906D02*
D03*
X19646Y24055D02*
D03*
X23976D02*
D03*
X5079Y12638D02*
D03*
X9409D02*
D03*
X9449Y14016D02*
D03*
X5118D02*
D03*
X15630Y15276D02*
D03*
X11299Y16831D02*
D03*
X15630D02*
D03*
X11299Y18386D02*
D03*
X15630D02*
D03*
X46575Y33465D02*
D03*
X11299Y19961D02*
D03*
X15630D02*
D03*
D66*
X30748Y3740D02*
D03*
Y7441D02*
D03*
Y5591D02*
D03*
D67*
X11614Y12150D02*
D03*
D68*
X14382Y21496D02*
D03*
X12098D02*
D03*
X9775D02*
D03*
X19888Y21811D02*
D03*
X23860Y19567D02*
D03*
Y21811D02*
D03*
X19888Y19567D02*
D03*
X21874Y21811D02*
D03*
Y19567D02*
D03*
D69*
X17008Y20984D02*
D03*
X42375Y33702D02*
D03*
X19961Y12697D02*
D03*
X22874D02*
D03*
X5984Y23543D02*
D03*
Y20748D02*
D03*
X16654Y28051D02*
D03*
X53268Y30906D02*
D03*
X50945D02*
D03*
X5826Y26097D02*
D03*
D70*
X45295Y3325D02*
D03*
Y8246D02*
D03*
Y10689D02*
D03*
Y15610D02*
D03*
X52047Y3325D02*
D03*
Y8246D02*
D03*
X38543Y10689D02*
D03*
Y15610D02*
D03*
X52047Y10689D02*
D03*
Y15610D02*
D03*
X38543Y3325D02*
D03*
Y8246D02*
D03*
X36575D02*
D03*
X50079Y15610D02*
D03*
X43327Y8246D02*
D03*
Y15610D02*
D03*
X50079Y8246D02*
D03*
X36575Y15610D02*
D03*
D71*
X23138Y26378D02*
D03*
X22138D02*
D03*
D72*
X24366Y14972D02*
D03*
X23366D02*
D03*
X8311Y15484D02*
D03*
X6311D02*
D03*
X7311D02*
D03*
X8311Y18610D02*
D03*
X6311D02*
D03*
X5311D02*
D03*
X7311D02*
D03*
X18366Y14972D02*
D03*
X19366D02*
D03*
X20366D02*
D03*
X21366D02*
D03*
X22366D02*
D03*
X24366Y18098D02*
D03*
X23366D02*
D03*
X22366D02*
D03*
X21366D02*
D03*
X20366D02*
D03*
X17366D02*
D03*
X18366D02*
D03*
X19366D02*
D03*
D73*
X1693Y21299D02*
D03*
X1732Y13189D02*
D03*
X33118Y30390D02*
D03*
X27118Y13390D02*
D03*
Y28390D02*
D03*
Y25390D02*
D03*
Y26390D02*
D03*
Y24390D02*
D03*
Y30390D02*
D03*
Y23390D02*
D03*
Y29390D02*
D03*
Y22390D02*
D03*
Y21390D02*
D03*
Y15390D02*
D03*
Y17390D02*
D03*
Y12390D02*
D03*
Y19390D02*
D03*
Y20390D02*
D03*
Y18390D02*
D03*
X33118Y28390D02*
D03*
Y26390D02*
D03*
Y25390D02*
D03*
Y29390D02*
D03*
Y27390D02*
D03*
Y13390D02*
D03*
Y19390D02*
D03*
Y18390D02*
D03*
Y17390D02*
D03*
Y16390D02*
D03*
Y14390D02*
D03*
Y15390D02*
D03*
Y12390D02*
D03*
Y23390D02*
D03*
Y20390D02*
D03*
X27118Y27390D02*
D03*
X33118Y22390D02*
D03*
Y24390D02*
D03*
Y21390D02*
D03*
X27118Y14390D02*
D03*
Y16390D02*
D03*
X1732Y15157D02*
D03*
X1693Y23268D02*
D03*
D74*
X19843Y25395D02*
D03*
D75*
X52677Y34646D02*
D03*
X5787Y31260D02*
D03*
Y28504D02*
D03*
D76*
X50394Y34421D02*
D03*
Y35421D02*
D03*
D77*
X19560Y3760D02*
D03*
X26660D02*
D03*
Y2760D02*
D03*
X19560D02*
D03*
X26660Y9760D02*
D03*
Y8760D02*
D03*
X19560D02*
D03*
X26660Y4760D02*
D03*
Y7760D02*
D03*
X19560D02*
D03*
Y4760D02*
D03*
X26660Y5760D02*
D03*
Y6760D02*
D03*
X19560Y5760D02*
D03*
Y6760D02*
D03*
D78*
X15228Y9903D02*
D03*
X17228Y3368D02*
D03*
X15228D02*
D03*
X17228Y9903D02*
D03*
X16228D02*
D03*
Y3368D02*
D03*
D79*
X41508Y30256D02*
D03*
X2795Y29449D02*
D03*
Y28465D02*
D03*
Y30433D02*
D03*
X42508Y30256D02*
D03*
X43508D02*
D03*
D80*
X36575Y3325D02*
D03*
X50079Y10689D02*
D03*
X43327Y3325D02*
D03*
Y10689D02*
D03*
X50079Y3325D02*
D03*
X36575Y10689D02*
D03*
D81*
X11614Y14150D02*
D03*
Y13150D02*
D03*
D82*
X6772Y28504D02*
D03*
Y31260D02*
D03*
X53661Y34646D02*
D03*
D83*
X2795Y31417D02*
D03*
D84*
X31161Y45118D02*
D03*
X2461Y37520D02*
D03*
X31161Y52717D02*
D03*
X2461Y45118D02*
D03*
X31161Y37520D02*
D03*
X2461Y52717D02*
D03*
D85*
X40508Y30256D02*
D03*
D86*
X48209Y29980D02*
D03*
X35807Y18287D02*
D03*
X48209D02*
D03*
X35807Y29980D02*
D03*
D87*
X19560Y9760D02*
D03*
D88*
X5311Y15484D02*
D03*
X17366Y14972D02*
D03*
D89*
X53268Y31693D02*
D03*
X50945D02*
D03*
X16654Y29035D02*
D03*
X19961Y11713D02*
D03*
X22874D02*
D03*
D90*
X23701Y30709D02*
D03*
X44606Y33465D02*
D03*
D91*
X19843Y29487D02*
D03*
D92*
X27118Y31390D02*
D03*
X33118D02*
D03*
D93*
X16260Y25236D02*
D03*
X18228D02*
D03*
D94*
X14433Y12913D02*
D03*
D95*
X15433D02*
D03*
X16433D02*
D03*
D96*
X6969Y20748D02*
D03*
Y23543D02*
D03*
X6613Y26097D02*
D03*
X17992Y20984D02*
D03*
X41391Y33702D02*
D03*
D97*
X1732Y17126D02*
D03*
X1693Y25236D02*
D03*
D98*
X12205Y31220D02*
D03*
Y28465D02*
D03*
D99*
X54094Y58032D02*
D03*
X1024D02*
D03*
Y1024D02*
D03*
X54094D02*
D03*
D100*
X20888Y19567D02*
D03*
X22874D02*
D03*
X20888Y21811D02*
D03*
X22874D02*
D03*
X24860Y19567D02*
D03*
Y21811D02*
D03*
X15382Y21496D02*
D03*
X13098D02*
D03*
X10775D02*
D03*
D101*
X27679Y45118D02*
D03*
Y37520D02*
D03*
Y52717D02*
D03*
X5785Y45118D02*
D03*
Y37520D02*
D03*
Y52717D02*
D03*
D102*
X29213Y16417D02*
D03*
X29134Y15394D02*
D03*
X29488Y22402D02*
D03*
X26339Y15354D02*
D03*
Y16024D02*
D03*
X26024Y15709D02*
D03*
X25295Y23228D02*
D03*
X29685Y21890D02*
D03*
X29724Y20906D02*
D03*
M02*
