G04*
G04 #@! TF.GenerationSoftware,Altium Limited,Altium Designer,25.7.1 (20)*
G04*
G04 Layer_Physical_Order=2*
G04 Layer_Color=16711680*
%FSLAX24Y24*%
%MOIN*%
G70*
G04*
G04 #@! TF.SameCoordinates,6BD2BFD6-E8B5-49EE-896E-F5671A370314*
G04*
G04*
G04 #@! TF.FilePolarity,Positive*
G04*
G01*
G75*
%ADD18C,0.0512*%
%ADD60C,0.0098*%
G04:AMPARAMS|DCode=61|XSize=78.7mil|YSize=55.1mil|CornerRadius=13.8mil|HoleSize=0mil|Usage=FLASHONLY|Rotation=90.000|XOffset=0mil|YOffset=0mil|HoleType=Round|Shape=RoundedRectangle|*
%AMROUNDEDRECTD61*
21,1,0.0787,0.0276,0,0,90.0*
21,1,0.0512,0.0551,0,0,90.0*
1,1,0.0276,0.0138,0.0256*
1,1,0.0276,0.0138,-0.0256*
1,1,0.0276,-0.0138,-0.0256*
1,1,0.0276,-0.0138,0.0256*
%
%ADD61ROUNDEDRECTD61*%
%ADD62O,0.0551X0.0787*%
%ADD63O,0.0951X0.0591*%
%ADD64O,0.0591X0.0951*%
%ADD65C,0.0472*%
%ADD66O,0.1024X0.0512*%
%ADD67R,0.0511X0.0511*%
%ADD68R,0.0519X0.0519*%
%ADD69C,0.0433*%
%ADD70C,0.0768*%
%ADD71C,0.0591*%
%ADD72C,0.0445*%
%ADD73C,0.0709*%
%ADD74C,0.0626*%
%ADD75C,0.0620*%
%ADD76C,0.0480*%
%ADD77C,0.0515*%
%ADD78C,0.0600*%
%ADD79C,0.0594*%
%ADD80R,0.0768X0.0768*%
%ADD81C,0.0511*%
%ADD82R,0.0620X0.0620*%
%ADD83R,0.0594X0.0594*%
%ADD84C,0.0945*%
%ADD85R,0.0594X0.0594*%
%ADD86C,0.1181*%
%ADD87R,0.0515X0.0515*%
%ADD88R,0.0445X0.0445*%
%ADD89R,0.0433X0.0433*%
%ADD90R,0.0472X0.0472*%
%ADD91R,0.0626X0.0626*%
%ADD92R,0.0709X0.0709*%
%ADD93C,0.0554*%
%ADD94R,0.0791X0.0791*%
%ADD95C,0.0791*%
%ADD96R,0.0433X0.0433*%
%ADD97R,0.0709X0.0709*%
%ADD98O,0.2598X0.0945*%
%ADD99C,0.1575*%
%ADD100C,0.0519*%
%ADD101C,0.1260*%
%ADD102C,0.0236*%
G36*
X55118D02*
X0D01*
Y59055D01*
X55118D01*
Y0D01*
D02*
G37*
%LPC*%
G36*
X54178Y58878D02*
X54011D01*
X53848Y58845D01*
X53694Y58782D01*
X53555Y58689D01*
X53437Y58571D01*
X53344Y58432D01*
X53281Y58278D01*
X53248Y58115D01*
Y57948D01*
X53281Y57785D01*
X53344Y57631D01*
X53437Y57492D01*
X53555Y57374D01*
X53694Y57281D01*
X53848Y57218D01*
X54011Y57185D01*
X54178D01*
X54341Y57218D01*
X54495Y57281D01*
X54634Y57374D01*
X54752Y57492D01*
X54845Y57631D01*
X54908Y57785D01*
X54941Y57948D01*
Y58115D01*
X54908Y58278D01*
X54845Y58432D01*
X54752Y58571D01*
X54634Y58689D01*
X54495Y58782D01*
X54341Y58845D01*
X54178Y58878D01*
D02*
G37*
G36*
X1107D02*
X940D01*
X777Y58845D01*
X623Y58782D01*
X484Y58689D01*
X366Y58571D01*
X273Y58432D01*
X210Y58278D01*
X177Y58115D01*
Y57948D01*
X210Y57785D01*
X273Y57631D01*
X366Y57492D01*
X484Y57374D01*
X623Y57281D01*
X777Y57218D01*
X940Y57185D01*
X1107D01*
X1271Y57218D01*
X1425Y57281D01*
X1563Y57374D01*
X1681Y57492D01*
X1774Y57631D01*
X1838Y57785D01*
X1870Y57948D01*
Y58115D01*
X1838Y58278D01*
X1774Y58432D01*
X1681Y58571D01*
X1563Y58689D01*
X1425Y58782D01*
X1271Y58845D01*
X1107Y58878D01*
D02*
G37*
G36*
X31231Y53248D02*
X31091D01*
X30956Y53212D01*
X30835Y53142D01*
X30736Y53043D01*
X30666Y52922D01*
X30630Y52787D01*
Y52647D01*
X30666Y52511D01*
X30736Y52390D01*
X30835Y52291D01*
X30956Y52221D01*
X31091Y52185D01*
X31231D01*
X31367Y52221D01*
X31488Y52291D01*
X31587Y52390D01*
X31657Y52511D01*
X31693Y52647D01*
Y52787D01*
X31657Y52922D01*
X31587Y53043D01*
X31488Y53142D01*
X31367Y53212D01*
X31231Y53248D01*
D02*
G37*
G36*
X2531D02*
X2391D01*
X2255Y53212D01*
X2134Y53142D01*
X2035Y53043D01*
X1965Y52922D01*
X1929Y52787D01*
Y52647D01*
X1965Y52511D01*
X2035Y52390D01*
X2134Y52291D01*
X2255Y52221D01*
X2391Y52185D01*
X2531D01*
X2666Y52221D01*
X2787Y52291D01*
X2886Y52390D01*
X2956Y52511D01*
X2992Y52647D01*
Y52787D01*
X2956Y52922D01*
X2886Y53043D01*
X2787Y53142D01*
X2666Y53212D01*
X2531Y53248D01*
D02*
G37*
G36*
X27747Y53406D02*
X27611D01*
X27478Y53379D01*
X27353Y53327D01*
X27240Y53252D01*
X27144Y53156D01*
X27069Y53043D01*
X27017Y52917D01*
X26990Y52784D01*
Y52649D01*
X27017Y52516D01*
X27069Y52390D01*
X27144Y52277D01*
X27240Y52181D01*
X27353Y52106D01*
X27478Y52054D01*
X27611Y52028D01*
X27747D01*
X27880Y52054D01*
X28005Y52106D01*
X28118Y52181D01*
X28214Y52277D01*
X28290Y52390D01*
X28342Y52516D01*
X28368Y52649D01*
Y52784D01*
X28342Y52917D01*
X28290Y53043D01*
X28214Y53156D01*
X28118Y53252D01*
X28005Y53327D01*
X27880Y53379D01*
X27747Y53406D01*
D02*
G37*
G36*
X5853D02*
X5718D01*
X5584Y53379D01*
X5459Y53327D01*
X5346Y53252D01*
X5250Y53156D01*
X5175Y53043D01*
X5123Y52917D01*
X5096Y52784D01*
Y52649D01*
X5123Y52516D01*
X5175Y52390D01*
X5250Y52277D01*
X5346Y52181D01*
X5459Y52106D01*
X5584Y52054D01*
X5718Y52028D01*
X5853D01*
X5986Y52054D01*
X6112Y52106D01*
X6225Y52181D01*
X6321Y52277D01*
X6396Y52390D01*
X6448Y52516D01*
X6474Y52649D01*
Y52784D01*
X6448Y52917D01*
X6396Y53043D01*
X6321Y53156D01*
X6225Y53252D01*
X6112Y53327D01*
X5986Y53379D01*
X5853Y53406D01*
D02*
G37*
G36*
X31231Y45650D02*
X31091D01*
X30956Y45613D01*
X30835Y45543D01*
X30736Y45444D01*
X30666Y45323D01*
X30630Y45188D01*
Y45048D01*
X30666Y44913D01*
X30736Y44792D01*
X30835Y44693D01*
X30956Y44623D01*
X31091Y44587D01*
X31231D01*
X31367Y44623D01*
X31488Y44693D01*
X31587Y44792D01*
X31657Y44913D01*
X31693Y45048D01*
Y45188D01*
X31657Y45323D01*
X31587Y45444D01*
X31488Y45543D01*
X31367Y45613D01*
X31231Y45650D01*
D02*
G37*
G36*
X27747Y45807D02*
X27611D01*
X27478Y45781D01*
X27353Y45729D01*
X27240Y45653D01*
X27144Y45557D01*
X27069Y45444D01*
X27017Y45319D01*
X26990Y45186D01*
Y45050D01*
X27017Y44917D01*
X27069Y44792D01*
X27144Y44679D01*
X27240Y44583D01*
X27353Y44508D01*
X27478Y44456D01*
X27611Y44429D01*
X27747D01*
X27880Y44456D01*
X28005Y44508D01*
X28118Y44583D01*
X28214Y44679D01*
X28290Y44792D01*
X28342Y44917D01*
X28368Y45050D01*
Y45186D01*
X28342Y45319D01*
X28290Y45444D01*
X28214Y45557D01*
X28118Y45653D01*
X28005Y45729D01*
X27880Y45781D01*
X27747Y45807D01*
D02*
G37*
G36*
X5853D02*
X5718D01*
X5584Y45781D01*
X5459Y45729D01*
X5346Y45653D01*
X5250Y45557D01*
X5175Y45444D01*
X5123Y45319D01*
X5096Y45186D01*
Y45050D01*
X5123Y44917D01*
X5175Y44792D01*
X5250Y44679D01*
X5346Y44583D01*
X5459Y44508D01*
X5584Y44456D01*
X5718Y44429D01*
X5853D01*
X5986Y44456D01*
X6112Y44508D01*
X6225Y44583D01*
X6321Y44679D01*
X6396Y44792D01*
X6448Y44917D01*
X6474Y45050D01*
Y45186D01*
X6448Y45319D01*
X6396Y45444D01*
X6321Y45557D01*
X6225Y45653D01*
X6112Y45729D01*
X5986Y45781D01*
X5853Y45807D01*
D02*
G37*
G36*
X31231Y38051D02*
X31091D01*
X30956Y38015D01*
X30835Y37945D01*
X30736Y37846D01*
X30666Y37725D01*
X30630Y37590D01*
Y37450D01*
X30666Y37315D01*
X30736Y37193D01*
X30835Y37094D01*
X30956Y37024D01*
X31091Y36988D01*
X31231D01*
X31367Y37024D01*
X31488Y37094D01*
X31587Y37193D01*
X31657Y37315D01*
X31693Y37450D01*
Y37590D01*
X31657Y37725D01*
X31587Y37846D01*
X31488Y37945D01*
X31367Y38015D01*
X31231Y38051D01*
D02*
G37*
G36*
X27747Y38209D02*
X27611D01*
X27478Y38182D01*
X27353Y38130D01*
X27240Y38055D01*
X27144Y37959D01*
X27069Y37846D01*
X27017Y37721D01*
X26990Y37588D01*
Y37452D01*
X27017Y37319D01*
X27069Y37193D01*
X27144Y37080D01*
X27240Y36985D01*
X27353Y36909D01*
X27478Y36857D01*
X27611Y36831D01*
X27747D01*
X27880Y36857D01*
X28005Y36909D01*
X28118Y36985D01*
X28214Y37080D01*
X28290Y37193D01*
X28342Y37319D01*
X28368Y37452D01*
Y37588D01*
X28342Y37721D01*
X28290Y37846D01*
X28214Y37959D01*
X28118Y38055D01*
X28005Y38130D01*
X27880Y38182D01*
X27747Y38209D01*
D02*
G37*
G36*
X5853D02*
X5718D01*
X5584Y38182D01*
X5459Y38130D01*
X5346Y38055D01*
X5250Y37959D01*
X5175Y37846D01*
X5123Y37721D01*
X5096Y37588D01*
Y37452D01*
X5123Y37319D01*
X5175Y37193D01*
X5250Y37080D01*
X5346Y36985D01*
X5459Y36909D01*
X5584Y36857D01*
X5718Y36831D01*
X5853D01*
X5986Y36857D01*
X6112Y36909D01*
X6225Y36985D01*
X6321Y37080D01*
X6396Y37193D01*
X6448Y37319D01*
X6474Y37452D01*
Y37588D01*
X6448Y37721D01*
X6396Y37846D01*
X6321Y37959D01*
X6225Y38055D01*
X6112Y38130D01*
X5986Y38182D01*
X5853Y38209D01*
D02*
G37*
G36*
X36732Y36201D02*
X36654D01*
X36579Y36181D01*
X36512Y36142D01*
X36457Y36087D01*
X36418Y36019D01*
X36398Y35944D01*
Y35867D01*
X36418Y35792D01*
X36457Y35724D01*
X36512Y35669D01*
X36579Y35630D01*
X36654Y35610D01*
X36732D01*
X36807Y35630D01*
X36874Y35669D01*
X36929Y35724D01*
X36968Y35792D01*
X36988Y35867D01*
Y35944D01*
X36968Y36019D01*
X36929Y36087D01*
X36874Y36142D01*
X36807Y36181D01*
X36732Y36201D01*
D02*
G37*
G36*
X35314D02*
X35237D01*
X35162Y36181D01*
X35094Y36142D01*
X35039Y36087D01*
X35000Y36019D01*
X34999Y36016D01*
X18189D01*
X18147Y36007D01*
X18111Y35984D01*
X14213Y32086D01*
X14189Y32050D01*
X14181Y32008D01*
Y29770D01*
X13322Y28911D01*
X13300Y28929D01*
X13170Y28982D01*
X13031Y29001D01*
X11378D01*
X11239Y28982D01*
X11110Y28929D01*
X10999Y28844D01*
X10914Y28733D01*
X10860Y28603D01*
X10842Y28465D01*
X10860Y28326D01*
X10914Y28197D01*
X10999Y28085D01*
X11110Y28000D01*
X11239Y27947D01*
X11378Y27928D01*
X13031D01*
X13170Y27947D01*
X13300Y28000D01*
X13411Y28085D01*
X13496Y28197D01*
X13549Y28326D01*
X13568Y28465D01*
X13549Y28603D01*
X13496Y28733D01*
X13478Y28755D01*
X14369Y29646D01*
X14393Y29682D01*
X14402Y29724D01*
Y31962D01*
X18235Y35795D01*
X34999D01*
X35000Y35792D01*
X35039Y35724D01*
X35094Y35669D01*
X35162Y35630D01*
X35237Y35610D01*
X35314D01*
X35390Y35630D01*
X35457Y35669D01*
X35512Y35724D01*
X35551Y35792D01*
X35571Y35867D01*
Y35944D01*
X35551Y36019D01*
X35512Y36087D01*
X35457Y36142D01*
X35390Y36181D01*
X35314Y36201D01*
D02*
G37*
G36*
X48779Y36161D02*
X48701D01*
X48626Y36141D01*
X48559Y36102D01*
X48504Y36047D01*
X48465Y35980D01*
X48445Y35905D01*
Y35827D01*
X48465Y35752D01*
X48504Y35685D01*
X48559Y35630D01*
X48626Y35591D01*
X48701Y35571D01*
X48779D01*
X48854Y35591D01*
X48921Y35630D01*
X48976Y35685D01*
X49015Y35752D01*
X49035Y35827D01*
Y35905D01*
X49015Y35980D01*
X48976Y36047D01*
X48921Y36102D01*
X48854Y36141D01*
X48779Y36161D01*
D02*
G37*
G36*
X50433Y35720D02*
X50354D01*
X50278Y35700D01*
X50210Y35660D01*
X50155Y35605D01*
X50115Y35537D01*
X50095Y35461D01*
Y35382D01*
X50115Y35306D01*
X50155Y35238D01*
X50210Y35182D01*
X50278Y35143D01*
X50354Y35122D01*
X50433D01*
X50509Y35143D01*
X50577Y35182D01*
X50633Y35238D01*
X50672Y35306D01*
X50693Y35382D01*
Y35461D01*
X50672Y35537D01*
X50633Y35605D01*
X50577Y35660D01*
X50509Y35700D01*
X50433Y35720D01*
D02*
G37*
G36*
X54031Y35015D02*
X53292D01*
Y34277D01*
X54031D01*
Y35015D01*
D02*
G37*
G36*
X46614Y33760D02*
X46536D01*
X46461Y33740D01*
X46393Y33701D01*
X46339Y33646D01*
X46300Y33579D01*
X46280Y33503D01*
Y33426D01*
X46300Y33351D01*
X46339Y33283D01*
X46393Y33228D01*
X46461Y33189D01*
X46536Y33169D01*
X46614D01*
X46689Y33189D01*
X46756Y33228D01*
X46811Y33283D01*
X46850Y33351D01*
X46870Y33426D01*
Y33503D01*
X46850Y33579D01*
X46811Y33646D01*
X46756Y33701D01*
X46689Y33740D01*
X46614Y33760D01*
D02*
G37*
G36*
X41890Y36481D02*
X37441D01*
X37396Y36463D01*
X37377Y36417D01*
Y35025D01*
X32638D01*
X32593Y35006D01*
X32574Y34961D01*
Y32032D01*
X27795D01*
X27750Y32014D01*
X27731Y31969D01*
Y15025D01*
X27477D01*
X27436Y15123D01*
X27449Y15136D01*
X27503Y15230D01*
X27531Y15335D01*
Y15444D01*
X27503Y15549D01*
X27449Y15644D01*
X27372Y15721D01*
X27278Y15775D01*
X27173Y15803D01*
X27064D01*
X26959Y15775D01*
X26864Y15721D01*
X26787Y15644D01*
X26733Y15549D01*
X26705Y15444D01*
Y15335D01*
X26733Y15230D01*
X26787Y15136D01*
X26800Y15123D01*
X26760Y15025D01*
X26621D01*
X26585Y15123D01*
X26599Y15157D01*
Y15512D01*
Y16693D01*
X26581Y16738D01*
X26535Y16757D01*
X17899D01*
Y20290D01*
X18583D01*
X18628Y20309D01*
X18647Y20354D01*
Y21654D01*
X18628Y21699D01*
X18583Y21717D01*
X17402D01*
X17356Y21699D01*
X17338Y21654D01*
Y18845D01*
X16845Y18352D01*
X16826Y18307D01*
Y15512D01*
X16845Y15467D01*
X16890Y15448D01*
X25763D01*
Y15157D01*
X25777Y15123D01*
X25741Y15025D01*
X25000D01*
X24955Y15006D01*
X23459Y13510D01*
X23440Y13465D01*
Y12269D01*
X22347D01*
Y13780D01*
X22329Y13825D01*
X22283Y13843D01*
X15945D01*
X15913Y13830D01*
X15881Y13843D01*
X14961D01*
X14915Y13825D01*
X14897Y13780D01*
Y13463D01*
X14888Y13368D01*
X14798Y13368D01*
X14067D01*
X14018Y13368D01*
X13976Y13466D01*
X15513Y15002D01*
X15516Y15000D01*
X15591Y14980D01*
X15669D01*
X15744Y15000D01*
X15811Y15039D01*
X15866Y15094D01*
X15905Y15162D01*
X15925Y15237D01*
Y15314D01*
X15905Y15390D01*
X15866Y15457D01*
X15811Y15512D01*
X15744Y15551D01*
X15669Y15571D01*
X15591D01*
X15516Y15551D01*
X15449Y15512D01*
X15394Y15457D01*
X15355Y15390D01*
X15335Y15314D01*
Y15237D01*
X15355Y15162D01*
X15357Y15158D01*
X13458Y13260D01*
X11910D01*
X11907Y13271D01*
X11866Y13343D01*
X11807Y13401D01*
X11736Y13443D01*
X11656Y13464D01*
X11573D01*
X11493Y13443D01*
X11421Y13401D01*
X11362Y13343D01*
X11321Y13271D01*
X11300Y13191D01*
Y13108D01*
X11321Y13028D01*
X11362Y12956D01*
X11421Y12898D01*
X11493Y12856D01*
X11573Y12835D01*
X11656D01*
X11736Y12856D01*
X11807Y12898D01*
X11866Y12956D01*
X11907Y13028D01*
X11910Y13039D01*
X13504D01*
X13546Y13048D01*
X13582Y13072D01*
X13881Y13370D01*
X13978Y13329D01*
X13978Y13286D01*
Y12459D01*
X14798D01*
X14888Y12459D01*
X14897Y12364D01*
Y11693D01*
X14915Y11648D01*
X14961Y11629D01*
X17771D01*
Y11575D01*
Y4591D01*
X15787D01*
X15742Y4573D01*
X15723Y4528D01*
Y2677D01*
X15742Y2632D01*
X15787Y2613D01*
X16732D01*
X16777Y2632D01*
X16796Y2677D01*
Y3716D01*
X18819D01*
X18864Y3734D01*
X18883Y3780D01*
Y11078D01*
X20748D01*
X20793Y11097D01*
X20812Y11142D01*
X20812Y12157D01*
X20812Y12165D01*
X20812Y12165D01*
X20793Y12211D01*
X20748Y12229D01*
X20748Y12229D01*
X20740Y12229D01*
X17662D01*
Y12968D01*
X21353D01*
Y11220D01*
Y10221D01*
X19094D01*
X19049Y10203D01*
X19031Y10157D01*
Y9252D01*
X19049Y9207D01*
X19094Y9188D01*
X24291D01*
X24337Y9207D01*
X24355Y9252D01*
Y9370D01*
Y11220D01*
Y12926D01*
X25263Y13834D01*
X28701D01*
X28748Y13747D01*
Y13274D01*
X27974Y12500D01*
X27517D01*
X27503Y12549D01*
X27449Y12644D01*
X27372Y12721D01*
X27278Y12775D01*
X27173Y12803D01*
X27064D01*
X26959Y12775D01*
X26864Y12721D01*
X26787Y12644D01*
X26733Y12549D01*
X26705Y12444D01*
Y12335D01*
X26733Y12230D01*
X26787Y12136D01*
X26864Y12059D01*
X26959Y12005D01*
X27064Y11976D01*
X27173D01*
X27278Y12005D01*
X27372Y12059D01*
X27449Y12136D01*
X27503Y12230D01*
X27517Y12279D01*
X28020D01*
X28062Y12288D01*
X28098Y12312D01*
X28936Y13150D01*
X28960Y13186D01*
X28969Y13228D01*
Y15172D01*
X28982Y15186D01*
X29067Y15230D01*
X29099Y15217D01*
X29169D01*
X29234Y15244D01*
X29284Y15293D01*
X29311Y15358D01*
Y15415D01*
X32684Y18787D01*
X32792D01*
X32833Y18689D01*
X32787Y18644D01*
X32733Y18549D01*
X32705Y18444D01*
Y18335D01*
X32733Y18230D01*
X32787Y18136D01*
X32864Y18059D01*
X32959Y18005D01*
X33064Y17976D01*
X33173D01*
X33278Y18005D01*
X33372Y18059D01*
X33449Y18136D01*
X33503Y18230D01*
X33531Y18335D01*
Y18444D01*
X33503Y18549D01*
X33449Y18644D01*
X33404Y18689D01*
X33444Y18787D01*
X34329D01*
X34371Y18796D01*
X34407Y18820D01*
X43586Y27999D01*
X43610Y28035D01*
X43618Y28077D01*
Y29917D01*
X43645Y29924D01*
X43726Y29971D01*
X43793Y30037D01*
X43840Y30119D01*
X43864Y30209D01*
Y30303D01*
X43840Y30393D01*
X43793Y30474D01*
X43726Y30541D01*
X43645Y30588D01*
X43555Y30612D01*
X43461D01*
X43370Y30588D01*
X43289Y30541D01*
X43223Y30474D01*
X43176Y30393D01*
X43152Y30303D01*
Y30209D01*
X43176Y30119D01*
X43223Y30037D01*
X43289Y29971D01*
X43370Y29924D01*
X43397Y29917D01*
Y28123D01*
X42717Y27442D01*
X42618Y27482D01*
Y29917D01*
X42645Y29924D01*
X42726Y29971D01*
X42793Y30037D01*
X42840Y30119D01*
X42864Y30209D01*
Y30303D01*
X42840Y30393D01*
X42793Y30474D01*
X42726Y30541D01*
X42645Y30588D01*
X42555Y30612D01*
X42461D01*
X42371Y30588D01*
X42289Y30541D01*
X42223Y30474D01*
X42176Y30393D01*
X42152Y30303D01*
Y30209D01*
X42176Y30119D01*
X42223Y30037D01*
X42289Y29971D01*
X42371Y29924D01*
X42397Y29917D01*
Y27396D01*
X34994Y19992D01*
X33444D01*
X33404Y20091D01*
X33449Y20136D01*
X33503Y20230D01*
X33531Y20335D01*
Y20444D01*
X33503Y20549D01*
X33449Y20644D01*
X33372Y20721D01*
X33278Y20775D01*
X33173Y20803D01*
X33064D01*
X32959Y20775D01*
X32914Y20750D01*
X32680Y20984D01*
X32645Y21007D01*
X32602Y21016D01*
X29865D01*
X29825Y21056D01*
X29760Y21083D01*
X29689D01*
X29624Y21056D01*
X29574Y21006D01*
X29547Y20941D01*
Y20870D01*
X29574Y20805D01*
X29624Y20755D01*
X29689Y20728D01*
X29760D01*
X29825Y20755D01*
X29865Y20795D01*
X32557D01*
X32758Y20593D01*
X32733Y20549D01*
X32705Y20444D01*
Y20335D01*
X32733Y20230D01*
X32787Y20136D01*
X32833Y20091D01*
X32792Y19992D01*
X32638D01*
X32596Y19984D01*
X32560Y19960D01*
X32536Y19924D01*
X32529Y19890D01*
X29234Y16594D01*
X29177D01*
X29112Y16568D01*
X29067Y16522D01*
X29043Y16524D01*
X28969Y16549D01*
Y25084D01*
X32914Y29030D01*
X32959Y29005D01*
X33064Y28976D01*
X33173D01*
X33278Y29005D01*
X33372Y29059D01*
X33449Y29136D01*
X33503Y29230D01*
X33531Y29335D01*
Y29444D01*
X33503Y29549D01*
X33449Y29644D01*
X33372Y29721D01*
X33278Y29775D01*
X33173Y29803D01*
X33064D01*
X32959Y29775D01*
X32864Y29721D01*
X32787Y29644D01*
X32733Y29549D01*
X32705Y29444D01*
Y29335D01*
X32733Y29230D01*
X32758Y29186D01*
X28863Y25291D01*
X28765Y25332D01*
Y30723D01*
X33005D01*
X33013Y30727D01*
X33021Y30726D01*
X33072Y30739D01*
X33164D01*
X33215Y30726D01*
X33223Y30727D01*
X33231Y30723D01*
X33937D01*
X33982Y30742D01*
X34001Y30787D01*
Y31969D01*
Y33637D01*
X39936D01*
Y31791D01*
X39860Y31763D01*
X39838Y31761D01*
X39788Y31811D01*
X39720Y31850D01*
X39645Y31870D01*
X39567D01*
X39492Y31850D01*
X39425Y31811D01*
X39370Y31756D01*
X39331Y31689D01*
X39311Y31614D01*
Y31536D01*
X39331Y31461D01*
X39370Y31393D01*
X39425Y31339D01*
X39492Y31300D01*
X39567Y31280D01*
X39645D01*
X39720Y31300D01*
X39788Y31339D01*
X39838Y31389D01*
X39860Y31387D01*
X39936Y31359D01*
Y29606D01*
X39955Y29561D01*
X40000Y29542D01*
X41063D01*
X41108Y29561D01*
X41127Y29606D01*
Y31235D01*
X41890D01*
X41935Y31254D01*
X41954Y31299D01*
Y35236D01*
Y36417D01*
X41935Y36463D01*
X41890Y36481D01*
D02*
G37*
G36*
X44902Y33760D02*
X44311D01*
Y33169D01*
X44496D01*
Y27867D01*
X40591Y23962D01*
X40567Y23926D01*
X40559Y23884D01*
Y3365D01*
X38485Y1291D01*
X12408D01*
X2906Y10794D01*
Y15112D01*
X5518Y17724D01*
X7535D01*
X7578Y17733D01*
X7613Y17757D01*
X8204Y18347D01*
X8274Y18329D01*
X8348D01*
X8420Y18348D01*
X8484Y18385D01*
X8536Y18437D01*
X8573Y18502D01*
X8593Y18573D01*
Y18647D01*
X8573Y18719D01*
X8545Y18768D01*
X8564Y18823D01*
X8593Y18866D01*
X13439D01*
X15357Y16948D01*
X15355Y16945D01*
X15335Y16870D01*
Y16792D01*
X15355Y16717D01*
X15394Y16649D01*
X15449Y16594D01*
X15516Y16556D01*
X15591Y16535D01*
X15669D01*
X15744Y16556D01*
X15811Y16594D01*
X15866Y16649D01*
X15905Y16717D01*
X15925Y16792D01*
Y16870D01*
X15905Y16945D01*
X15866Y17012D01*
X15811Y17067D01*
X15744Y17106D01*
X15669Y17126D01*
X15591D01*
X15516Y17106D01*
X15513Y17104D01*
X13684Y18933D01*
X13722Y19023D01*
X14836D01*
X15357Y18503D01*
X15355Y18500D01*
X15335Y18425D01*
Y18347D01*
X15355Y18272D01*
X15394Y18205D01*
X15449Y18150D01*
X15516Y18111D01*
X15591Y18091D01*
X15669D01*
X15744Y18111D01*
X15811Y18150D01*
X15866Y18205D01*
X15905Y18272D01*
X15925Y18347D01*
Y18425D01*
X15905Y18500D01*
X15866Y18567D01*
X15811Y18622D01*
X15744Y18661D01*
X15669Y18681D01*
X15591D01*
X15516Y18661D01*
X15513Y18659D01*
X14960Y19212D01*
X14924Y19236D01*
X14882Y19244D01*
X4370D01*
X4328Y19236D01*
X4292Y19212D01*
X2402Y17322D01*
X2378Y17286D01*
X2370Y17244D01*
Y10616D01*
X2378Y10574D01*
X2402Y10538D01*
X12153Y788D01*
X12188Y764D01*
X12231Y756D01*
X38661D01*
X38704Y764D01*
X38739Y788D01*
X41062Y3111D01*
X41086Y3147D01*
X41095Y3189D01*
Y23698D01*
X46574Y29177D01*
X46598Y29213D01*
X46606Y29255D01*
Y31135D01*
X47920Y32449D01*
X50033D01*
X50669Y31812D01*
Y31417D01*
X51220D01*
Y31969D01*
X50825D01*
X50157Y32637D01*
X50121Y32661D01*
X50079Y32669D01*
X47874D01*
X47832Y32661D01*
X47796Y32637D01*
X46418Y31259D01*
X46394Y31223D01*
X46386Y31181D01*
Y29301D01*
X45477Y28392D01*
X45386Y28430D01*
Y30781D01*
X47565Y32960D01*
X52159D01*
X53060Y32059D01*
X53022Y31969D01*
X52992D01*
Y31417D01*
X53543D01*
Y31969D01*
X53378D01*
Y32008D01*
X53370Y32050D01*
X53346Y32086D01*
X52283Y33149D01*
X52247Y33173D01*
X52205Y33181D01*
X47520D01*
X47477Y33173D01*
X47442Y33149D01*
X45198Y30905D01*
X45174Y30869D01*
X45165Y30827D01*
Y28313D01*
X44808Y27956D01*
X44717Y27994D01*
Y33169D01*
X44902D01*
Y33760D01*
D02*
G37*
G36*
X38215Y31870D02*
X38137D01*
X38062Y31850D01*
X37995Y31811D01*
X37940Y31756D01*
X37901Y31689D01*
X37881Y31614D01*
Y31536D01*
X37901Y31461D01*
X37940Y31393D01*
X37995Y31339D01*
X38062Y31300D01*
X38137Y31280D01*
X38215D01*
X38290Y31300D01*
X38357Y31339D01*
X38412Y31393D01*
X38451Y31461D01*
X38471Y31536D01*
Y31614D01*
X38451Y31689D01*
X38412Y31756D01*
X38357Y31811D01*
X38290Y31850D01*
X38215Y31870D01*
D02*
G37*
G36*
X35314D02*
X35237D01*
X35162Y31850D01*
X35094Y31811D01*
X35039Y31756D01*
X35000Y31689D01*
X34980Y31614D01*
Y31536D01*
X35000Y31461D01*
X35039Y31393D01*
X35094Y31339D01*
X35162Y31300D01*
X35237Y31280D01*
X35314D01*
X35390Y31300D01*
X35457Y31339D01*
X35512Y31393D01*
X35551Y31461D01*
X35571Y31536D01*
Y31614D01*
X35551Y31689D01*
X35512Y31756D01*
X35457Y31811D01*
X35390Y31850D01*
X35314Y31870D01*
D02*
G37*
G36*
X48779Y31831D02*
X48701D01*
X48626Y31811D01*
X48559Y31772D01*
X48504Y31717D01*
X48465Y31649D01*
X48445Y31574D01*
Y31497D01*
X48465Y31421D01*
X48504Y31354D01*
X48559Y31299D01*
X48626Y31260D01*
X48701Y31240D01*
X48779D01*
X48854Y31260D01*
X48921Y31299D01*
X48976Y31354D01*
X49015Y31421D01*
X49035Y31497D01*
Y31574D01*
X49015Y31649D01*
X48976Y31717D01*
X48921Y31772D01*
X48854Y31811D01*
X48779Y31831D01*
D02*
G37*
G36*
X18622Y32149D02*
X18535Y32137D01*
X18453Y32103D01*
X18383Y32050D01*
X18330Y31980D01*
X18296Y31898D01*
X18285Y31811D01*
Y31575D01*
X18296Y31487D01*
X18330Y31406D01*
X18383Y31336D01*
X18453Y31282D01*
X18535Y31249D01*
X18622Y31237D01*
X18709Y31249D01*
X18791Y31282D01*
X18861Y31336D01*
X18914Y31406D01*
X18948Y31487D01*
X18960Y31575D01*
Y31811D01*
X18948Y31898D01*
X18914Y31980D01*
X18861Y32050D01*
X18791Y32103D01*
X18709Y32137D01*
X18622Y32149D01*
D02*
G37*
G36*
X16752Y32150D02*
X16476D01*
X16400Y32134D01*
X16334Y32091D01*
X16291Y32026D01*
X16276Y31949D01*
Y31437D01*
X16291Y31360D01*
X16334Y31295D01*
X16400Y31252D01*
X16476Y31236D01*
X16752D01*
X16829Y31252D01*
X16894Y31295D01*
X16921Y31336D01*
X17006Y31352D01*
X17035Y31348D01*
X17045Y31336D01*
X17115Y31282D01*
X17196Y31249D01*
X17283Y31237D01*
X17371Y31249D01*
X17452Y31282D01*
X17522Y31336D01*
X17576Y31406D01*
X17609Y31487D01*
X17621Y31575D01*
Y31811D01*
X17609Y31898D01*
X17576Y31980D01*
X17522Y32050D01*
X17452Y32103D01*
X17371Y32137D01*
X17283Y32149D01*
X17196Y32137D01*
X17115Y32103D01*
X17045Y32050D01*
X17035Y32037D01*
X17006Y32034D01*
X16921Y32050D01*
X16894Y32091D01*
X16829Y32134D01*
X16752Y32150D01*
D02*
G37*
G36*
X27531Y31803D02*
X26705D01*
Y30976D01*
X27531D01*
Y31803D01*
D02*
G37*
G36*
X7141Y31629D02*
X6403D01*
Y30891D01*
X7141D01*
Y31629D01*
D02*
G37*
G36*
X13031Y31757D02*
X11378D01*
X11239Y31738D01*
X11110Y31685D01*
X10999Y31600D01*
X10914Y31489D01*
X10860Y31359D01*
X10842Y31220D01*
X10860Y31082D01*
X10914Y30952D01*
X10999Y30841D01*
X11110Y30756D01*
X11239Y30703D01*
X11378Y30684D01*
X13031D01*
X13170Y30703D01*
X13300Y30756D01*
X13411Y30841D01*
X13496Y30952D01*
X13549Y31082D01*
X13568Y31220D01*
X13549Y31359D01*
X13496Y31489D01*
X13411Y31600D01*
X13300Y31685D01*
X13170Y31738D01*
X13031Y31757D01*
D02*
G37*
G36*
X53304Y31181D02*
X53231D01*
X53161Y31162D01*
X53099Y31126D01*
X53047Y31075D01*
X53011Y31012D01*
X52992Y30942D01*
Y30869D01*
X53011Y30799D01*
X53047Y30736D01*
X53099Y30685D01*
X53161Y30649D01*
X53231Y30630D01*
X53304D01*
X53374Y30649D01*
X53437Y30685D01*
X53488Y30736D01*
X53525Y30799D01*
X53543Y30869D01*
Y30942D01*
X53525Y31012D01*
X53488Y31075D01*
X53437Y31126D01*
X53374Y31162D01*
X53304Y31181D01*
D02*
G37*
G36*
X50981D02*
X50909D01*
X50839Y31162D01*
X50776Y31126D01*
X50724Y31075D01*
X50688Y31012D01*
X50669Y30942D01*
Y30869D01*
X50688Y30799D01*
X50724Y30736D01*
X50776Y30685D01*
X50839Y30649D01*
X50909Y30630D01*
X50981D01*
X51051Y30649D01*
X51114Y30685D01*
X51165Y30736D01*
X51202Y30799D01*
X51220Y30869D01*
Y30942D01*
X51202Y31012D01*
X51165Y31075D01*
X51114Y31126D01*
X51051Y31162D01*
X50981Y31181D01*
D02*
G37*
G36*
X23996Y31004D02*
X23406D01*
Y30413D01*
X23996D01*
Y31004D01*
D02*
G37*
G36*
X27173Y30803D02*
X27064D01*
X26959Y30775D01*
X26864Y30721D01*
X26787Y30644D01*
X26733Y30549D01*
X26705Y30444D01*
Y30335D01*
X26733Y30230D01*
X26787Y30136D01*
X26864Y30059D01*
X26959Y30005D01*
X27064Y29976D01*
X27173D01*
X27278Y30005D01*
X27372Y30059D01*
X27449Y30136D01*
X27503Y30230D01*
X27531Y30335D01*
Y30444D01*
X27503Y30549D01*
X27449Y30644D01*
X27372Y30721D01*
X27278Y30775D01*
X27173Y30803D01*
D02*
G37*
G36*
X48273Y30630D02*
X48145D01*
X48019Y30605D01*
X47901Y30556D01*
X47795Y30485D01*
X47704Y30394D01*
X47633Y30288D01*
X47584Y30170D01*
X47559Y30044D01*
Y29916D01*
X47584Y29791D01*
X47633Y29673D01*
X47704Y29566D01*
X47795Y29476D01*
X47901Y29405D01*
X48019Y29356D01*
X48145Y29331D01*
X48273D01*
X48398Y29356D01*
X48516Y29405D01*
X48623Y29476D01*
X48713Y29566D01*
X48784Y29673D01*
X48833Y29791D01*
X48858Y29916D01*
Y30044D01*
X48833Y30170D01*
X48784Y30288D01*
X48713Y30394D01*
X48623Y30485D01*
X48516Y30556D01*
X48398Y30605D01*
X48273Y30630D01*
D02*
G37*
G36*
X35871D02*
X35743D01*
X35618Y30605D01*
X35499Y30556D01*
X35393Y30485D01*
X35303Y30394D01*
X35231Y30288D01*
X35182Y30170D01*
X35157Y30044D01*
Y29916D01*
X35182Y29791D01*
X35231Y29673D01*
X35303Y29566D01*
X35393Y29476D01*
X35499Y29405D01*
X35618Y29356D01*
X35743Y29331D01*
X35871D01*
X35997Y29356D01*
X36115Y29405D01*
X36221Y29476D01*
X36312Y29566D01*
X36383Y29673D01*
X36432Y29791D01*
X36457Y29916D01*
Y30044D01*
X36432Y30170D01*
X36383Y30288D01*
X36312Y30394D01*
X36221Y30485D01*
X36115Y30556D01*
X35997Y30605D01*
X35871Y30630D01*
D02*
G37*
G36*
X20215Y29859D02*
X19470D01*
Y29115D01*
X20215D01*
Y29859D01*
D02*
G37*
G36*
X27173Y29803D02*
X27064D01*
X26959Y29775D01*
X26864Y29721D01*
X26787Y29644D01*
X26733Y29549D01*
X26705Y29444D01*
Y29335D01*
X26733Y29230D01*
X26787Y29136D01*
X26864Y29059D01*
X26959Y29005D01*
X27064Y28976D01*
X27173D01*
X27278Y29005D01*
X27372Y29059D01*
X27449Y29136D01*
X27503Y29230D01*
X27531Y29335D01*
Y29444D01*
X27503Y29549D01*
X27449Y29644D01*
X27372Y29721D01*
X27278Y29775D01*
X27173Y29803D01*
D02*
G37*
G36*
X16929Y29311D02*
X16378D01*
Y28760D01*
X16929D01*
Y29311D01*
D02*
G37*
G36*
X54330Y29272D02*
X54252D01*
X54177Y29252D01*
X54110Y29213D01*
X54055Y29158D01*
X54016Y29090D01*
X53996Y29015D01*
Y28937D01*
X54016Y28862D01*
X54055Y28795D01*
X54110Y28740D01*
X54177Y28701D01*
X54252Y28681D01*
X54330D01*
X54405Y28701D01*
X54473Y28740D01*
X54528Y28795D01*
X54566Y28862D01*
X54587Y28937D01*
Y29015D01*
X54566Y29090D01*
X54528Y29158D01*
X54473Y29213D01*
X54405Y29252D01*
X54330Y29272D01*
D02*
G37*
G36*
X52860D02*
X52783D01*
X52708Y29252D01*
X52640Y29213D01*
X52585Y29158D01*
X52546Y29090D01*
X52526Y29015D01*
Y28937D01*
X52546Y28862D01*
X52585Y28795D01*
X52640Y28740D01*
X52708Y28701D01*
X52783Y28681D01*
X52860D01*
X52935Y28701D01*
X53003Y28740D01*
X53058Y28795D01*
X53097Y28862D01*
X53117Y28937D01*
Y29015D01*
X53097Y29090D01*
X53058Y29158D01*
X53003Y29213D01*
X52935Y29252D01*
X52860Y29272D01*
D02*
G37*
G36*
X51391D02*
X51313D01*
X51238Y29252D01*
X51170Y29213D01*
X51115Y29158D01*
X51077Y29090D01*
X51056Y29015D01*
Y28937D01*
X51077Y28862D01*
X51115Y28795D01*
X51170Y28740D01*
X51238Y28701D01*
X51313Y28681D01*
X51391D01*
X51466Y28701D01*
X51533Y28740D01*
X51588Y28795D01*
X51627Y28862D01*
X51647Y28937D01*
Y29015D01*
X51627Y29090D01*
X51588Y29158D01*
X51533Y29213D01*
X51466Y29252D01*
X51391Y29272D01*
D02*
G37*
G36*
X49921D02*
X49843D01*
X49768Y29252D01*
X49701Y29213D01*
X49646Y29158D01*
X49607Y29090D01*
X49587Y29015D01*
Y28937D01*
X49607Y28862D01*
X49646Y28795D01*
X49701Y28740D01*
X49768Y28701D01*
X49843Y28681D01*
X49921D01*
X49996Y28701D01*
X50063Y28740D01*
X50118Y28795D01*
X50157Y28862D01*
X50177Y28937D01*
Y29015D01*
X50157Y29090D01*
X50118Y29158D01*
X50063Y29213D01*
X49996Y29252D01*
X49921Y29272D01*
D02*
G37*
G36*
X7141Y28873D02*
X6403D01*
Y28135D01*
X7141D01*
Y28873D01*
D02*
G37*
G36*
X4094Y47426D02*
X197D01*
X152Y47407D01*
X133Y47362D01*
Y28898D01*
X152Y28852D01*
X197Y28834D01*
X2527D01*
X2551Y28793D01*
X2563Y28735D01*
X2510Y28683D01*
X2464Y28602D01*
X2439Y28511D01*
Y28418D01*
X2464Y28327D01*
X2510Y28246D01*
X2577Y28180D01*
X2658Y28133D01*
X2748Y28109D01*
X2842D01*
X2933Y28133D01*
X3014Y28180D01*
X3080Y28246D01*
X3127Y28327D01*
X3151Y28418D01*
Y28511D01*
X3127Y28602D01*
X3080Y28683D01*
X3028Y28735D01*
X3040Y28793D01*
X3064Y28834D01*
X4134D01*
X4179Y28852D01*
X4198Y28898D01*
Y29961D01*
X4185Y29993D01*
X4198Y30025D01*
Y39764D01*
X4179Y39809D01*
X4134Y39828D01*
X1457D01*
X1442Y39838D01*
Y43007D01*
X4094D01*
X4140Y43026D01*
X4158Y43071D01*
Y47362D01*
X4140Y47407D01*
X4094Y47426D01*
D02*
G37*
G36*
X33173Y28803D02*
X33064D01*
X32959Y28775D01*
X32864Y28721D01*
X32787Y28644D01*
X32733Y28549D01*
X32705Y28444D01*
Y28335D01*
X32733Y28230D01*
X32787Y28136D01*
X32864Y28059D01*
X32959Y28005D01*
X33064Y27976D01*
X33173D01*
X33278Y28005D01*
X33372Y28059D01*
X33449Y28136D01*
X33503Y28230D01*
X33531Y28335D01*
Y28444D01*
X33503Y28549D01*
X33449Y28644D01*
X33372Y28721D01*
X33278Y28775D01*
X33173Y28803D01*
D02*
G37*
G36*
X27173D02*
X27064D01*
X26959Y28775D01*
X26864Y28721D01*
X26787Y28644D01*
X26733Y28549D01*
X26705Y28444D01*
Y28335D01*
X26733Y28230D01*
X26787Y28136D01*
X26864Y28059D01*
X26959Y28005D01*
X27064Y27976D01*
X27173D01*
X27278Y28005D01*
X27372Y28059D01*
X27449Y28136D01*
X27503Y28230D01*
X27531Y28335D01*
Y28444D01*
X27503Y28549D01*
X27449Y28644D01*
X27372Y28721D01*
X27278Y28775D01*
X27173Y28803D01*
D02*
G37*
G36*
X33173Y27803D02*
X33064D01*
X32959Y27775D01*
X32864Y27721D01*
X32787Y27644D01*
X32733Y27549D01*
X32705Y27444D01*
Y27335D01*
X32733Y27230D01*
X32787Y27136D01*
X32864Y27059D01*
X32959Y27005D01*
X33064Y26976D01*
X33173D01*
X33278Y27005D01*
X33372Y27059D01*
X33449Y27136D01*
X33503Y27230D01*
X33531Y27335D01*
Y27444D01*
X33503Y27549D01*
X33449Y27644D01*
X33372Y27721D01*
X33278Y27775D01*
X33173Y27803D01*
D02*
G37*
G36*
X27173D02*
X27064D01*
X26959Y27775D01*
X26864Y27721D01*
X26787Y27644D01*
X26733Y27549D01*
X26705Y27444D01*
Y27335D01*
X26733Y27230D01*
X26787Y27136D01*
X26864Y27059D01*
X26959Y27005D01*
X27064Y26976D01*
X27173D01*
X27278Y27005D01*
X27372Y27059D01*
X27449Y27136D01*
X27503Y27230D01*
X27531Y27335D01*
Y27444D01*
X27503Y27549D01*
X27449Y27644D01*
X27372Y27721D01*
X27278Y27775D01*
X27173Y27803D01*
D02*
G37*
G36*
X22184Y26732D02*
X22091D01*
X22001Y26708D01*
X21920Y26661D01*
X21854Y26596D01*
X21808Y26515D01*
X21783Y26425D01*
Y26331D01*
X21808Y26241D01*
X21854Y26160D01*
X21920Y26094D01*
X22001Y26048D01*
X22091Y26024D01*
X22184D01*
X22275Y26048D01*
X22355Y26094D01*
X22421Y26160D01*
X22468Y26241D01*
X22492Y26331D01*
Y26425D01*
X22468Y26515D01*
X22421Y26596D01*
X22355Y26661D01*
X22275Y26708D01*
X22184Y26732D01*
D02*
G37*
G36*
X33173Y26803D02*
X33064D01*
X32959Y26775D01*
X32864Y26721D01*
X32787Y26644D01*
X32733Y26549D01*
X32705Y26444D01*
Y26335D01*
X32733Y26230D01*
X32787Y26136D01*
X32864Y26059D01*
X32959Y26005D01*
X33064Y25976D01*
X33173D01*
X33278Y26005D01*
X33372Y26059D01*
X33449Y26136D01*
X33503Y26230D01*
X33531Y26335D01*
Y26444D01*
X33503Y26549D01*
X33449Y26644D01*
X33372Y26721D01*
X33278Y26775D01*
X33173Y26803D01*
D02*
G37*
G36*
X27173D02*
X27064D01*
X26959Y26775D01*
X26864Y26721D01*
X26787Y26644D01*
X26733Y26549D01*
X26705Y26444D01*
Y26335D01*
X26733Y26230D01*
X26787Y26136D01*
X26864Y26059D01*
X26959Y26005D01*
X27064Y25976D01*
X27173D01*
X27278Y26005D01*
X27372Y26059D01*
X27449Y26136D01*
X27503Y26230D01*
X27531Y26335D01*
Y26444D01*
X27503Y26549D01*
X27449Y26644D01*
X27372Y26721D01*
X27278Y26775D01*
X27173Y26803D01*
D02*
G37*
G36*
X6889Y26373D02*
X6338D01*
Y25822D01*
X6889D01*
Y26373D01*
D02*
G37*
G36*
X5862D02*
X5790D01*
X5719Y26354D01*
X5657Y26318D01*
X5605Y26266D01*
X5569Y26203D01*
X5550Y26133D01*
Y26061D01*
X5569Y25991D01*
X5605Y25928D01*
X5657Y25877D01*
X5719Y25840D01*
X5790Y25822D01*
X5862D01*
X5932Y25840D01*
X5995Y25877D01*
X6046Y25928D01*
X6083Y25991D01*
X6101Y26061D01*
Y26133D01*
X6083Y26203D01*
X6046Y26266D01*
X5995Y26318D01*
X5932Y26354D01*
X5862Y26373D01*
D02*
G37*
G36*
X33173Y25803D02*
X33064D01*
X32959Y25775D01*
X32864Y25721D01*
X32787Y25644D01*
X32733Y25549D01*
X32705Y25444D01*
Y25335D01*
X32733Y25230D01*
X32787Y25136D01*
X32864Y25059D01*
X32959Y25005D01*
X33064Y24976D01*
X33173D01*
X33278Y25005D01*
X33372Y25059D01*
X33449Y25136D01*
X33503Y25230D01*
X33531Y25335D01*
Y25444D01*
X33503Y25549D01*
X33449Y25644D01*
X33372Y25721D01*
X33278Y25775D01*
X33173Y25803D01*
D02*
G37*
G36*
X27173D02*
X27064D01*
X26959Y25775D01*
X26864Y25721D01*
X26787Y25644D01*
X26733Y25549D01*
X26705Y25444D01*
Y25335D01*
X26733Y25230D01*
X26787Y25136D01*
X26864Y25059D01*
X26959Y25005D01*
X27064Y24976D01*
X27173D01*
X27278Y25005D01*
X27372Y25059D01*
X27449Y25136D01*
X27503Y25230D01*
X27531Y25335D01*
Y25444D01*
X27503Y25549D01*
X27449Y25644D01*
X27372Y25721D01*
X27278Y25775D01*
X27173Y25803D01*
D02*
G37*
G36*
X18273Y25572D02*
X18184D01*
X18099Y25550D01*
X18022Y25505D01*
X17959Y25443D01*
X17915Y25366D01*
X17892Y25280D01*
Y25192D01*
X17915Y25106D01*
X17959Y25030D01*
X18022Y24967D01*
X18099Y24923D01*
X18184Y24900D01*
X18273D01*
X18358Y24923D01*
X18435Y24967D01*
X18497Y25030D01*
X18542Y25106D01*
X18565Y25192D01*
Y25280D01*
X18542Y25366D01*
X18497Y25443D01*
X18435Y25505D01*
X18358Y25550D01*
X18273Y25572D01*
D02*
G37*
G36*
X16304D02*
X16216D01*
X16130Y25550D01*
X16053Y25505D01*
X15991Y25443D01*
X15947Y25366D01*
X15924Y25280D01*
Y25192D01*
X15947Y25106D01*
X15991Y25030D01*
X16053Y24967D01*
X16130Y24923D01*
X16216Y24900D01*
X16304D01*
X16390Y24923D01*
X16466Y24967D01*
X16529Y25030D01*
X16573Y25106D01*
X16596Y25192D01*
Y25280D01*
X16573Y25366D01*
X16529Y25443D01*
X16466Y25505D01*
X16390Y25550D01*
X16304Y25572D01*
D02*
G37*
G36*
X2106Y25650D02*
X1280D01*
Y24823D01*
X2106D01*
Y25650D01*
D02*
G37*
G36*
X54330Y24941D02*
X54252D01*
X54177Y24921D01*
X54110Y24882D01*
X54055Y24827D01*
X54016Y24760D01*
X53996Y24685D01*
Y24607D01*
X54016Y24532D01*
X54055Y24464D01*
X54110Y24409D01*
X54177Y24371D01*
X54252Y24350D01*
X54330D01*
X54405Y24371D01*
X54473Y24409D01*
X54528Y24464D01*
X54566Y24532D01*
X54587Y24607D01*
Y24685D01*
X54566Y24760D01*
X54528Y24827D01*
X54473Y24882D01*
X54405Y24921D01*
X54330Y24941D01*
D02*
G37*
G36*
X49921D02*
X49843D01*
X49768Y24921D01*
X49701Y24882D01*
X49646Y24827D01*
X49607Y24760D01*
X49587Y24685D01*
Y24607D01*
X49607Y24532D01*
X49646Y24464D01*
X49701Y24409D01*
X49768Y24371D01*
X49843Y24350D01*
X49921D01*
X49996Y24371D01*
X50063Y24409D01*
X50118Y24464D01*
X50157Y24532D01*
X50177Y24607D01*
Y24685D01*
X50157Y24760D01*
X50118Y24827D01*
X50063Y24882D01*
X49996Y24921D01*
X49921Y24941D01*
D02*
G37*
G36*
X33173Y24803D02*
X33064D01*
X32959Y24775D01*
X32864Y24721D01*
X32787Y24644D01*
X32733Y24549D01*
X32705Y24444D01*
Y24335D01*
X32733Y24230D01*
X32787Y24136D01*
X32864Y24059D01*
X32959Y24005D01*
X33064Y23976D01*
X33173D01*
X33278Y24005D01*
X33372Y24059D01*
X33449Y24136D01*
X33503Y24230D01*
X33531Y24335D01*
Y24444D01*
X33503Y24549D01*
X33449Y24644D01*
X33372Y24721D01*
X33278Y24775D01*
X33173Y24803D01*
D02*
G37*
G36*
X27173D02*
X27064D01*
X26959Y24775D01*
X26864Y24721D01*
X26787Y24644D01*
X26733Y24549D01*
X26705Y24444D01*
Y24335D01*
X26733Y24230D01*
X26787Y24136D01*
X26864Y24059D01*
X26959Y24005D01*
X27064Y23976D01*
X27173D01*
X27278Y24005D01*
X27372Y24059D01*
X27449Y24136D01*
X27503Y24230D01*
X27531Y24335D01*
Y24444D01*
X27503Y24549D01*
X27449Y24644D01*
X27372Y24721D01*
X27278Y24775D01*
X27173Y24803D01*
D02*
G37*
G36*
X24015Y24350D02*
X23937D01*
X23862Y24330D01*
X23795Y24291D01*
X23740Y24236D01*
X23701Y24169D01*
X23681Y24094D01*
Y24016D01*
X23701Y23941D01*
X23740Y23874D01*
X23795Y23819D01*
X23862Y23780D01*
X23937Y23760D01*
X24015D01*
X24090Y23780D01*
X24158Y23819D01*
X24213Y23874D01*
X24252Y23941D01*
X24272Y24016D01*
Y24094D01*
X24252Y24169D01*
X24213Y24236D01*
X24158Y24291D01*
X24090Y24330D01*
X24015Y24350D01*
D02*
G37*
G36*
X19685D02*
X19607D01*
X19532Y24330D01*
X19464Y24291D01*
X19409Y24236D01*
X19371Y24169D01*
X19350Y24094D01*
Y24016D01*
X19371Y23941D01*
X19409Y23874D01*
X19464Y23819D01*
X19532Y23780D01*
X19607Y23760D01*
X19685D01*
X19760Y23780D01*
X19827Y23819D01*
X19882Y23874D01*
X19921Y23941D01*
X19941Y24016D01*
Y24094D01*
X19921Y24169D01*
X19882Y24236D01*
X19827Y24291D01*
X19760Y24330D01*
X19685Y24350D01*
D02*
G37*
G36*
X7244Y23819D02*
X6693D01*
Y23268D01*
X7244D01*
Y23819D01*
D02*
G37*
G36*
X25331Y23406D02*
X25260D01*
X25195Y23379D01*
X25155Y23339D01*
X18228D01*
X18186Y23330D01*
X18150Y23306D01*
X16418Y21574D01*
X16394Y21538D01*
X16386Y21496D01*
Y16975D01*
X15781Y16370D01*
X6417D01*
X6375Y16362D01*
X6339Y16338D01*
X5827Y15826D01*
X5804Y15790D01*
X5795Y15748D01*
Y14849D01*
X5235Y14289D01*
X5232Y14291D01*
X5157Y14311D01*
X5079D01*
X5004Y14291D01*
X4937Y14252D01*
X4882Y14197D01*
X4843Y14130D01*
X4823Y14055D01*
Y13977D01*
X4843Y13902D01*
X4882Y13834D01*
X4937Y13779D01*
X5004Y13741D01*
X5079Y13720D01*
X5157D01*
X5232Y13741D01*
X5299Y13779D01*
X5354Y13834D01*
X5393Y13902D01*
X5413Y13977D01*
Y14055D01*
X5393Y14130D01*
X5391Y14133D01*
X5984Y14725D01*
X6008Y14761D01*
X6016Y14803D01*
Y15702D01*
X6463Y16149D01*
X15827D01*
X15869Y16158D01*
X15905Y16182D01*
X16574Y16851D01*
X16598Y16887D01*
X16606Y16929D01*
Y21450D01*
X18274Y23118D01*
X25155D01*
X25195Y23078D01*
X25260Y23051D01*
X25331D01*
X25396Y23078D01*
X25445Y23128D01*
X25472Y23193D01*
Y23264D01*
X25445Y23329D01*
X25396Y23379D01*
X25331Y23406D01*
D02*
G37*
G36*
X33173Y23803D02*
X33064D01*
X32959Y23775D01*
X32864Y23721D01*
X32787Y23644D01*
X32733Y23549D01*
X32705Y23444D01*
Y23335D01*
X32733Y23230D01*
X32787Y23136D01*
X32864Y23059D01*
X32959Y23005D01*
X33064Y22976D01*
X33173D01*
X33278Y23005D01*
X33372Y23059D01*
X33449Y23136D01*
X33503Y23230D01*
X33531Y23335D01*
Y23444D01*
X33503Y23549D01*
X33449Y23644D01*
X33372Y23721D01*
X33278Y23775D01*
X33173Y23803D01*
D02*
G37*
G36*
X27173D02*
X27064D01*
X26959Y23775D01*
X26864Y23721D01*
X26787Y23644D01*
X26733Y23549D01*
X26705Y23444D01*
Y23335D01*
X26733Y23230D01*
X26787Y23136D01*
X26864Y23059D01*
X26959Y23005D01*
X27064Y22976D01*
X27173D01*
X27278Y23005D01*
X27372Y23059D01*
X27449Y23136D01*
X27503Y23230D01*
X27531Y23335D01*
Y23444D01*
X27503Y23549D01*
X27449Y23644D01*
X27372Y23721D01*
X27278Y23775D01*
X27173Y23803D01*
D02*
G37*
G36*
X1747Y23681D02*
X1638D01*
X1533Y23653D01*
X1439Y23599D01*
X1362Y23522D01*
X1308Y23427D01*
X1280Y23322D01*
Y23213D01*
X1308Y23108D01*
X1362Y23014D01*
X1439Y22937D01*
X1533Y22882D01*
X1638Y22854D01*
X1747D01*
X1852Y22882D01*
X1947Y22937D01*
X2024Y23014D01*
X2078Y23108D01*
X2106Y23213D01*
Y23322D01*
X2078Y23427D01*
X2024Y23522D01*
X1947Y23599D01*
X1852Y23653D01*
X1747Y23681D01*
D02*
G37*
G36*
X33173Y22803D02*
X33064D01*
X32959Y22775D01*
X32864Y22721D01*
X32787Y22644D01*
X32733Y22549D01*
X32721Y22506D01*
X29634D01*
X29589Y22552D01*
X29523Y22579D01*
X29453D01*
X29388Y22552D01*
X29338Y22502D01*
X29311Y22437D01*
Y22366D01*
X29338Y22301D01*
X29388Y22251D01*
X29453Y22224D01*
X29523D01*
X29589Y22251D01*
X29622Y22285D01*
X32718D01*
X32733Y22230D01*
X32787Y22136D01*
X32864Y22059D01*
X32959Y22005D01*
X33064Y21976D01*
X33173D01*
X33278Y22005D01*
X33372Y22059D01*
X33449Y22136D01*
X33503Y22230D01*
X33531Y22335D01*
Y22444D01*
X33503Y22549D01*
X33449Y22644D01*
X33372Y22721D01*
X33278Y22775D01*
X33173Y22803D01*
D02*
G37*
G36*
X53467Y22992D02*
X53384D01*
X53304Y22971D01*
X53232Y22929D01*
X53173Y22871D01*
X53132Y22799D01*
X53110Y22719D01*
Y22636D01*
X53132Y22556D01*
X53173Y22484D01*
X53232Y22425D01*
X53304Y22384D01*
X53384Y22362D01*
X53467D01*
X53547Y22384D01*
X53619Y22425D01*
X53677Y22484D01*
X53719Y22556D01*
X53740Y22636D01*
Y22719D01*
X53719Y22799D01*
X53677Y22871D01*
X53619Y22929D01*
X53547Y22971D01*
X53467Y22992D01*
D02*
G37*
G36*
X52482D02*
X52399D01*
X52319Y22971D01*
X52248Y22929D01*
X52189Y22871D01*
X52147Y22799D01*
X52126Y22719D01*
Y22636D01*
X52147Y22556D01*
X52189Y22484D01*
X52248Y22425D01*
X52319Y22384D01*
X52399Y22362D01*
X52482D01*
X52563Y22384D01*
X52634Y22425D01*
X52693Y22484D01*
X52734Y22556D01*
X52756Y22636D01*
Y22719D01*
X52734Y22799D01*
X52693Y22871D01*
X52634Y22929D01*
X52563Y22971D01*
X52482Y22992D01*
D02*
G37*
G36*
X50653Y23035D02*
X50292D01*
X50200Y23022D01*
X50113Y22987D01*
X50039Y22930D01*
X49983Y22856D01*
X49947Y22770D01*
X49935Y22677D01*
X49947Y22585D01*
X49983Y22498D01*
X50039Y22424D01*
X50113Y22368D01*
X50200Y22332D01*
X50292Y22320D01*
X50653D01*
X50745Y22332D01*
X50831Y22368D01*
X50905Y22424D01*
X50962Y22498D01*
X50998Y22585D01*
X51010Y22677D01*
X50998Y22770D01*
X50962Y22856D01*
X50905Y22930D01*
X50831Y22987D01*
X50745Y23022D01*
X50653Y23035D01*
D02*
G37*
G36*
X27173Y22803D02*
X27064D01*
X26959Y22775D01*
X26864Y22721D01*
X26787Y22644D01*
X26733Y22549D01*
X26705Y22444D01*
Y22335D01*
X26733Y22230D01*
X26787Y22136D01*
X26864Y22059D01*
X26959Y22005D01*
X27064Y21976D01*
X27173D01*
X27278Y22005D01*
X27372Y22059D01*
X27449Y22136D01*
X27503Y22230D01*
X27531Y22335D01*
Y22444D01*
X27503Y22549D01*
X27449Y22644D01*
X27372Y22721D01*
X27278Y22775D01*
X27173Y22803D01*
D02*
G37*
G36*
X24902Y22130D02*
X24818D01*
X24737Y22108D01*
X24664Y22066D01*
X24605Y22007D01*
X24563Y21934D01*
X24541Y21853D01*
Y21769D01*
X24563Y21688D01*
X24605Y21615D01*
X24664Y21556D01*
X24737Y21514D01*
X24818Y21493D01*
X24902D01*
X24983Y21514D01*
X25055Y21556D01*
X25115Y21615D01*
X25157Y21688D01*
X25178Y21769D01*
Y21853D01*
X25157Y21934D01*
X25115Y22007D01*
X25055Y22066D01*
X24983Y22108D01*
X24902Y22130D01*
D02*
G37*
G36*
X22916D02*
X22832D01*
X22751Y22108D01*
X22678Y22066D01*
X22619Y22007D01*
X22577Y21934D01*
X22556Y21853D01*
Y21769D01*
X22577Y21688D01*
X22619Y21615D01*
X22678Y21556D01*
X22751Y21514D01*
X22832Y21493D01*
X22916D01*
X22997Y21514D01*
X23070Y21556D01*
X23129Y21615D01*
X23171Y21688D01*
X23193Y21769D01*
Y21853D01*
X23171Y21934D01*
X23129Y22007D01*
X23070Y22066D01*
X22997Y22108D01*
X22916Y22130D01*
D02*
G37*
G36*
X20930D02*
X20846D01*
X20765Y22108D01*
X20693Y22066D01*
X20633Y22007D01*
X20591Y21934D01*
X20570Y21853D01*
Y21769D01*
X20591Y21688D01*
X20633Y21615D01*
X20693Y21556D01*
X20765Y21514D01*
X20846Y21493D01*
X20930D01*
X21011Y21514D01*
X21084Y21556D01*
X21143Y21615D01*
X21185Y21688D01*
X21207Y21769D01*
Y21853D01*
X21185Y21934D01*
X21143Y22007D01*
X21084Y22066D01*
X21011Y22108D01*
X20930Y22130D01*
D02*
G37*
G36*
X50653Y22050D02*
X50292D01*
X50200Y22038D01*
X50113Y22002D01*
X50039Y21946D01*
X49983Y21872D01*
X49947Y21785D01*
X49935Y21693D01*
X49947Y21600D01*
X49983Y21514D01*
X50039Y21440D01*
X50113Y21383D01*
X50200Y21348D01*
X50292Y21336D01*
X50653D01*
X50745Y21348D01*
X50831Y21383D01*
X50905Y21440D01*
X50962Y21514D01*
X50998Y21600D01*
X51010Y21693D01*
X50998Y21785D01*
X50962Y21872D01*
X50905Y21946D01*
X50831Y22002D01*
X50745Y22038D01*
X50653Y22050D01*
D02*
G37*
G36*
X15424Y21815D02*
X15340D01*
X15259Y21793D01*
X15186Y21751D01*
X15127Y21692D01*
X15085Y21619D01*
X15063Y21538D01*
Y21454D01*
X15085Y21373D01*
X15127Y21300D01*
X15186Y21241D01*
X15259Y21199D01*
X15340Y21178D01*
X15424D01*
X15505Y21199D01*
X15577Y21241D01*
X15637Y21300D01*
X15679Y21373D01*
X15700Y21454D01*
Y21538D01*
X15679Y21619D01*
X15637Y21692D01*
X15577Y21751D01*
X15505Y21793D01*
X15424Y21815D01*
D02*
G37*
G36*
X13140D02*
X13056D01*
X12975Y21793D01*
X12903Y21751D01*
X12843Y21692D01*
X12801Y21619D01*
X12780Y21538D01*
Y21454D01*
X12801Y21373D01*
X12843Y21300D01*
X12903Y21241D01*
X12975Y21199D01*
X13056Y21178D01*
X13140D01*
X13221Y21199D01*
X13294Y21241D01*
X13353Y21300D01*
X13395Y21373D01*
X13417Y21454D01*
Y21538D01*
X13395Y21619D01*
X13353Y21692D01*
X13294Y21751D01*
X13221Y21793D01*
X13140Y21815D01*
D02*
G37*
G36*
X10817D02*
X10734D01*
X10653Y21793D01*
X10580Y21751D01*
X10521Y21692D01*
X10479Y21619D01*
X10457Y21538D01*
Y21454D01*
X10479Y21373D01*
X10521Y21300D01*
X10580Y21241D01*
X10653Y21199D01*
X10734Y21178D01*
X10817D01*
X10898Y21199D01*
X10971Y21241D01*
X11030Y21300D01*
X11072Y21373D01*
X11094Y21454D01*
Y21538D01*
X11072Y21619D01*
X11030Y21692D01*
X10971Y21751D01*
X10898Y21793D01*
X10817Y21815D01*
D02*
G37*
G36*
X29720Y22067D02*
X29650D01*
X29585Y22040D01*
X29535Y21990D01*
X29508Y21925D01*
Y21855D01*
X29535Y21789D01*
X29585Y21740D01*
X29650Y21713D01*
X29720D01*
X29785Y21740D01*
X29825Y21779D01*
X32572D01*
X32758Y21593D01*
X32733Y21549D01*
X32705Y21444D01*
Y21335D01*
X32733Y21230D01*
X32787Y21136D01*
X32864Y21059D01*
X32959Y21005D01*
X33064Y20976D01*
X33173D01*
X33278Y21005D01*
X33372Y21059D01*
X33449Y21136D01*
X33503Y21230D01*
X33531Y21335D01*
Y21444D01*
X33503Y21549D01*
X33449Y21644D01*
X33372Y21721D01*
X33278Y21775D01*
X33173Y21803D01*
X33064D01*
X32959Y21775D01*
X32914Y21750D01*
X32696Y21968D01*
X32660Y21992D01*
X32618Y22000D01*
X29825D01*
X29785Y22040D01*
X29720Y22067D01*
D02*
G37*
G36*
X27173Y21803D02*
X27064D01*
X26959Y21775D01*
X26864Y21721D01*
X26787Y21644D01*
X26733Y21549D01*
X26705Y21444D01*
Y21335D01*
X26733Y21230D01*
X26787Y21136D01*
X26864Y21059D01*
X26959Y21005D01*
X27064Y20976D01*
X27173D01*
X27278Y21005D01*
X27372Y21059D01*
X27449Y21136D01*
X27503Y21230D01*
X27531Y21335D01*
Y21444D01*
X27503Y21549D01*
X27449Y21644D01*
X27372Y21721D01*
X27278Y21775D01*
X27173Y21803D01*
D02*
G37*
G36*
X7244Y21024D02*
X6693D01*
Y20472D01*
X7244D01*
Y21024D01*
D02*
G37*
G36*
X50514D02*
X50431D01*
X50351Y21002D01*
X50279Y20961D01*
X50220Y20902D01*
X50179Y20830D01*
X50157Y20750D01*
Y20667D01*
X50179Y20587D01*
X50220Y20515D01*
X50279Y20457D01*
X50351Y20415D01*
X50431Y20394D01*
X50514D01*
X50594Y20415D01*
X50666Y20457D01*
X50724Y20515D01*
X50766Y20587D01*
X50787Y20667D01*
Y20750D01*
X50766Y20830D01*
X50724Y20902D01*
X50666Y20961D01*
X50594Y21002D01*
X50514Y21024D01*
D02*
G37*
G36*
X27173Y20803D02*
X27064D01*
X26959Y20775D01*
X26864Y20721D01*
X26787Y20644D01*
X26733Y20549D01*
X26705Y20444D01*
Y20335D01*
X26733Y20230D01*
X26787Y20136D01*
X26864Y20059D01*
X26959Y20005D01*
X27064Y19976D01*
X27173D01*
X27278Y20005D01*
X27372Y20059D01*
X27449Y20136D01*
X27503Y20230D01*
X27531Y20335D01*
Y20444D01*
X27503Y20549D01*
X27449Y20644D01*
X27372Y20721D01*
X27278Y20775D01*
X27173Y20803D01*
D02*
G37*
G36*
X15669Y20256D02*
X15591D01*
X15516Y20236D01*
X15449Y20197D01*
X15394Y20142D01*
X15355Y20075D01*
X15335Y20000D01*
Y19922D01*
X15355Y19847D01*
X15394Y19779D01*
X15449Y19724D01*
X15516Y19685D01*
X15591Y19665D01*
X15669D01*
X15744Y19685D01*
X15811Y19724D01*
X15866Y19779D01*
X15905Y19847D01*
X15925Y19922D01*
Y20000D01*
X15905Y20075D01*
X15866Y20142D01*
X15811Y20197D01*
X15744Y20236D01*
X15669Y20256D01*
D02*
G37*
G36*
X11338D02*
X11260D01*
X11185Y20236D01*
X11118Y20197D01*
X11063Y20142D01*
X11024Y20075D01*
X11004Y20000D01*
Y19922D01*
X11024Y19847D01*
X11063Y19779D01*
X11118Y19724D01*
X11185Y19685D01*
X11260Y19665D01*
X11338D01*
X11413Y19685D01*
X11481Y19724D01*
X11535Y19779D01*
X11574Y19847D01*
X11594Y19922D01*
Y20000D01*
X11574Y20075D01*
X11535Y20142D01*
X11481Y20197D01*
X11413Y20236D01*
X11338Y20256D01*
D02*
G37*
G36*
X50653Y20082D02*
X50292D01*
X50200Y20070D01*
X50113Y20034D01*
X50039Y19977D01*
X49983Y19903D01*
X49947Y19817D01*
X49935Y19724D01*
X49947Y19632D01*
X49983Y19546D01*
X50039Y19472D01*
X50113Y19415D01*
X50200Y19379D01*
X50292Y19367D01*
X50653D01*
X50745Y19379D01*
X50831Y19415D01*
X50905Y19472D01*
X50962Y19546D01*
X50998Y19632D01*
X51010Y19724D01*
X50998Y19817D01*
X50962Y19903D01*
X50905Y19977D01*
X50831Y20034D01*
X50745Y20070D01*
X50653Y20082D01*
D02*
G37*
G36*
X24902Y19885D02*
X24818D01*
X24737Y19864D01*
X24664Y19822D01*
X24605Y19763D01*
X24563Y19690D01*
X24541Y19609D01*
Y19525D01*
X24563Y19444D01*
X24605Y19371D01*
X24664Y19312D01*
X24737Y19270D01*
X24818Y19248D01*
X24902D01*
X24983Y19270D01*
X25055Y19312D01*
X25115Y19371D01*
X25157Y19444D01*
X25178Y19525D01*
Y19609D01*
X25157Y19690D01*
X25115Y19763D01*
X25055Y19822D01*
X24983Y19864D01*
X24902Y19885D01*
D02*
G37*
G36*
X22916D02*
X22832D01*
X22751Y19864D01*
X22678Y19822D01*
X22619Y19763D01*
X22577Y19690D01*
X22556Y19609D01*
Y19525D01*
X22577Y19444D01*
X22619Y19371D01*
X22678Y19312D01*
X22751Y19270D01*
X22832Y19248D01*
X22916D01*
X22997Y19270D01*
X23070Y19312D01*
X23129Y19371D01*
X23171Y19444D01*
X23193Y19525D01*
Y19609D01*
X23171Y19690D01*
X23129Y19763D01*
X23070Y19822D01*
X22997Y19864D01*
X22916Y19885D01*
D02*
G37*
G36*
X20930D02*
X20846D01*
X20765Y19864D01*
X20693Y19822D01*
X20633Y19763D01*
X20591Y19690D01*
X20570Y19609D01*
Y19525D01*
X20591Y19444D01*
X20633Y19371D01*
X20693Y19312D01*
X20765Y19270D01*
X20846Y19248D01*
X20930D01*
X21011Y19270D01*
X21084Y19312D01*
X21143Y19371D01*
X21185Y19444D01*
X21207Y19525D01*
Y19609D01*
X21185Y19690D01*
X21143Y19763D01*
X21084Y19822D01*
X21011Y19864D01*
X20930Y19885D01*
D02*
G37*
G36*
X27173Y19803D02*
X27064D01*
X26959Y19775D01*
X26864Y19721D01*
X26787Y19644D01*
X26733Y19549D01*
X26705Y19444D01*
Y19335D01*
X26733Y19230D01*
X26787Y19136D01*
X26864Y19059D01*
X26959Y19005D01*
X27064Y18976D01*
X27173D01*
X27278Y19005D01*
X27372Y19059D01*
X27449Y19136D01*
X27503Y19230D01*
X27531Y19335D01*
Y19444D01*
X27503Y19549D01*
X27449Y19644D01*
X27372Y19721D01*
X27278Y19775D01*
X27173Y19803D01*
D02*
G37*
G36*
X53467Y19055D02*
X53384D01*
X53304Y19034D01*
X53232Y18992D01*
X53173Y18934D01*
X53132Y18862D01*
X53110Y18782D01*
Y18699D01*
X53132Y18619D01*
X53173Y18547D01*
X53232Y18488D01*
X53304Y18447D01*
X53384Y18425D01*
X53467D01*
X53547Y18447D01*
X53619Y18488D01*
X53677Y18547D01*
X53719Y18619D01*
X53740Y18699D01*
Y18782D01*
X53719Y18862D01*
X53677Y18934D01*
X53619Y18992D01*
X53547Y19034D01*
X53467Y19055D01*
D02*
G37*
G36*
X52482D02*
X52399D01*
X52319Y19034D01*
X52248Y18992D01*
X52189Y18934D01*
X52147Y18862D01*
X52126Y18782D01*
Y18699D01*
X52147Y18619D01*
X52189Y18547D01*
X52248Y18488D01*
X52319Y18447D01*
X52399Y18425D01*
X52482D01*
X52563Y18447D01*
X52634Y18488D01*
X52693Y18547D01*
X52734Y18619D01*
X52756Y18699D01*
Y18782D01*
X52734Y18862D01*
X52693Y18934D01*
X52634Y18992D01*
X52563Y19034D01*
X52482Y19055D01*
D02*
G37*
G36*
X50653Y19098D02*
X50292D01*
X50200Y19085D01*
X50113Y19050D01*
X50039Y18993D01*
X49983Y18919D01*
X49947Y18833D01*
X49935Y18740D01*
X49947Y18648D01*
X49983Y18561D01*
X50039Y18487D01*
X50113Y18431D01*
X50200Y18395D01*
X50292Y18383D01*
X50653D01*
X50745Y18395D01*
X50831Y18431D01*
X50905Y18487D01*
X50962Y18561D01*
X50998Y18648D01*
X51010Y18740D01*
X50998Y18833D01*
X50962Y18919D01*
X50905Y18993D01*
X50831Y19050D01*
X50745Y19085D01*
X50653Y19098D01*
D02*
G37*
G36*
X11338Y18681D02*
X11260D01*
X11185Y18661D01*
X11118Y18622D01*
X11063Y18567D01*
X11024Y18500D01*
X11004Y18425D01*
Y18347D01*
X11024Y18272D01*
X11063Y18205D01*
X11118Y18150D01*
X11185Y18111D01*
X11260Y18091D01*
X11338D01*
X11413Y18111D01*
X11481Y18150D01*
X11535Y18205D01*
X11574Y18272D01*
X11594Y18347D01*
Y18425D01*
X11574Y18500D01*
X11535Y18567D01*
X11481Y18622D01*
X11413Y18661D01*
X11338Y18681D01*
D02*
G37*
G36*
X27173Y18803D02*
X27064D01*
X26959Y18775D01*
X26864Y18721D01*
X26787Y18644D01*
X26733Y18549D01*
X26705Y18444D01*
Y18335D01*
X26733Y18230D01*
X26787Y18136D01*
X26864Y18059D01*
X26959Y18005D01*
X27064Y17976D01*
X27173D01*
X27278Y18005D01*
X27372Y18059D01*
X27449Y18136D01*
X27503Y18230D01*
X27531Y18335D01*
Y18444D01*
X27503Y18549D01*
X27449Y18644D01*
X27372Y18721D01*
X27278Y18775D01*
X27173Y18803D01*
D02*
G37*
G36*
X24403Y18380D02*
X24329D01*
X24257Y18361D01*
X24193Y18324D01*
X24141Y18271D01*
X24104Y18207D01*
X24085Y18135D01*
Y18061D01*
X24104Y17990D01*
X24141Y17926D01*
X24193Y17873D01*
X24257Y17836D01*
X24329Y17817D01*
X24403D01*
X24475Y17836D01*
X24539Y17873D01*
X24591Y17926D01*
X24628Y17990D01*
X24648Y18061D01*
Y18135D01*
X24628Y18207D01*
X24591Y18271D01*
X24539Y18324D01*
X24475Y18361D01*
X24403Y18380D01*
D02*
G37*
G36*
X23403D02*
X23329D01*
X23257Y18361D01*
X23193Y18324D01*
X23141Y18271D01*
X23104Y18207D01*
X23085Y18135D01*
Y18061D01*
X23104Y17990D01*
X23141Y17926D01*
X23193Y17873D01*
X23257Y17836D01*
X23329Y17817D01*
X23403D01*
X23475Y17836D01*
X23539Y17873D01*
X23591Y17926D01*
X23628Y17990D01*
X23648Y18061D01*
Y18135D01*
X23628Y18207D01*
X23591Y18271D01*
X23539Y18324D01*
X23475Y18361D01*
X23403Y18380D01*
D02*
G37*
G36*
X22403D02*
X22329D01*
X22257Y18361D01*
X22193Y18324D01*
X22141Y18271D01*
X22104Y18207D01*
X22085Y18135D01*
Y18061D01*
X22104Y17990D01*
X22141Y17926D01*
X22193Y17873D01*
X22257Y17836D01*
X22329Y17817D01*
X22403D01*
X22475Y17836D01*
X22539Y17873D01*
X22591Y17926D01*
X22628Y17990D01*
X22648Y18061D01*
Y18135D01*
X22628Y18207D01*
X22591Y18271D01*
X22539Y18324D01*
X22475Y18361D01*
X22403Y18380D01*
D02*
G37*
G36*
X21403D02*
X21329D01*
X21257Y18361D01*
X21193Y18324D01*
X21141Y18271D01*
X21104Y18207D01*
X21085Y18135D01*
Y18061D01*
X21104Y17990D01*
X21141Y17926D01*
X21193Y17873D01*
X21257Y17836D01*
X21329Y17817D01*
X21403D01*
X21475Y17836D01*
X21539Y17873D01*
X21591Y17926D01*
X21628Y17990D01*
X21648Y18061D01*
Y18135D01*
X21628Y18207D01*
X21591Y18271D01*
X21539Y18324D01*
X21475Y18361D01*
X21403Y18380D01*
D02*
G37*
G36*
X20403D02*
X20329D01*
X20257Y18361D01*
X20193Y18324D01*
X20141Y18271D01*
X20104Y18207D01*
X20085Y18135D01*
Y18061D01*
X20104Y17990D01*
X20141Y17926D01*
X20193Y17873D01*
X20257Y17836D01*
X20329Y17817D01*
X20403D01*
X20475Y17836D01*
X20539Y17873D01*
X20591Y17926D01*
X20628Y17990D01*
X20648Y18061D01*
Y18135D01*
X20628Y18207D01*
X20591Y18271D01*
X20539Y18324D01*
X20475Y18361D01*
X20403Y18380D01*
D02*
G37*
G36*
X19403D02*
X19329D01*
X19257Y18361D01*
X19193Y18324D01*
X19141Y18271D01*
X19104Y18207D01*
X19085Y18135D01*
Y18061D01*
X19104Y17990D01*
X19141Y17926D01*
X19193Y17873D01*
X19257Y17836D01*
X19329Y17817D01*
X19403D01*
X19475Y17836D01*
X19539Y17873D01*
X19591Y17926D01*
X19628Y17990D01*
X19648Y18061D01*
Y18135D01*
X19628Y18207D01*
X19591Y18271D01*
X19539Y18324D01*
X19475Y18361D01*
X19403Y18380D01*
D02*
G37*
G36*
X18403D02*
X18329D01*
X18257Y18361D01*
X18193Y18324D01*
X18141Y18271D01*
X18104Y18207D01*
X18085Y18135D01*
Y18061D01*
X18104Y17990D01*
X18141Y17926D01*
X18193Y17873D01*
X18257Y17836D01*
X18329Y17817D01*
X18403D01*
X18475Y17836D01*
X18539Y17873D01*
X18591Y17926D01*
X18628Y17990D01*
X18648Y18061D01*
Y18135D01*
X18628Y18207D01*
X18591Y18271D01*
X18539Y18324D01*
X18475Y18361D01*
X18403Y18380D01*
D02*
G37*
G36*
X48273Y18937D02*
X48145D01*
X48019Y18912D01*
X47901Y18863D01*
X47795Y18792D01*
X47704Y18701D01*
X47633Y18595D01*
X47584Y18477D01*
X47559Y18351D01*
Y18223D01*
X47584Y18098D01*
X47633Y17980D01*
X47704Y17873D01*
X47795Y17783D01*
X47901Y17712D01*
X48019Y17663D01*
X48145Y17638D01*
X48273D01*
X48398Y17663D01*
X48516Y17712D01*
X48623Y17783D01*
X48713Y17873D01*
X48784Y17980D01*
X48833Y18098D01*
X48858Y18223D01*
Y18351D01*
X48833Y18477D01*
X48784Y18595D01*
X48713Y18701D01*
X48623Y18792D01*
X48516Y18863D01*
X48398Y18912D01*
X48273Y18937D01*
D02*
G37*
G36*
X35871D02*
X35743D01*
X35618Y18912D01*
X35499Y18863D01*
X35393Y18792D01*
X35303Y18701D01*
X35231Y18595D01*
X35182Y18477D01*
X35157Y18351D01*
Y18223D01*
X35182Y18098D01*
X35231Y17980D01*
X35303Y17873D01*
X35393Y17783D01*
X35499Y17712D01*
X35618Y17663D01*
X35743Y17638D01*
X35871D01*
X35997Y17663D01*
X36115Y17712D01*
X36221Y17783D01*
X36312Y17873D01*
X36383Y17980D01*
X36432Y18098D01*
X36457Y18223D01*
Y18351D01*
X36432Y18477D01*
X36383Y18595D01*
X36312Y18701D01*
X36221Y18792D01*
X36115Y18863D01*
X35997Y18912D01*
X35871Y18937D01*
D02*
G37*
G36*
X33173Y17803D02*
X33064D01*
X32959Y17775D01*
X32864Y17721D01*
X32787Y17644D01*
X32733Y17549D01*
X32705Y17444D01*
Y17335D01*
X32733Y17230D01*
X32787Y17136D01*
X32864Y17059D01*
X32959Y17005D01*
X33064Y16976D01*
X33173D01*
X33278Y17005D01*
X33372Y17059D01*
X33449Y17136D01*
X33503Y17230D01*
X33531Y17335D01*
Y17444D01*
X33503Y17549D01*
X33449Y17644D01*
X33372Y17721D01*
X33278Y17775D01*
X33173Y17803D01*
D02*
G37*
G36*
X27173D02*
X27064D01*
X26959Y17775D01*
X26864Y17721D01*
X26787Y17644D01*
X26733Y17549D01*
X26705Y17444D01*
Y17335D01*
X26733Y17230D01*
X26787Y17136D01*
X26864Y17059D01*
X26959Y17005D01*
X27064Y16976D01*
X27173D01*
X27278Y17005D01*
X27372Y17059D01*
X27449Y17136D01*
X27503Y17230D01*
X27531Y17335D01*
Y17444D01*
X27503Y17549D01*
X27449Y17644D01*
X27372Y17721D01*
X27278Y17775D01*
X27173Y17803D01*
D02*
G37*
G36*
X2146Y17539D02*
X1319D01*
Y16713D01*
X2146D01*
Y17539D01*
D02*
G37*
G36*
X11338Y17126D02*
X11260D01*
X11185Y17106D01*
X11118Y17067D01*
X11063Y17012D01*
X11024Y16945D01*
X11004Y16870D01*
Y16792D01*
X11024Y16717D01*
X11063Y16649D01*
X11118Y16594D01*
X11185Y16556D01*
X11260Y16535D01*
X11338D01*
X11413Y16556D01*
X11481Y16594D01*
X11535Y16649D01*
X11574Y16717D01*
X11594Y16792D01*
Y16870D01*
X11574Y16945D01*
X11535Y17012D01*
X11481Y17067D01*
X11413Y17106D01*
X11338Y17126D01*
D02*
G37*
G36*
X33173Y16803D02*
X33064D01*
X32959Y16775D01*
X32864Y16721D01*
X32787Y16644D01*
X32733Y16549D01*
X32705Y16444D01*
Y16335D01*
X32733Y16230D01*
X32787Y16136D01*
X32864Y16059D01*
X32959Y16005D01*
X33064Y15976D01*
X33173D01*
X33278Y16005D01*
X33372Y16059D01*
X33449Y16136D01*
X33503Y16230D01*
X33531Y16335D01*
Y16444D01*
X33503Y16549D01*
X33449Y16644D01*
X33372Y16721D01*
X33278Y16775D01*
X33173Y16803D01*
D02*
G37*
G36*
X27173D02*
X27064D01*
X26959Y16775D01*
X26864Y16721D01*
X26787Y16644D01*
X26733Y16549D01*
X26705Y16444D01*
Y16335D01*
X26733Y16230D01*
X26787Y16136D01*
X26864Y16059D01*
X26959Y16005D01*
X27064Y15976D01*
X27173D01*
X27278Y16005D01*
X27372Y16059D01*
X27449Y16136D01*
X27503Y16230D01*
X27531Y16335D01*
Y16444D01*
X27503Y16549D01*
X27449Y16644D01*
X27372Y16721D01*
X27278Y16775D01*
X27173Y16803D01*
D02*
G37*
G36*
X7348Y15766D02*
X7274D01*
X7202Y15747D01*
X7138Y15710D01*
X7086Y15657D01*
X7049Y15593D01*
X7030Y15521D01*
Y15447D01*
X7049Y15376D01*
X7086Y15311D01*
X7138Y15259D01*
X7202Y15222D01*
X7274Y15203D01*
X7348D01*
X7420Y15222D01*
X7484Y15259D01*
X7536Y15311D01*
X7573Y15376D01*
X7593Y15447D01*
Y15521D01*
X7573Y15593D01*
X7536Y15657D01*
X7484Y15710D01*
X7420Y15747D01*
X7348Y15766D01*
D02*
G37*
G36*
X5593D02*
X5030D01*
Y15203D01*
X5593D01*
Y15766D01*
D02*
G37*
G36*
X50137Y16053D02*
X50020D01*
X49908Y16023D01*
X49807Y15965D01*
X49724Y15882D01*
X49666Y15781D01*
X49636Y15669D01*
Y15552D01*
X49666Y15439D01*
X49724Y15338D01*
X49807Y15256D01*
X49908Y15198D01*
X50020Y15167D01*
X50137D01*
X50250Y15198D01*
X50351Y15256D01*
X50433Y15338D01*
X50491Y15439D01*
X50522Y15552D01*
Y15669D01*
X50491Y15781D01*
X50433Y15882D01*
X50351Y15965D01*
X50250Y16023D01*
X50137Y16053D01*
D02*
G37*
G36*
X43385D02*
X43268D01*
X43156Y16023D01*
X43055Y15965D01*
X42972Y15882D01*
X42914Y15781D01*
X42884Y15669D01*
Y15552D01*
X42914Y15439D01*
X42972Y15338D01*
X43055Y15256D01*
X43156Y15198D01*
X43268Y15167D01*
X43385D01*
X43498Y15198D01*
X43599Y15256D01*
X43681Y15338D01*
X43740Y15439D01*
X43770Y15552D01*
Y15669D01*
X43740Y15781D01*
X43681Y15882D01*
X43599Y15965D01*
X43498Y16023D01*
X43385Y16053D01*
D02*
G37*
G36*
X36633D02*
X36516D01*
X36404Y16023D01*
X36303Y15965D01*
X36220Y15882D01*
X36162Y15781D01*
X36132Y15669D01*
Y15552D01*
X36162Y15439D01*
X36220Y15338D01*
X36303Y15256D01*
X36404Y15198D01*
X36516Y15167D01*
X36633D01*
X36746Y15198D01*
X36847Y15256D01*
X36929Y15338D01*
X36988Y15439D01*
X37018Y15552D01*
Y15669D01*
X36988Y15781D01*
X36929Y15882D01*
X36847Y15965D01*
X36746Y16023D01*
X36633Y16053D01*
D02*
G37*
G36*
X33173Y15803D02*
X33064D01*
X32959Y15775D01*
X32864Y15721D01*
X32787Y15644D01*
X32733Y15549D01*
X32705Y15444D01*
Y15335D01*
X32733Y15230D01*
X32787Y15136D01*
X32864Y15059D01*
X32959Y15005D01*
X33064Y14976D01*
X33173D01*
X33278Y15005D01*
X33372Y15059D01*
X33449Y15136D01*
X33503Y15230D01*
X33531Y15335D01*
Y15444D01*
X33503Y15549D01*
X33449Y15644D01*
X33372Y15721D01*
X33278Y15775D01*
X33173Y15803D01*
D02*
G37*
G36*
X1787Y15571D02*
X1678D01*
X1573Y15543D01*
X1478Y15488D01*
X1401Y15411D01*
X1347Y15317D01*
X1319Y15212D01*
Y15103D01*
X1347Y14998D01*
X1401Y14904D01*
X1478Y14827D01*
X1573Y14772D01*
X1678Y14744D01*
X1787D01*
X1892Y14772D01*
X1986Y14827D01*
X2063Y14904D01*
X2118Y14998D01*
X2146Y15103D01*
Y15212D01*
X2118Y15317D01*
X2063Y15411D01*
X1986Y15488D01*
X1892Y15543D01*
X1787Y15571D01*
D02*
G37*
G36*
X22403Y15254D02*
X22329D01*
X22257Y15235D01*
X22193Y15198D01*
X22141Y15145D01*
X22104Y15081D01*
X22085Y15009D01*
Y14935D01*
X22104Y14864D01*
X22141Y14800D01*
X22193Y14747D01*
X22257Y14710D01*
X22329Y14691D01*
X22403D01*
X22475Y14710D01*
X22539Y14747D01*
X22591Y14800D01*
X22628Y14864D01*
X22648Y14935D01*
Y15009D01*
X22628Y15081D01*
X22591Y15145D01*
X22539Y15198D01*
X22475Y15235D01*
X22403Y15254D01*
D02*
G37*
G36*
X21403D02*
X21329D01*
X21257Y15235D01*
X21193Y15198D01*
X21141Y15145D01*
X21104Y15081D01*
X21085Y15009D01*
Y14935D01*
X21104Y14864D01*
X21141Y14800D01*
X21193Y14747D01*
X21257Y14710D01*
X21329Y14691D01*
X21403D01*
X21475Y14710D01*
X21539Y14747D01*
X21591Y14800D01*
X21628Y14864D01*
X21648Y14935D01*
Y15009D01*
X21628Y15081D01*
X21591Y15145D01*
X21539Y15198D01*
X21475Y15235D01*
X21403Y15254D01*
D02*
G37*
G36*
X20403D02*
X20329D01*
X20257Y15235D01*
X20193Y15198D01*
X20141Y15145D01*
X20104Y15081D01*
X20085Y15009D01*
Y14935D01*
X20104Y14864D01*
X20141Y14800D01*
X20193Y14747D01*
X20257Y14710D01*
X20329Y14691D01*
X20403D01*
X20475Y14710D01*
X20539Y14747D01*
X20591Y14800D01*
X20628Y14864D01*
X20648Y14935D01*
Y15009D01*
X20628Y15081D01*
X20591Y15145D01*
X20539Y15198D01*
X20475Y15235D01*
X20403Y15254D01*
D02*
G37*
G36*
X19403D02*
X19329D01*
X19257Y15235D01*
X19193Y15198D01*
X19141Y15145D01*
X19104Y15081D01*
X19085Y15009D01*
Y14935D01*
X19104Y14864D01*
X19141Y14800D01*
X19193Y14747D01*
X19257Y14710D01*
X19329Y14691D01*
X19403D01*
X19475Y14710D01*
X19539Y14747D01*
X19591Y14800D01*
X19628Y14864D01*
X19648Y14935D01*
Y15009D01*
X19628Y15081D01*
X19591Y15145D01*
X19539Y15198D01*
X19475Y15235D01*
X19403Y15254D01*
D02*
G37*
G36*
X18403D02*
X18329D01*
X18257Y15235D01*
X18193Y15198D01*
X18141Y15145D01*
X18104Y15081D01*
X18085Y15009D01*
Y14935D01*
X18104Y14864D01*
X18141Y14800D01*
X18193Y14747D01*
X18257Y14710D01*
X18329Y14691D01*
X18403D01*
X18475Y14710D01*
X18539Y14747D01*
X18591Y14800D01*
X18628Y14864D01*
X18648Y14935D01*
Y15009D01*
X18628Y15081D01*
X18591Y15145D01*
X18539Y15198D01*
X18475Y15235D01*
X18403Y15254D01*
D02*
G37*
G36*
X17648D02*
X17085D01*
Y14691D01*
X17648D01*
Y15254D01*
D02*
G37*
G36*
X33173Y14803D02*
X33064D01*
X32959Y14775D01*
X32864Y14721D01*
X32787Y14644D01*
X32733Y14549D01*
X32705Y14444D01*
Y14335D01*
X32733Y14230D01*
X32787Y14136D01*
X32864Y14059D01*
X32959Y14005D01*
X33064Y13976D01*
X33173D01*
X33278Y14005D01*
X33372Y14059D01*
X33449Y14136D01*
X33503Y14230D01*
X33531Y14335D01*
Y14444D01*
X33503Y14549D01*
X33449Y14644D01*
X33372Y14721D01*
X33278Y14775D01*
X33173Y14803D01*
D02*
G37*
G36*
X11656Y14464D02*
X11573D01*
X11493Y14443D01*
X11421Y14401D01*
X11362Y14343D01*
X11321Y14271D01*
X11300Y14191D01*
Y14108D01*
X11321Y14028D01*
X11327Y14018D01*
X10647Y13339D01*
X8306D01*
X8263Y13330D01*
X8228Y13306D01*
X7669Y12748D01*
X5355D01*
X5354Y12752D01*
X5315Y12819D01*
X5260Y12874D01*
X5193Y12913D01*
X5118Y12933D01*
X5040D01*
X4965Y12913D01*
X4897Y12874D01*
X4842Y12819D01*
X4804Y12752D01*
X4783Y12677D01*
Y12599D01*
X4804Y12524D01*
X4842Y12456D01*
X4897Y12402D01*
X4965Y12363D01*
X5040Y12343D01*
X5118D01*
X5193Y12363D01*
X5260Y12402D01*
X5315Y12456D01*
X5354Y12524D01*
X5355Y12527D01*
X7715D01*
X7757Y12536D01*
X7793Y12560D01*
X8351Y13118D01*
X10693D01*
X10735Y13126D01*
X10771Y13150D01*
X11483Y13862D01*
X11493Y13856D01*
X11573Y13835D01*
X11656D01*
X11736Y13856D01*
X11807Y13898D01*
X11866Y13956D01*
X11907Y14028D01*
X11929Y14108D01*
Y14191D01*
X11907Y14271D01*
X11866Y14343D01*
X11807Y14401D01*
X11736Y14443D01*
X11656Y14464D01*
D02*
G37*
G36*
X9488Y14311D02*
X9410D01*
X9335Y14291D01*
X9268Y14252D01*
X9213Y14197D01*
X9174Y14130D01*
X9154Y14055D01*
Y13977D01*
X9174Y13902D01*
X9213Y13834D01*
X9268Y13779D01*
X9335Y13741D01*
X9410Y13720D01*
X9488D01*
X9563Y13741D01*
X9630Y13779D01*
X9685Y13834D01*
X9724Y13902D01*
X9744Y13977D01*
Y14055D01*
X9724Y14130D01*
X9685Y14197D01*
X9630Y14252D01*
X9563Y14291D01*
X9488Y14311D01*
D02*
G37*
G36*
X33173Y13803D02*
X33064D01*
X32959Y13775D01*
X32864Y13721D01*
X32787Y13644D01*
X32733Y13549D01*
X32705Y13444D01*
Y13335D01*
X32733Y13230D01*
X32787Y13136D01*
X32864Y13059D01*
X32959Y13005D01*
X33064Y12976D01*
X33173D01*
X33278Y13005D01*
X33372Y13059D01*
X33449Y13136D01*
X33503Y13230D01*
X33531Y13335D01*
Y13444D01*
X33503Y13549D01*
X33449Y13644D01*
X33372Y13721D01*
X33278Y13775D01*
X33173Y13803D01*
D02*
G37*
G36*
X9448Y12933D02*
X9371D01*
X9295Y12913D01*
X9228Y12874D01*
X9173Y12819D01*
X9134Y12752D01*
X9114Y12677D01*
Y12599D01*
X9134Y12524D01*
X9173Y12456D01*
X9228Y12402D01*
X9295Y12363D01*
X9371Y12343D01*
X9448D01*
X9523Y12363D01*
X9591Y12402D01*
X9646Y12456D01*
X9685Y12524D01*
X9705Y12599D01*
Y12677D01*
X9685Y12752D01*
X9646Y12819D01*
X9591Y12874D01*
X9523Y12913D01*
X9448Y12933D01*
D02*
G37*
G36*
X33173Y12803D02*
X33064D01*
X32959Y12775D01*
X32864Y12721D01*
X32787Y12644D01*
X32733Y12549D01*
X32705Y12444D01*
Y12335D01*
X32733Y12230D01*
X32787Y12136D01*
X32864Y12059D01*
X32959Y12005D01*
X33064Y11976D01*
X33173D01*
X33278Y12005D01*
X33372Y12059D01*
X33449Y12136D01*
X33503Y12230D01*
X33531Y12335D01*
Y12444D01*
X33503Y12549D01*
X33449Y12644D01*
X33372Y12721D01*
X33278Y12775D01*
X33173Y12803D01*
D02*
G37*
G36*
X50522Y11132D02*
X49636D01*
Y10246D01*
X50522D01*
Y11132D01*
D02*
G37*
G36*
X43770D02*
X42884D01*
Y10246D01*
X43770D01*
Y11132D01*
D02*
G37*
G36*
X37018D02*
X36132D01*
Y10246D01*
X37018D01*
Y11132D01*
D02*
G37*
G36*
X17276Y10262D02*
X17181D01*
X17090Y10238D01*
X17008Y10190D01*
X16941Y10124D01*
X16894Y10042D01*
X16869Y9950D01*
Y9856D01*
X16894Y9765D01*
X16941Y9683D01*
X17008Y9616D01*
X17090Y9569D01*
X17181Y9544D01*
X17276D01*
X17367Y9569D01*
X17449Y9616D01*
X17516Y9683D01*
X17563Y9765D01*
X17587Y9856D01*
Y9950D01*
X17563Y10042D01*
X17516Y10124D01*
X17449Y10190D01*
X17367Y10238D01*
X17276Y10262D01*
D02*
G37*
G36*
X16276D02*
X16181D01*
X16090Y10238D01*
X16008Y10190D01*
X15941Y10124D01*
X15894Y10042D01*
X15869Y9950D01*
Y9856D01*
X15894Y9765D01*
X15941Y9683D01*
X16008Y9616D01*
X16090Y9569D01*
X16181Y9544D01*
X16276D01*
X16367Y9569D01*
X16449Y9616D01*
X16516Y9683D01*
X16563Y9765D01*
X16587Y9856D01*
Y9950D01*
X16563Y10042D01*
X16516Y10124D01*
X16449Y10190D01*
X16367Y10238D01*
X16276Y10262D01*
D02*
G37*
G36*
X26702Y10076D02*
X26619D01*
X26538Y10055D01*
X26466Y10013D01*
X26407Y9954D01*
X26365Y9882D01*
X26344Y9802D01*
Y9718D01*
X26365Y9638D01*
X26407Y9565D01*
X26466Y9507D01*
X26538Y9465D01*
X26619Y9443D01*
X26702D01*
X26782Y9465D01*
X26855Y9507D01*
X26914Y9565D01*
X26955Y9638D01*
X26977Y9718D01*
Y9802D01*
X26955Y9882D01*
X26914Y9954D01*
X26855Y10013D01*
X26782Y10055D01*
X26702Y10076D01*
D02*
G37*
G36*
Y9076D02*
X26619D01*
X26538Y9055D01*
X26466Y9013D01*
X26407Y8954D01*
X26365Y8882D01*
X26344Y8802D01*
Y8718D01*
X26365Y8638D01*
X26407Y8565D01*
X26466Y8507D01*
X26538Y8465D01*
X26619Y8443D01*
X26702D01*
X26782Y8465D01*
X26855Y8507D01*
X26914Y8565D01*
X26955Y8638D01*
X26977Y8718D01*
Y8802D01*
X26955Y8882D01*
X26914Y8954D01*
X26855Y9013D01*
X26782Y9055D01*
X26702Y9076D01*
D02*
G37*
G36*
X19602D02*
X19519D01*
X19438Y9055D01*
X19366Y9013D01*
X19307Y8954D01*
X19265Y8882D01*
X19244Y8802D01*
Y8718D01*
X19265Y8638D01*
X19307Y8565D01*
X19366Y8507D01*
X19438Y8465D01*
X19519Y8443D01*
X19602D01*
X19682Y8465D01*
X19755Y8507D01*
X19814Y8565D01*
X19855Y8638D01*
X19877Y8718D01*
Y8802D01*
X19855Y8882D01*
X19814Y8954D01*
X19755Y9013D01*
X19682Y9055D01*
X19602Y9076D01*
D02*
G37*
G36*
X50137Y8689D02*
X50020D01*
X49908Y8659D01*
X49807Y8600D01*
X49724Y8518D01*
X49666Y8417D01*
X49636Y8304D01*
Y8188D01*
X49666Y8075D01*
X49724Y7974D01*
X49807Y7891D01*
X49908Y7833D01*
X50020Y7803D01*
X50137D01*
X50250Y7833D01*
X50351Y7891D01*
X50433Y7974D01*
X50491Y8075D01*
X50522Y8188D01*
Y8304D01*
X50491Y8417D01*
X50433Y8518D01*
X50351Y8600D01*
X50250Y8659D01*
X50137Y8689D01*
D02*
G37*
G36*
X43385D02*
X43268D01*
X43156Y8659D01*
X43055Y8600D01*
X42972Y8518D01*
X42914Y8417D01*
X42884Y8304D01*
Y8188D01*
X42914Y8075D01*
X42972Y7974D01*
X43055Y7891D01*
X43156Y7833D01*
X43268Y7803D01*
X43385D01*
X43498Y7833D01*
X43599Y7891D01*
X43681Y7974D01*
X43740Y8075D01*
X43770Y8188D01*
Y8304D01*
X43740Y8417D01*
X43681Y8518D01*
X43599Y8600D01*
X43498Y8659D01*
X43385Y8689D01*
D02*
G37*
G36*
X36633D02*
X36516D01*
X36404Y8659D01*
X36303Y8600D01*
X36220Y8518D01*
X36162Y8417D01*
X36132Y8304D01*
Y8188D01*
X36162Y8075D01*
X36220Y7974D01*
X36303Y7891D01*
X36404Y7833D01*
X36516Y7803D01*
X36633D01*
X36746Y7833D01*
X36847Y7891D01*
X36929Y7974D01*
X36988Y8075D01*
X37018Y8188D01*
Y8304D01*
X36988Y8417D01*
X36929Y8518D01*
X36847Y8600D01*
X36746Y8659D01*
X36633Y8689D01*
D02*
G37*
G36*
X26702Y8076D02*
X26619D01*
X26538Y8055D01*
X26466Y8013D01*
X26407Y7954D01*
X26365Y7882D01*
X26344Y7802D01*
Y7718D01*
X26365Y7638D01*
X26407Y7565D01*
X26466Y7507D01*
X26538Y7465D01*
X26619Y7443D01*
X26702D01*
X26782Y7465D01*
X26855Y7507D01*
X26914Y7565D01*
X26955Y7638D01*
X26977Y7718D01*
Y7802D01*
X26955Y7882D01*
X26914Y7954D01*
X26855Y8013D01*
X26782Y8055D01*
X26702Y8076D01*
D02*
G37*
G36*
X19602D02*
X19519D01*
X19438Y8055D01*
X19366Y8013D01*
X19307Y7954D01*
X19265Y7882D01*
X19244Y7802D01*
Y7718D01*
X19265Y7638D01*
X19307Y7565D01*
X19366Y7507D01*
X19438Y7465D01*
X19519Y7443D01*
X19602D01*
X19682Y7465D01*
X19755Y7507D01*
X19814Y7565D01*
X19855Y7638D01*
X19877Y7718D01*
Y7802D01*
X19855Y7882D01*
X19814Y7954D01*
X19755Y8013D01*
X19682Y8055D01*
X19602Y8076D01*
D02*
G37*
G36*
X31004Y7759D02*
X30492D01*
X30410Y7748D01*
X30333Y7716D01*
X30267Y7666D01*
X30217Y7600D01*
X30185Y7523D01*
X30174Y7441D01*
X30185Y7359D01*
X30217Y7282D01*
X30267Y7216D01*
X30333Y7166D01*
X30410Y7134D01*
X30492Y7123D01*
X31004D01*
X31086Y7134D01*
X31163Y7166D01*
X31229Y7216D01*
X31279Y7282D01*
X31311Y7359D01*
X31322Y7441D01*
X31311Y7523D01*
X31279Y7600D01*
X31229Y7666D01*
X31163Y7716D01*
X31086Y7748D01*
X31004Y7759D01*
D02*
G37*
G36*
X26702Y7076D02*
X26619D01*
X26538Y7055D01*
X26466Y7013D01*
X26407Y6954D01*
X26365Y6882D01*
X26344Y6802D01*
Y6718D01*
X26365Y6638D01*
X26407Y6565D01*
X26466Y6507D01*
X26538Y6465D01*
X26619Y6443D01*
X26702D01*
X26782Y6465D01*
X26855Y6507D01*
X26914Y6565D01*
X26955Y6638D01*
X26977Y6718D01*
Y6802D01*
X26955Y6882D01*
X26914Y6954D01*
X26855Y7013D01*
X26782Y7055D01*
X26702Y7076D01*
D02*
G37*
G36*
X19602D02*
X19519D01*
X19438Y7055D01*
X19366Y7013D01*
X19307Y6954D01*
X19265Y6882D01*
X19244Y6802D01*
Y6718D01*
X19265Y6638D01*
X19307Y6565D01*
X19366Y6507D01*
X19438Y6465D01*
X19519Y6443D01*
X19602D01*
X19682Y6465D01*
X19755Y6507D01*
X19814Y6565D01*
X19855Y6638D01*
X19877Y6718D01*
Y6802D01*
X19855Y6882D01*
X19814Y6954D01*
X19755Y7013D01*
X19682Y7055D01*
X19602Y7076D01*
D02*
G37*
G36*
X26702Y6076D02*
X26619D01*
X26538Y6055D01*
X26466Y6013D01*
X26407Y5954D01*
X26365Y5882D01*
X26344Y5802D01*
Y5718D01*
X26365Y5638D01*
X26407Y5565D01*
X26466Y5507D01*
X26538Y5465D01*
X26619Y5443D01*
X26702D01*
X26782Y5465D01*
X26855Y5507D01*
X26914Y5565D01*
X26955Y5638D01*
X26977Y5718D01*
Y5802D01*
X26955Y5882D01*
X26914Y5954D01*
X26855Y6013D01*
X26782Y6055D01*
X26702Y6076D01*
D02*
G37*
G36*
X19602D02*
X19519D01*
X19438Y6055D01*
X19366Y6013D01*
X19307Y5954D01*
X19265Y5882D01*
X19244Y5802D01*
Y5718D01*
X19265Y5638D01*
X19307Y5565D01*
X19366Y5507D01*
X19438Y5465D01*
X19519Y5443D01*
X19602D01*
X19682Y5465D01*
X19755Y5507D01*
X19814Y5565D01*
X19855Y5638D01*
X19877Y5718D01*
Y5802D01*
X19855Y5882D01*
X19814Y5954D01*
X19755Y6013D01*
X19682Y6055D01*
X19602Y6076D01*
D02*
G37*
G36*
X31004Y5908D02*
X30492D01*
X30410Y5897D01*
X30333Y5866D01*
X30267Y5815D01*
X30217Y5749D01*
X30185Y5673D01*
X30174Y5591D01*
X30185Y5508D01*
X30217Y5432D01*
X30267Y5366D01*
X30333Y5315D01*
X30410Y5284D01*
X30492Y5273D01*
X31004D01*
X31086Y5284D01*
X31163Y5315D01*
X31229Y5366D01*
X31279Y5432D01*
X31311Y5508D01*
X31322Y5591D01*
X31311Y5673D01*
X31279Y5749D01*
X31229Y5815D01*
X31163Y5866D01*
X31086Y5897D01*
X31004Y5908D01*
D02*
G37*
G36*
X26702Y5076D02*
X26619D01*
X26538Y5055D01*
X26466Y5013D01*
X26407Y4954D01*
X26365Y4882D01*
X26344Y4802D01*
Y4718D01*
X26365Y4638D01*
X26407Y4565D01*
X26466Y4507D01*
X26538Y4465D01*
X26619Y4443D01*
X26702D01*
X26782Y4465D01*
X26855Y4507D01*
X26914Y4565D01*
X26955Y4638D01*
X26977Y4718D01*
Y4802D01*
X26955Y4882D01*
X26914Y4954D01*
X26855Y5013D01*
X26782Y5055D01*
X26702Y5076D01*
D02*
G37*
G36*
X19602D02*
X19519D01*
X19438Y5055D01*
X19366Y5013D01*
X19307Y4954D01*
X19265Y4882D01*
X19244Y4802D01*
Y4718D01*
X19265Y4638D01*
X19307Y4565D01*
X19366Y4507D01*
X19438Y4465D01*
X19519Y4443D01*
X19602D01*
X19682Y4465D01*
X19755Y4507D01*
X19814Y4565D01*
X19855Y4638D01*
X19877Y4718D01*
Y4802D01*
X19855Y4882D01*
X19814Y4954D01*
X19755Y5013D01*
X19682Y5055D01*
X19602Y5076D01*
D02*
G37*
G36*
X15276Y3727D02*
X15181D01*
X15090Y3702D01*
X15008Y3655D01*
X14941Y3588D01*
X14894Y3506D01*
X14869Y3415D01*
Y3320D01*
X14894Y3229D01*
X14941Y3147D01*
X15008Y3080D01*
X15090Y3033D01*
X15181Y3009D01*
X15276D01*
X15367Y3033D01*
X15449Y3080D01*
X15516Y3147D01*
X15563Y3229D01*
X15587Y3320D01*
Y3415D01*
X15563Y3506D01*
X15516Y3588D01*
X15449Y3655D01*
X15367Y3702D01*
X15276Y3727D01*
D02*
G37*
G36*
X50522Y3767D02*
X49636D01*
Y2882D01*
X50522D01*
Y3767D01*
D02*
G37*
G36*
X43770D02*
X42884D01*
Y2882D01*
X43770D01*
Y3767D01*
D02*
G37*
G36*
X37018D02*
X36132D01*
Y2882D01*
X37018D01*
Y3767D01*
D02*
G37*
G36*
X26702Y3076D02*
X26619D01*
X26538Y3055D01*
X26466Y3013D01*
X26407Y2954D01*
X26365Y2882D01*
X26344Y2802D01*
Y2718D01*
X26365Y2638D01*
X26407Y2565D01*
X26466Y2507D01*
X26538Y2465D01*
X26619Y2443D01*
X26702D01*
X26782Y2465D01*
X26855Y2507D01*
X26914Y2565D01*
X26955Y2638D01*
X26977Y2718D01*
Y2802D01*
X26955Y2882D01*
X26914Y2954D01*
X26855Y3013D01*
X26782Y3055D01*
X26702Y3076D01*
D02*
G37*
G36*
X19602D02*
X19519D01*
X19438Y3055D01*
X19366Y3013D01*
X19307Y2954D01*
X19265Y2882D01*
X19244Y2802D01*
Y2718D01*
X19265Y2638D01*
X19307Y2565D01*
X19366Y2507D01*
X19438Y2465D01*
X19519Y2443D01*
X19602D01*
X19682Y2465D01*
X19755Y2507D01*
X19814Y2565D01*
X19855Y2638D01*
X19877Y2718D01*
Y2802D01*
X19855Y2882D01*
X19814Y2954D01*
X19755Y3013D01*
X19682Y3055D01*
X19602Y3076D01*
D02*
G37*
G36*
X54178Y1870D02*
X54011D01*
X53848Y1838D01*
X53694Y1774D01*
X53555Y1681D01*
X53437Y1563D01*
X53344Y1425D01*
X53281Y1271D01*
X53248Y1107D01*
Y940D01*
X53281Y777D01*
X53344Y623D01*
X53437Y484D01*
X53555Y366D01*
X53694Y273D01*
X53848Y210D01*
X54011Y177D01*
X54178D01*
X54341Y210D01*
X54495Y273D01*
X54634Y366D01*
X54752Y484D01*
X54845Y623D01*
X54908Y777D01*
X54941Y940D01*
Y1107D01*
X54908Y1271D01*
X54845Y1425D01*
X54752Y1563D01*
X54634Y1681D01*
X54495Y1774D01*
X54341Y1838D01*
X54178Y1870D01*
D02*
G37*
G36*
X1107D02*
X940D01*
X777Y1838D01*
X623Y1774D01*
X484Y1681D01*
X366Y1563D01*
X273Y1425D01*
X210Y1271D01*
X177Y1107D01*
Y940D01*
X210Y777D01*
X273Y623D01*
X366Y484D01*
X484Y366D01*
X623Y273D01*
X777Y210D01*
X940Y177D01*
X1107D01*
X1271Y210D01*
X1425Y273D01*
X1563Y366D01*
X1681Y484D01*
X1774Y623D01*
X1838Y777D01*
X1870Y940D01*
Y1107D01*
X1838Y1271D01*
X1774Y1425D01*
X1681Y1563D01*
X1563Y1681D01*
X1425Y1774D01*
X1271Y1838D01*
X1107Y1870D01*
D02*
G37*
%LPD*%
G36*
X41890Y35236D02*
Y31299D01*
X41063D01*
Y29606D01*
X40000D01*
Y33701D01*
X33937D01*
Y31969D01*
Y30787D01*
X33231D01*
X33173Y30803D01*
X33064D01*
X33005Y30787D01*
X28701D01*
Y13898D01*
X25236D01*
X24291Y12953D01*
Y11220D01*
Y9370D01*
Y9252D01*
X19094D01*
Y10157D01*
X21417D01*
Y11220D01*
Y13032D01*
X17598D01*
Y12205D01*
X15945D01*
Y13780D01*
X22283D01*
Y12205D01*
X23504D01*
Y13465D01*
X25000Y14961D01*
X27795D01*
Y31969D01*
X32638D01*
Y34961D01*
X37441D01*
Y36417D01*
X41890D01*
Y35236D01*
D02*
G37*
G36*
X34948Y19673D02*
X34283Y19008D01*
X33460D01*
X33419Y19106D01*
X33449Y19136D01*
X33503Y19230D01*
X33531Y19335D01*
Y19444D01*
X33503Y19549D01*
X33449Y19644D01*
X33419Y19673D01*
X33460Y19771D01*
X34907D01*
X34948Y19673D01*
D02*
G37*
G36*
X32733Y19729D02*
X32758Y19689D01*
X32777Y19626D01*
X32733Y19549D01*
X32705Y19444D01*
Y19335D01*
X32733Y19230D01*
X32787Y19136D01*
X32817Y19106D01*
X32776Y19008D01*
X32638D01*
X32596Y19000D01*
X32560Y18976D01*
X29155Y15571D01*
X29099D01*
X29067Y15558D01*
X28982Y15601D01*
X28969Y15615D01*
Y16286D01*
X29043Y16311D01*
X29067Y16312D01*
X29112Y16267D01*
X29177Y16240D01*
X29248D01*
X29313Y16267D01*
X29363Y16317D01*
X29390Y16382D01*
Y16438D01*
X32685Y19734D01*
X32733Y19729D01*
D02*
G37*
G36*
X18583Y20354D02*
X17835D01*
Y16693D01*
X26535D01*
Y15512D01*
Y15157D01*
X25827D01*
Y15512D01*
X16890D01*
Y18307D01*
X17402Y18819D01*
Y21654D01*
X18583D01*
Y20354D01*
D02*
G37*
G36*
X15881Y12205D02*
X15900Y12160D01*
X15945Y12141D01*
X17598D01*
X17644Y12160D01*
X17646Y12165D01*
X20748D01*
X20748Y11142D01*
X18819D01*
Y3780D01*
X16732D01*
Y2677D01*
X15787D01*
Y4528D01*
X17835D01*
Y11575D01*
Y11693D01*
X14961D01*
Y13780D01*
X15881D01*
Y12205D01*
D02*
G37*
G36*
X8059Y18823D02*
X8077Y18768D01*
X8049Y18719D01*
X8030Y18647D01*
Y18573D01*
X8048Y18504D01*
X7490Y17945D01*
X5472D01*
X5430Y17937D01*
X5394Y17913D01*
X2839Y15357D01*
X2748Y15395D01*
Y17133D01*
X4481Y18866D01*
X5029D01*
X5059Y18823D01*
X5077Y18768D01*
X5049Y18719D01*
X5030Y18647D01*
Y18573D01*
X5049Y18502D01*
X5086Y18437D01*
X5138Y18385D01*
X5202Y18348D01*
X5274Y18329D01*
X5348D01*
X5420Y18348D01*
X5484Y18385D01*
X5536Y18437D01*
X5573Y18502D01*
X5593Y18573D01*
Y18647D01*
X5573Y18719D01*
X5545Y18768D01*
X5564Y18823D01*
X5593Y18866D01*
X6029D01*
X6058Y18823D01*
X6077Y18768D01*
X6049Y18719D01*
X6030Y18647D01*
Y18573D01*
X6049Y18502D01*
X6086Y18437D01*
X6138Y18385D01*
X6202Y18348D01*
X6274Y18329D01*
X6348D01*
X6420Y18348D01*
X6484Y18385D01*
X6536Y18437D01*
X6573Y18502D01*
X6593Y18573D01*
Y18647D01*
X6573Y18719D01*
X6545Y18768D01*
X6564Y18823D01*
X6593Y18866D01*
X7029D01*
X7059Y18823D01*
X7077Y18768D01*
X7049Y18719D01*
X7030Y18647D01*
Y18573D01*
X7049Y18502D01*
X7086Y18437D01*
X7138Y18385D01*
X7202Y18348D01*
X7274Y18329D01*
X7348D01*
X7420Y18348D01*
X7484Y18385D01*
X7536Y18437D01*
X7573Y18502D01*
X7593Y18573D01*
Y18647D01*
X7573Y18719D01*
X7545Y18768D01*
X7564Y18823D01*
X7593Y18866D01*
X8029D01*
X8059Y18823D01*
D02*
G37*
G36*
X4134Y30025D02*
X1457D01*
Y39764D01*
X4134D01*
Y30025D01*
D02*
G37*
G36*
X4094Y43071D02*
X1339D01*
X1378Y43032D01*
Y29961D01*
X4134D01*
Y28898D01*
X197D01*
Y47362D01*
X4094D01*
Y43071D01*
D02*
G37*
%LPC*%
G36*
X3151Y31773D02*
X2439D01*
Y31061D01*
X3151D01*
Y31773D01*
D02*
G37*
%LPD*%
D18*
X53425Y22677D02*
D03*
X52441D02*
D03*
X53425Y18740D02*
D03*
X52441D02*
D03*
X50472Y20709D02*
D03*
D60*
X13032Y28465D02*
X14291Y29724D01*
Y32008D02*
X18189Y35906D01*
X14291Y29724D02*
Y32008D01*
X18189Y35906D02*
X35276D01*
X12205Y28465D02*
X13032D01*
X52205Y33071D02*
X53268Y32008D01*
X47520Y33071D02*
X52205D01*
X45276Y30827D02*
X47520Y33071D01*
X50079Y32559D02*
X50945Y31693D01*
X47874Y32559D02*
X50079D01*
X46496Y31181D02*
X47874Y32559D01*
X46496Y29255D02*
Y31181D01*
X40984Y23744D02*
X46496Y29255D01*
X40827Y23819D02*
X45276Y28268D01*
Y30827D01*
X40984Y3189D02*
Y23744D01*
X40669Y3319D02*
Y23884D01*
X44606Y27821D02*
Y33465D01*
X40827Y3254D02*
Y23819D01*
X40669Y23884D02*
X44606Y27821D01*
X10693Y13228D02*
X11614Y14150D01*
X8306Y13228D02*
X10693D01*
X7715Y12638D02*
X8306Y13228D01*
X12205Y31220D02*
X13032D01*
X32638Y19843D02*
Y19882D01*
X29213Y16417D02*
X32638Y19843D01*
X29134Y15394D02*
X32638Y18898D01*
X42508Y27350D02*
Y30256D01*
X35039Y19882D02*
X42508Y27350D01*
X32638Y19882D02*
X35039D01*
X28020Y12390D02*
X28858Y13228D01*
Y25130D02*
X33118Y29390D01*
X28858Y13228D02*
Y25130D01*
X27118Y12390D02*
X28020D01*
X29488Y22402D02*
X29494Y22396D01*
X32638Y18898D02*
X34329D01*
X16496Y21496D02*
X18228Y23228D01*
X16496Y16929D02*
Y21496D01*
X18228Y23228D02*
X25295D01*
X25295Y23228D01*
X2795Y10748D02*
Y15157D01*
Y10748D02*
X12362Y1181D01*
X2795Y15157D02*
X5472Y17835D01*
X2480Y10616D02*
Y17244D01*
X2638Y10682D02*
Y17179D01*
X2480Y17244D02*
X4370Y19134D01*
X2638Y10682D02*
X12296Y1024D01*
X2638Y17179D02*
X4435Y18976D01*
X4370Y19134D02*
X14882D01*
X4435Y18976D02*
X13484D01*
X15630Y16831D01*
X12296Y1024D02*
X38596D01*
X12362Y1181D02*
X38531D01*
X2480Y10616D02*
X12231Y866D01*
X38661D01*
X40984Y3189D01*
X38596Y1024D02*
X40827Y3254D01*
X38531Y1181D02*
X40669Y3319D01*
X53268Y31693D02*
Y32008D01*
X14882Y19134D02*
X15630Y18386D01*
X15827Y16260D02*
X16496Y16929D01*
X6417Y16260D02*
X15827D01*
X5906Y15748D02*
X6417Y16260D01*
X5906Y14803D02*
Y15748D01*
X5472Y17835D02*
X7535D01*
X8311Y18610D01*
X43508Y28077D02*
Y30256D01*
X34329Y18898D02*
X43508Y28077D01*
X29724Y20906D02*
X32602D01*
X29494Y22396D02*
X33112D01*
X32602Y20906D02*
X33118Y20390D01*
X32618Y21890D02*
X33118Y21390D01*
X33112Y22396D02*
X33118Y22390D01*
X5118Y14016D02*
X5906Y14803D01*
X5079Y12638D02*
X7715D01*
X11614Y13150D02*
X13504D01*
X15630Y15276D01*
X29685Y21890D02*
X32618D01*
D61*
X16614Y31693D02*
D03*
D62*
X17283D02*
D03*
X17953D02*
D03*
X18622D02*
D03*
X19291D02*
D03*
D63*
X50472Y18740D02*
D03*
Y19724D02*
D03*
Y22677D02*
D03*
Y21693D02*
D03*
D64*
X52441Y20709D02*
D03*
D65*
X51352Y28976D02*
D03*
Y24646D02*
D03*
X52822Y28976D02*
D03*
Y24646D02*
D03*
X54291Y28976D02*
D03*
Y24646D02*
D03*
X49882Y28976D02*
D03*
Y24646D02*
D03*
X11299Y15276D02*
D03*
X21732Y30709D02*
D03*
X36693Y31575D02*
D03*
X48740Y31535D02*
D03*
Y35866D02*
D03*
X39606Y35906D02*
D03*
Y31575D02*
D03*
X38176D02*
D03*
Y35906D02*
D03*
X35276D02*
D03*
Y31575D02*
D03*
X36693Y35906D02*
D03*
X19646Y24055D02*
D03*
X23976D02*
D03*
X5079Y12638D02*
D03*
X9409D02*
D03*
X9449Y14016D02*
D03*
X5118D02*
D03*
X15630Y15276D02*
D03*
X11299Y16831D02*
D03*
X15630D02*
D03*
X11299Y18386D02*
D03*
X15630D02*
D03*
X46575Y33465D02*
D03*
X11299Y19961D02*
D03*
X15630D02*
D03*
D66*
X30748Y3740D02*
D03*
Y7441D02*
D03*
Y5591D02*
D03*
D67*
X11614Y12150D02*
D03*
D68*
X14382Y21496D02*
D03*
X12098D02*
D03*
X9775D02*
D03*
X19888Y21811D02*
D03*
X23860Y19567D02*
D03*
Y21811D02*
D03*
X19888Y19567D02*
D03*
X21874Y21811D02*
D03*
Y19567D02*
D03*
D69*
X17008Y20984D02*
D03*
X42375Y33702D02*
D03*
X19961Y12697D02*
D03*
X22874D02*
D03*
X5984Y23543D02*
D03*
Y20748D02*
D03*
X16654Y28051D02*
D03*
X53268Y30906D02*
D03*
X50945D02*
D03*
X5826Y26097D02*
D03*
D70*
X45295Y3325D02*
D03*
Y8246D02*
D03*
Y10689D02*
D03*
Y15610D02*
D03*
X52047Y3325D02*
D03*
Y8246D02*
D03*
X38543Y10689D02*
D03*
Y15610D02*
D03*
X52047Y10689D02*
D03*
Y15610D02*
D03*
X38543Y3325D02*
D03*
Y8246D02*
D03*
X36575D02*
D03*
X50079Y15610D02*
D03*
X43327Y8246D02*
D03*
Y15610D02*
D03*
X50079Y8246D02*
D03*
X36575Y15610D02*
D03*
D71*
X23138Y26378D02*
D03*
X22138D02*
D03*
D72*
X24366Y14972D02*
D03*
X23366D02*
D03*
X8311Y15484D02*
D03*
X6311D02*
D03*
X7311D02*
D03*
X8311Y18610D02*
D03*
X6311D02*
D03*
X5311D02*
D03*
X7311D02*
D03*
X18366Y14972D02*
D03*
X19366D02*
D03*
X20366D02*
D03*
X21366D02*
D03*
X22366D02*
D03*
X24366Y18098D02*
D03*
X23366D02*
D03*
X22366D02*
D03*
X21366D02*
D03*
X20366D02*
D03*
X17366D02*
D03*
X18366D02*
D03*
X19366D02*
D03*
D73*
X1693Y21299D02*
D03*
X1732Y13189D02*
D03*
X33118Y30390D02*
D03*
X27118Y13390D02*
D03*
Y28390D02*
D03*
Y25390D02*
D03*
Y26390D02*
D03*
Y24390D02*
D03*
Y30390D02*
D03*
Y23390D02*
D03*
Y29390D02*
D03*
Y22390D02*
D03*
Y21390D02*
D03*
Y15390D02*
D03*
Y17390D02*
D03*
Y12390D02*
D03*
Y19390D02*
D03*
Y20390D02*
D03*
Y18390D02*
D03*
X33118Y28390D02*
D03*
Y26390D02*
D03*
Y25390D02*
D03*
Y29390D02*
D03*
Y27390D02*
D03*
Y13390D02*
D03*
Y19390D02*
D03*
Y18390D02*
D03*
Y17390D02*
D03*
Y16390D02*
D03*
Y14390D02*
D03*
Y15390D02*
D03*
Y12390D02*
D03*
Y23390D02*
D03*
Y20390D02*
D03*
X27118Y27390D02*
D03*
X33118Y22390D02*
D03*
Y24390D02*
D03*
Y21390D02*
D03*
X27118Y14390D02*
D03*
Y16390D02*
D03*
X1732Y15157D02*
D03*
X1693Y23268D02*
D03*
D74*
X19843Y25395D02*
D03*
D75*
X52677Y34646D02*
D03*
X5787Y31260D02*
D03*
Y28504D02*
D03*
D76*
X50394Y34421D02*
D03*
Y35421D02*
D03*
D77*
X19560Y3760D02*
D03*
X26660D02*
D03*
Y2760D02*
D03*
X19560D02*
D03*
X26660Y9760D02*
D03*
Y8760D02*
D03*
X19560D02*
D03*
X26660Y4760D02*
D03*
Y7760D02*
D03*
X19560D02*
D03*
Y4760D02*
D03*
X26660Y5760D02*
D03*
Y6760D02*
D03*
X19560Y5760D02*
D03*
Y6760D02*
D03*
D78*
X15228Y9903D02*
D03*
X17228Y3368D02*
D03*
X15228D02*
D03*
X17228Y9903D02*
D03*
X16228D02*
D03*
Y3368D02*
D03*
D79*
X41508Y30256D02*
D03*
X2795Y29449D02*
D03*
Y28465D02*
D03*
Y30433D02*
D03*
X42508Y30256D02*
D03*
X43508D02*
D03*
D80*
X36575Y3325D02*
D03*
X50079Y10689D02*
D03*
X43327Y3325D02*
D03*
Y10689D02*
D03*
X50079Y3325D02*
D03*
X36575Y10689D02*
D03*
D81*
X11614Y14150D02*
D03*
Y13150D02*
D03*
D82*
X6772Y28504D02*
D03*
Y31260D02*
D03*
X53661Y34646D02*
D03*
D83*
X2795Y31417D02*
D03*
D84*
X31161Y45118D02*
D03*
X2461Y37520D02*
D03*
X31161Y52717D02*
D03*
X2461Y45118D02*
D03*
X31161Y37520D02*
D03*
X2461Y52717D02*
D03*
D85*
X40508Y30256D02*
D03*
D86*
X48209Y29980D02*
D03*
X35807Y18287D02*
D03*
X48209D02*
D03*
X35807Y29980D02*
D03*
D87*
X19560Y9760D02*
D03*
D88*
X5311Y15484D02*
D03*
X17366Y14972D02*
D03*
D89*
X53268Y31693D02*
D03*
X50945D02*
D03*
X16654Y29035D02*
D03*
X19961Y11713D02*
D03*
X22874D02*
D03*
D90*
X23701Y30709D02*
D03*
X44606Y33465D02*
D03*
D91*
X19843Y29487D02*
D03*
D92*
X27118Y31390D02*
D03*
X33118D02*
D03*
D93*
X16260Y25236D02*
D03*
X18228D02*
D03*
D94*
X14433Y12913D02*
D03*
D95*
X15433D02*
D03*
X16433D02*
D03*
D96*
X6969Y20748D02*
D03*
Y23543D02*
D03*
X6613Y26097D02*
D03*
X17992Y20984D02*
D03*
X41391Y33702D02*
D03*
D97*
X1732Y17126D02*
D03*
X1693Y25236D02*
D03*
D98*
X12205Y31220D02*
D03*
Y28465D02*
D03*
D99*
X54094Y58032D02*
D03*
X1024D02*
D03*
Y1024D02*
D03*
X54094D02*
D03*
D100*
X20888Y19567D02*
D03*
X22874D02*
D03*
X20888Y21811D02*
D03*
X22874D02*
D03*
X24860Y19567D02*
D03*
Y21811D02*
D03*
X15382Y21496D02*
D03*
X13098D02*
D03*
X10775D02*
D03*
D101*
X27679Y45118D02*
D03*
Y37520D02*
D03*
Y52717D02*
D03*
X5785Y45118D02*
D03*
Y37520D02*
D03*
Y52717D02*
D03*
D102*
X29213Y16417D02*
D03*
X29134Y15394D02*
D03*
X29488Y22402D02*
D03*
X26339Y15354D02*
D03*
Y16024D02*
D03*
X26024Y15709D02*
D03*
X25295Y23228D02*
D03*
X29685Y21890D02*
D03*
X29724Y20906D02*
D03*
M02*
