G04*
G04 #@! TF.GenerationSoftware,Altium Limited,Altium Designer,25.7.1 (20)*
G04*
G04 Layer_Color=32768*
%FSLAX24Y24*%
%MOIN*%
G70*
G04*
G04 #@! TF.SameCoordinates,6BD2BFD6-E8B5-49EE-896E-F5671A370314*
G04*
G04*
G04 #@! TF.FilePolarity,Positive*
G04*
G01*
G75*
%ADD103C,0.0039*%
%ADD104C,0.0020*%
D103*
X17955Y31496D02*
Y31890D01*
X17758Y31693D02*
X18152D01*
D104*
X54350Y31299D02*
G03*
X54350Y31299I-1083J0D01*
G01*
X52028D02*
G03*
X52028Y31299I-1083J0D01*
G01*
X24783Y30709D02*
G03*
X24783Y30709I-2067J0D01*
G01*
X17992Y28543D02*
G03*
X17992Y28543I-1339J0D01*
G01*
X19114Y25236D02*
G03*
X19114Y25236I-1870J0D01*
G01*
X7815Y20748D02*
G03*
X7815Y20748I-1339J0D01*
G01*
Y23543D02*
G03*
X7815Y23543I-1339J0D01*
G01*
X7302Y26097D02*
G03*
X7302Y26097I-1083J0D01*
G01*
X21299Y12205D02*
G03*
X21299Y12205I-1339J0D01*
G01*
X24213D02*
G03*
X24213Y12205I-1339J0D01*
G01*
X18839Y20984D02*
G03*
X18839Y20984I-1339J0D01*
G01*
X43221Y33702D02*
G03*
X43221Y33702I-1339J0D01*
G01*
X47657Y33465D02*
G03*
X47657Y33465I-2067J0D01*
G01*
X15750Y30776D02*
X20159D01*
X15750Y32882D02*
X20159D01*
X15750Y30776D02*
Y32882D01*
X20159Y30776D02*
Y32882D01*
X55098Y18248D02*
Y23169D01*
X49390D02*
X55098D01*
X49390Y18248D02*
Y23169D01*
Y18248D02*
X55098D01*
X51686Y28248D02*
Y29311D01*
Y28248D02*
X51962D01*
Y25374D02*
Y28248D01*
X51686Y25374D02*
X51962D01*
X51686Y24311D02*
Y25374D01*
X51017Y24311D02*
X51686D01*
X51017D02*
Y25374D01*
X50741D02*
X51017D01*
X50741D02*
Y28248D01*
X51017D01*
Y29311D01*
X51686D01*
X52487D02*
X53156D01*
X52487Y28248D02*
Y29311D01*
X52211Y28248D02*
X52487D01*
X52211Y25374D02*
Y28248D01*
Y25374D02*
X52487D01*
Y24311D02*
Y25374D01*
Y24311D02*
X53156D01*
Y25374D01*
X53432D01*
Y28248D01*
X53156D02*
X53432D01*
X53156D02*
Y29311D01*
X53957Y24311D02*
Y25374D01*
X53681D02*
X53957D01*
X53681D02*
Y28248D01*
X53957D01*
Y29311D01*
X54626D01*
Y28248D02*
Y29311D01*
Y28248D02*
X54902D01*
Y25374D02*
Y28248D01*
X54626Y25374D02*
X54902D01*
X54626Y24311D02*
Y25374D01*
X53957Y24311D02*
X54626D01*
X49547D02*
X50217D01*
Y25374D01*
X50492D01*
Y28248D01*
X50217D02*
X50492D01*
X50217D02*
Y29311D01*
X49547D02*
X50217D01*
X49547Y28248D02*
Y29311D01*
X49272Y28248D02*
X49547D01*
X49272Y25374D02*
Y28248D01*
Y25374D02*
X49547D01*
Y24311D02*
Y25374D01*
X35098Y2842D02*
Y8728D01*
X40020D01*
Y2842D02*
Y8728D01*
X35098Y2842D02*
X40020D01*
X48602Y10207D02*
Y16093D01*
X53524D01*
Y10207D02*
Y16093D01*
X48602Y10207D02*
X53524D01*
X29311Y8189D02*
X32185D01*
X29311Y2992D02*
Y8189D01*
Y2992D02*
X32185D01*
Y8189D01*
X10598Y11796D02*
Y14504D01*
X12213D01*
Y11796D02*
Y14504D01*
X10598Y11796D02*
X12213D01*
X4724Y29941D02*
X7835D01*
Y27480D02*
Y29941D01*
X4724Y27480D02*
X7835D01*
X4724D02*
Y29941D01*
Y32697D02*
X7835D01*
Y30236D02*
Y32697D01*
X4724Y30236D02*
X7835D01*
X4724D02*
Y32697D01*
X1358Y27402D02*
Y32480D01*
X3819D01*
Y27402D02*
Y32480D01*
X1358Y27402D02*
X3819D01*
X49094Y17402D02*
Y30866D01*
X34921D02*
X49094D01*
X34921Y17402D02*
X49094D01*
X34921D02*
Y30866D01*
X19012Y2161D02*
Y10358D01*
Y2161D02*
X27209D01*
Y10358D01*
X19012D02*
X27209D01*
X4825Y15163D02*
Y18931D01*
X8797Y15163D02*
Y18931D01*
X4825D02*
X8797D01*
X4825Y15163D02*
X8797D01*
X49670Y33823D02*
X51117D01*
Y36020D01*
X49670D02*
X51117D01*
X49670Y33823D02*
Y36020D01*
X51614Y36083D02*
X54724D01*
Y33622D02*
Y36083D01*
X51614Y33622D02*
X54724D01*
X51614D02*
Y36083D01*
X48406Y36201D02*
X49075D01*
X48406Y35138D02*
Y36201D01*
X48130Y35138D02*
X48406D01*
X48130Y32264D02*
Y35138D01*
Y32264D02*
X48406D01*
Y31201D02*
Y32264D01*
Y31201D02*
X49075D01*
Y32264D01*
X49350D01*
Y35138D01*
X49075D02*
X49350D01*
X49075D02*
Y36201D01*
X39272Y31240D02*
X39941D01*
Y32303D01*
X40217D01*
Y35177D01*
X39941D02*
X40217D01*
X39941D02*
Y36240D01*
X39272D02*
X39941D01*
X39272Y35177D02*
Y36240D01*
X38996Y35177D02*
X39272D01*
X38996Y32303D02*
Y35177D01*
Y32303D02*
X39272D01*
Y31240D02*
Y32303D01*
X37841Y36240D02*
X38510D01*
X37841Y35177D02*
Y36240D01*
X37566Y35177D02*
X37841D01*
X37566Y32303D02*
Y35177D01*
Y32303D02*
X37841D01*
Y31240D02*
Y32303D01*
Y31240D02*
X38510D01*
Y32303D01*
X38786D01*
Y35177D01*
X38510D02*
X38786D01*
X38510D02*
Y36240D01*
X34941Y31240D02*
X35610D01*
Y32303D01*
X35886D01*
Y35177D01*
X35610D02*
X35886D01*
X35610D02*
Y36240D01*
X34941D02*
X35610D01*
X34941Y35177D02*
Y36240D01*
X34665Y35177D02*
X34941D01*
X34665Y32303D02*
Y35177D01*
Y32303D02*
X34941D01*
Y31240D02*
Y32303D01*
X36358Y31240D02*
X37028D01*
Y32303D01*
X37303D01*
Y35177D01*
X37028D02*
X37303D01*
X37028D02*
Y36240D01*
X36358D02*
X37028D01*
X36358Y35177D02*
Y36240D01*
X36083Y35177D02*
X36358D01*
X36083Y32303D02*
Y35177D01*
Y32303D02*
X36358D01*
Y31240D02*
Y32303D01*
X23248Y23720D02*
X24311D01*
X23248Y23445D02*
Y23720D01*
X20374Y23445D02*
X23248D01*
X20374D02*
Y23720D01*
X19311D02*
X20374D01*
X19311D02*
Y24390D01*
X20374D01*
Y24665D01*
X23248D01*
Y24390D02*
Y24665D01*
Y24390D02*
X24311D01*
Y23720D02*
Y24390D01*
X20406Y24983D02*
Y29898D01*
X19280Y24983D02*
X20406D01*
X19280D02*
Y29898D01*
X20406D01*
X13232Y14197D02*
X17634D01*
Y12047D02*
Y14197D01*
X13232Y12047D02*
X17634D01*
X13232D02*
Y14197D01*
X4744Y12303D02*
Y12972D01*
Y12303D02*
X5807D01*
Y12028D02*
Y12303D01*
Y12028D02*
X8681D01*
Y12303D01*
X9744D01*
Y12972D01*
X8681D02*
X9744D01*
X8681D02*
Y13248D01*
X5807D02*
X8681D01*
X5807Y12972D02*
Y13248D01*
X4744Y12972D02*
X5807D01*
X4783Y13681D02*
Y14350D01*
Y13681D02*
X5846D01*
Y13406D02*
Y13681D01*
Y13406D02*
X8720D01*
Y13681D01*
X9783D01*
Y14350D01*
X8720D02*
X9783D01*
X8720D02*
Y14626D01*
X5846D02*
X8720D01*
X5846Y14350D02*
Y14626D01*
X4783Y14350D02*
X5846D01*
X-7736Y18602D02*
X3957D01*
X-7736Y11713D02*
Y18602D01*
Y11713D02*
X3957D01*
Y18602D01*
X3917Y19823D02*
Y26713D01*
X-7776Y19823D02*
X3917D01*
X-7776D02*
Y26713D01*
X3917D01*
X16892Y14652D02*
Y18419D01*
X24841Y14652D02*
Y18419D01*
X16892D02*
X24841D01*
X16892Y14652D02*
X24841D01*
X10965Y14941D02*
Y15610D01*
Y14941D02*
X12028D01*
Y14665D02*
Y14941D01*
Y14665D02*
X14902D01*
Y14941D01*
X15965D01*
Y15610D01*
X14902D02*
X15965D01*
X14902D02*
Y15886D01*
X12028D02*
X14902D01*
X12028Y15610D02*
Y15886D01*
X10965Y15610D02*
X12028D01*
X15965Y16496D02*
Y17165D01*
X14902D02*
X15965D01*
X14902D02*
Y17441D01*
X12028D02*
X14902D01*
X12028Y17165D02*
Y17441D01*
X10965Y17165D02*
X12028D01*
X10965Y16496D02*
Y17165D01*
Y16496D02*
X12028D01*
Y16220D02*
Y16496D01*
Y16220D02*
X14902D01*
Y16496D01*
X15965D01*
Y18051D02*
Y18720D01*
X14902D02*
X15965D01*
X14902D02*
Y18996D01*
X12028D02*
X14902D01*
X12028Y18720D02*
Y18996D01*
X10965Y18720D02*
X12028D01*
X10965Y18051D02*
Y18720D01*
Y18051D02*
X12028D01*
Y17776D02*
Y18051D01*
Y17776D02*
X14902D01*
Y18051D01*
X15965D01*
X19530Y20165D02*
X21246D01*
Y18969D02*
Y20165D01*
X19530Y18969D02*
X21246D01*
X19530D02*
Y20165D01*
X21516D02*
X23232D01*
Y18969D02*
Y20165D01*
X21516Y18969D02*
X23232D01*
X21516D02*
Y20165D01*
X19530Y22409D02*
X21246D01*
Y21213D02*
Y22409D01*
X19530Y21213D02*
X21246D01*
X19530D02*
Y22409D01*
X21516D02*
X23232D01*
Y21213D02*
Y22409D01*
X21516Y21213D02*
X23232D01*
X21516D02*
Y22409D01*
X1339Y33270D02*
X32126D01*
X1339D02*
Y56967D01*
X32126D01*
Y33270D02*
Y56967D01*
X23502Y20165D02*
X25218D01*
Y18969D02*
Y20165D01*
X23502Y18969D02*
X25218D01*
X23502D02*
Y20165D01*
Y21213D02*
Y22409D01*
Y21213D02*
X25218D01*
Y22409D01*
X23502D02*
X25218D01*
X41850Y2842D02*
X46772D01*
Y8728D01*
X41850D02*
X46772D01*
X41850Y2842D02*
Y8728D01*
Y10207D02*
X46772D01*
Y16093D01*
X41850D02*
X46772D01*
X41850Y10207D02*
Y16093D01*
X48602Y2842D02*
X53524D01*
Y8728D01*
X48602D02*
X53524D01*
X48602Y2842D02*
Y8728D01*
X35098Y10207D02*
X40020D01*
Y16093D01*
X35098D02*
X40020D01*
X35098Y10207D02*
Y16093D01*
X10965Y20295D02*
X12028D01*
Y20571D01*
X14902D01*
Y20295D02*
Y20571D01*
Y20295D02*
X15965D01*
Y19626D02*
Y20295D01*
X14902Y19626D02*
X15965D01*
X14902Y19350D02*
Y19626D01*
X12028Y19350D02*
X14902D01*
X12028D02*
Y19626D01*
X10965D02*
X12028D01*
X10965D02*
Y20295D01*
X14024Y20898D02*
Y22094D01*
Y20898D02*
X15740D01*
Y22094D01*
X14024D02*
X15740D01*
X11740Y20898D02*
Y22094D01*
Y20898D02*
X13456D01*
Y22094D01*
X11740D02*
X13456D01*
X9418Y20898D02*
Y22094D01*
Y20898D02*
X11133D01*
Y22094D01*
X9418D02*
X11133D01*
M02*
